<svg xmlns="http://www.w3.org/2000/svg" viewBox="0 0 434.95 437.75"><defs><style>.cls-1{fill:#2da736;}.cls-2{fill:#fff;}.cls-3{fill:#e52938;}</style></defs><g id="Capa_2" data-name="Capa 2"><g id="Capa_1-2" data-name="Capa 1"><path class="cls-1" d="M118.89,325a2.44,2.44,0,0,1-2.35-3.09,443.14,443.14,0,0,1,20.25-56.82,2.43,2.43,0,0,1,4.46,1.94,438.76,438.76,0,0,0-18.86,52.11c21.22-5.48,40.17-9.71,57.75-12.88,3-16,6.48-31.39,10.38-45.79a2.4,2.4,0,0,1,3-1.71,2.43,2.43,0,0,1,1.72,3c-4,14.76-7.57,30.6-10.6,47.06a2.43,2.43,0,0,1-2,2c-19,3.39-39.69,8-63.15,14.17a2.55,2.55,0,0,1-.61.08"/><path class="cls-1" d="M139,268.51a2.26,2.26,0,0,1-.92-.23,2.4,2.4,0,0,1-1.51-2.21,3.54,3.54,0,0,1,.23-1c23.42-53.91,56.93-102.49,96.69-140.4a10.67,10.67,0,0,0,3.36-7.88v-.7a2.44,2.44,0,1,1,4.87-.34v1a15.51,15.51,0,0,1-4.87,11.36c-39.3,37.56-72.46,85.56-95.64,138.89a2.28,2.28,0,0,1-2.21,1.51"/><path class="cls-1" d="M110.86,129.26a2.43,2.43,0,0,1-2.36-3l10.19-40.91A2.43,2.43,0,0,1,120,83.74c3.61-2.11,10.92-3.45,16.43-4.21,10.24-1.42,23.55-2,39-2.65l4.94-.21h.11a2.44,2.44,0,0,1,.11,4.87l-4.67.2c-15.57.67-28.77,1.23-38.78,2.62-8.44,1.17-12.28,2.46-13.91,3.22l-8.79,35.3c19-7,37.42-9.48,54.71-11.36a2.43,2.43,0,0,1,.53,4.84c-18.29,2-37.82,4.62-57.82,12.73a2.25,2.25,0,0,1-.92.18"/><path class="cls-1" d="M180.51,81.5h-.11A2.5,2.5,0,0,1,178,79.19v-.12a2.5,2.5,0,0,1,2.32-2.43c5.91-.24,12.17-.47,18.78-.81h.11a2.33,2.33,0,0,1,2.44,2.2,3.48,3.48,0,0,1-.58,1.85,3,3,0,0,1-1.74.81c-6.49.35-12.87.58-18.78.81"/><path class="cls-1" d="M257.86,117.12a2.49,2.49,0,0,1-1.09-.26,2.45,2.45,0,0,1-1.08-3.28A253.05,253.05,0,0,0,272.37,73.3c-18,2.79-36.35,4.85-56.06,6.27a2.44,2.44,0,1,1-.35-4.86c21-1.51,40.42-3.74,59.46-6.82a2.48,2.48,0,0,1,2.21.79,2.41,2.41,0,0,1,.52,2.29c-4.27,14.65-9.85,28.47-18.11,44.81a2.44,2.44,0,0,1-2.18,1.34"/><path class="cls-1" d="M183.1,425.18a4.82,4.82,0,0,1-3.38-1.38L97.55,344.19a4.87,4.87,0,1,1,6.77-7l82.17,79.62a4.87,4.87,0,0,1-3.39,8.36"/><path class="cls-1" d="M280.5,408.4a4.84,4.84,0,0,1-3.34-1.33L189.48,324.3a4.87,4.87,0,1,1,6.68-7.08L283.84,400a4.87,4.87,0,0,1-3.34,8.41"/><path class="cls-1" d="M150.27,208.61a4.85,4.85,0,0,1-3.34-1.34L91.28,154.74A4.86,4.86,0,1,1,98,147.67l55.65,52.53a4.87,4.87,0,0,1-3.34,8.41"/><path class="cls-1" d="M387.15,146.19a4.86,4.86,0,0,1-3.24-1.24L288.09,59.44a4.87,4.87,0,1,1,6.48-7.26l95.82,85.51a4.87,4.87,0,0,1-3.24,8.5"/><path class="cls-2" d="M102.4,344.9a5.56,5.56,0,0,1-4-1.58C96,341,96.75,338,97,336.82,108,289.9,137.3,202,211.65,125.74c-11.15,2.72-23,4-35.32,5.27-25.94,2.74-52.76,5.56-79.17,22.26-2.7,1.69-5.53,1.57-7.6-.34a6.41,6.41,0,0,1-1.75-6.46l15.88-63.81c2.85-11.44,16-14.78,29.83-16.69,11-1.52,24.7-2.1,40.6-2.78,30.16-1.29,67.71-2.9,113.05-11.43,1.67-.31,4.48-.85,6.78,1.5s1.58,5.41,1.33,6.57a244.69,244.69,0,0,1-17.59,51.87,3.65,3.65,0,0,1-6.63-3.06A238,238,0,0,0,288,59c-45.62,8.54-83.27,10.16-113.55,11.45-15.71.68-29.28,1.25-39.91,2.73-15.41,2.12-22.29,5.37-23.75,11.22L95.52,145.69c27.29-16.38,55.28-19.33,80.05-21.94,17.41-1.83,33.86-3.57,48.14-9.56a3.65,3.65,0,0,1,3.93,6C147.35,196.7,116.06,288.3,104.47,337c32.81-9,60.6-15.4,85.19-19.46,3.22-18.42,7.08-36,11.49-52.33a3.65,3.65,0,1,1,7,1.9c-4.55,16.86-8.51,35.1-11.77,54.22a3.66,3.66,0,0,1-3,3c-25.45,4.08-54.44,10.68-88.6,20.18a8.78,8.78,0,0,1-2.39.36"/><path class="cls-3" d="M285,295.05a86.61,86.61,0,1,1,86.61-86.6A86.7,86.7,0,0,1,285,295.05m0-165.91a79.31,79.31,0,1,0,79.3,79.31A79.4,79.4,0,0,0,285,129.14"/><path class="cls-2" d="M237.51,246.65c-6.56,0-10.24-2.52-12.23-4.83-2.45-2.83-4.8-8.19-2.17-17.69l13.66-49.35a2.43,2.43,0,0,1,2-1.76l20-2.49a2.44,2.44,0,0,1,2.65,3.06l-14,50.75c-.81,2.9-.56,3.73-.46,3.91a2.44,2.44,0,1,1-4.33,2.23c-1.13-2.19-.59-5,.1-7.44l13.08-47.23L241,177.65l-13.24,47.78c-1.62,5.88-1.21,10.44,1.17,13.21,2.83,3.27,7.87,3.42,11.56,2.94,4.31-.54,6.74-2,8-3.16a2.46,2.46,0,0,1,2.91-.27,2.41,2.41,0,0,1,1.15,2.22l14.81-1.84,18.41-66.45L271,173.91l-15.15,54.72a2.43,2.43,0,1,1-4.69-1.3l15.59-56.28a2.43,2.43,0,0,1,2-1.77l20-2.49a2.52,2.52,0,0,1,2.14.83,2.43,2.43,0,0,1,.5,2.24L271.65,241.4a2.46,2.46,0,0,1-2,1.77l-20,2.48a2.56,2.56,0,0,1-2.15-.83l0,0a23.13,23.13,0,0,1-6.31,1.64,29.39,29.39,0,0,1-3.61.24"/><path class="cls-2" d="M271.19,263.75a2.43,2.43,0,0,1-2.34-3.08l25.78-93.09a2.43,2.43,0,0,1,2-1.76l20-2.49a2.39,2.39,0,0,1,2.14.83,1.15,1.15,0,0,1,.14.17,22.93,22.93,0,0,1,6.92-2.22c6.1-.77,11.5,1,14.88,5,3.78,4.38,4.7,11,2.57,18.69L339,201.46a2.23,2.23,0,0,1-.41.83,2.41,2.41,0,0,1-.07.92L335,215.78C331.27,229.19,321.21,237,305.1,239l-6.12.76-5.46,19.71a2.43,2.43,0,0,1-2,1.76l-20,2.49h-.3m27.69-93.3-24.37,88,14.75-1.83,5.46-19.71a2.43,2.43,0,0,1,2-1.76l7.73-1c21.06-2.62,24.63-15.48,25.8-19.71l3.48-12.57a2.58,2.58,0,0,1,.41-.83,2.42,2.42,0,0,1,.08-.92l4.35-15.7c1.67-6.05,1.11-11.09-1.58-14.21-2.3-2.66-6.14-3.86-10.59-3.31-4.21.52-8.88,3.78-8.93,3.81a2.4,2.4,0,0,1-2.8,0,2.45,2.45,0,0,1-1-2.14Z"/><path class="cls-2" d="M300.77,226.62a2.44,2.44,0,0,1-2.35-3.08l12.92-46.61a2.45,2.45,0,0,1,1.85-1.74c.53-.1,1-.19,1.52-.25,3.76-.51,6.55.23,8.28,2.21,1.18,1.36,2.32,3.88,1.11,8.26l-8.41,30.35c-1.76,6.38-5.6,9.73-12.09,10.53l-2.53.32h-.3m14.84-46.89L304.1,221.29c3.75-.75,5.79-2.79,6.91-6.83l8.4-30.35c.48-1.74.45-3.14-.09-3.76s-1.92-.86-3.71-.62m-.58-2.38h0Z"/><path class="cls-2" d="M430.25,222.68a4.69,4.69,0,0,1-4.7-4.63A212.23,212.23,0,0,0,299.34,27.3c-86.5-38.16-188.78-13.87-248.75,59a4.7,4.7,0,0,1-7.26-6C106,4.21,212.81-21.16,303.13,18.7A221.63,221.63,0,0,1,435,217.91a4.71,4.71,0,0,1-4.64,4.77Z"/><path class="cls-2" d="M255.82,437.75a4.7,4.7,0,0,1-.91-9.3,214,214,0,0,0,40.68-12.4A210.71,210.71,0,0,0,407.52,306.26a4.69,4.69,0,1,1,8.59,3.79,220.05,220.05,0,0,1-116.9,114.67,223.73,223.73,0,0,1-42.47,12.95,4.77,4.77,0,0,1-.92.08"/><path class="cls-2" d="M133.63,426.5a4.52,4.52,0,0,1-1.89-.4,220.82,220.82,0,0,1-113-291.35,4.7,4.7,0,0,1,8.59,3.8,211.46,211.46,0,0,0,108.18,279,4.69,4.69,0,0,1-1.9,9"/></g></g></svg>