<?xml version="1.0" encoding="UTF-8"?>
<svg id="Capa_2" xmlns="http://www.w3.org/2000/svg" viewBox="0 0 809.98 276.41">
  <defs>
    <style>
      .cls-1 {
        fill: #5a5a5a;
      }

      .cls-2 {
        fill: #fff;
      }

      .cls-3 {
        fill: none;
        stroke: #5a5a5a;
        stroke-miterlimit: 10;
      }

      .cls-4 {
        fill: #595959;
      }

      .cls-5 {
        fill: #b4b4b4;
      }
    </style>
  </defs>
  <g id="Capa_1-2" data-name="Capa_1">
    <g>
      <path d="M.94.94h151.82v73.21H.94V.94Z" shape-rendering="crispEdges"/>
      <path d="M152.75.94h148.23v73.21h-148.23V.94Z" shape-rendering="crispEdges"/>
      <path d="M300.99.94h388.51v73.21h-388.51V.94Z" shape-rendering="crispEdges"/>
      <path d="M689.5.94h119.54v73.21h-119.54V.94Z" shape-rendering="crispEdges"/>
      <path class="cls-1" d="M.94,114.41h151.82v40.27H.94v-40.27Z" shape-rendering="crispEdges"/>
      <path class="cls-1" d="M152.75,114.41h148.23v40.27h-148.23v-40.27Z" shape-rendering="crispEdges"/>
      <path class="cls-1" d="M300.99,114.41h388.51v40.27h-388.51v-40.27Z" shape-rendering="crispEdges"/>
      <path class="cls-1" d="M689.5,114.41h119.54v40.27h-119.54v-40.27Z" shape-rendering="crispEdges"/>
      <path class="cls-4" d="M.94,194.94h151.82v40.27H.94v-40.27Z" shape-rendering="crispEdges"/>
      <path class="cls-4" d="M152.75,194.94h148.23v40.27h-148.23v-40.27Z" shape-rendering="crispEdges"/>
      <path class="cls-4" d="M300.99,194.94h388.51v40.27h-388.51v-40.27Z" shape-rendering="crispEdges"/>
      <path class="cls-4" d="M689.5,194.94h119.54v40.27h-119.54v-40.27Z" shape-rendering="crispEdges"/>
      <path class="cls-3" d="M.94,0v276.41"/>
      <path class="cls-3" d="M152.75,0v276.41"/>
      <path class="cls-3" d="M300.99,0v276.41"/>
      <path class="cls-3" d="M689.5,0v276.41"/>
      <path class="cls-3" d="M809.04,0v276.41"/>
      <path class="cls-3" d="M0,.94h809.98"/>
      <path class="cls-3" d="M0,74.14h809.98"/>
      <path class="cls-3" d="M0,114.41h809.98"/>
      <path class="cls-3" d="M0,154.67h809.98"/>
      <path class="cls-3" d="M0,194.94h809.98"/>
      <path class="cls-3" d="M0,235.21h809.98"/>
      <path class="cls-3" d="M0,275.47h809.98"/>
      <path class="cls-2" d="M64.66,62.9c-.9,0-1.71-.15-2.44-.44-.71-.29-1.27-.72-1.7-1.29-.43-.57-.66-1.25-.68-2.06h3.2c.04.45.2.79.47,1.03.27.24.63.35,1.06.35s.77-.1,1.03-.29c.27-.22.41-.5.41-.85,0-.31-.11-.57-.32-.76-.2-.2-.45-.35-.76-.47-.29-.14-.72-.28-1.26-.44-.78-.25-1.43-.5-1.94-.73-.51-.25-.95-.62-1.32-1.09-.35-.49-.53-1.12-.53-1.88,0-1.16.41-2.06,1.23-2.7.84-.65,1.93-.97,3.26-.97s2.44.32,3.26.97c.84.65,1.29,1.55,1.35,2.7h-3.23c-.04-.39-.2-.7-.47-.91-.25-.24-.59-.35-1-.35-.37,0-.68.1-.91.29-.22.18-.32.45-.32.82,0,.39.19.71.56.94.39.22.98.45,1.76.71.8.27,1.45.54,1.94.79.49.24.91.59,1.26,1.06.37.47.56,1.07.56,1.79s-.18,1.35-.53,1.94c-.35.57-.87,1.02-1.56,1.35-.67.33-1.46.5-2.38.5ZM72.48,51.97c-.53,0-.96-.15-1.29-.44-.33-.31-.5-.71-.5-1.18s.17-.85.5-1.15c.33-.31.76-.47,1.29-.47s.96.16,1.29.47c.33.29.5.68.5,1.15s-.17.86-.5,1.18c-.33.29-.76.44-1.29.44ZM73.98,53v9.79h-3v-9.79h3ZM78.98,60.32h4.23v2.47h-7.58v-2.38l4.06-4.94h-4.03v-2.47h7.46v2.38l-4.14,4.94ZM94.09,57.73c0,.27-.02.57-.06.88h-6.79c.06.61.25,1.08.59,1.41.35.31.77.47,1.26.47.76,0,1.29-.31,1.59-.94h3.17c-.16.63-.45,1.2-.88,1.73-.43.51-.97.91-1.62,1.2-.63.29-1.34.44-2.15.44-.96,0-1.81-.21-2.56-.62-.74-.41-1.33-1-1.76-1.76-.41-.76-.62-1.66-.62-2.67s.21-1.9.62-2.64c.41-.76.99-1.35,1.73-1.76.76-.41,1.63-.62,2.59-.62s1.78.21,2.53.62c.74.39,1.32.96,1.73,1.7.41.72.62,1.58.62,2.56ZM91.03,56.94c0-.51-.18-.91-.53-1.2-.35-.31-.79-.47-1.32-.47s-.94.15-1.29.44c-.33.29-.54.71-.62,1.23h3.76Z"/>
      <path class="cls-2" d="M192.48,32.16c0-1.21.25-2.3.76-3.26.53-.96,1.26-1.7,2.2-2.23.96-.53,2.03-.79,3.2-.79,1.47,0,2.72.39,3.76,1.18,1.04.76,1.73,1.81,2.09,3.14h-3.29c-.25-.51-.61-.9-1.06-1.18-.43-.27-.94-.41-1.53-.41-.92,0-1.67.32-2.23.97-.57.65-.85,1.51-.85,2.59s.28,1.94.85,2.59c.57.63,1.31.94,2.23.94.59,0,1.1-.13,1.53-.38.45-.27.8-.67,1.06-1.18h3.29c-.35,1.33-1.05,2.38-2.09,3.14-1.04.76-2.29,1.15-3.76,1.15-1.18,0-2.24-.26-3.2-.79-.94-.53-1.68-1.26-2.2-2.2-.51-.96-.76-2.05-.76-3.26ZM216.01,28.55v9.79h-3v-1.32c-.31.43-.73.78-1.26,1.06-.51.25-1.08.38-1.7.38-.74,0-1.41-.17-2-.5-.57-.33-1.01-.81-1.32-1.44-.31-.65-.47-1.4-.47-2.26v-5.7h3v5.32c0,.65.17,1.16.5,1.53.33.35.78.53,1.35.53s1.05-.18,1.38-.53c.35-.37.53-.88.53-1.53v-5.32h3ZM221.17,30.16c.35-.53.79-.95,1.32-1.26s1.12-.47,1.76-.47v3.17h-.82c-.76,0-1.33.17-1.7.5-.37.31-.56.87-.56,1.68v4.55h-3v-9.79h3v1.62ZM228.67,30.16c.35-.53.79-.95,1.32-1.26s1.12-.47,1.76-.47v3.17h-.82c-.76,0-1.33.17-1.7.5-.37.31-.56.87-.56,1.68v4.55h-3v-9.79h3v1.62ZM242.41,33.28c0,.27-.02.57-.06.88h-6.79c.06.61.25,1.08.59,1.41.35.31.77.47,1.26.47.76,0,1.29-.31,1.59-.94h3.17c-.16.63-.45,1.2-.88,1.73-.43.51-.97.91-1.62,1.2-.63.29-1.34.44-2.15.44-.96,0-1.81-.21-2.56-.62s-1.33-1-1.76-1.76c-.41-.76-.62-1.66-.62-2.67s.21-1.9.62-2.64c.41-.76.99-1.35,1.73-1.76.76-.41,1.63-.62,2.59-.62s1.78.21,2.53.62c.74.39,1.32.96,1.73,1.7.41.72.62,1.58.62,2.56ZM239.36,32.49c0-.51-.18-.91-.53-1.2-.35-.31-.79-.47-1.32-.47s-.94.15-1.29.44c-.33.29-.54.71-.62,1.23h3.76ZM249.96,28.43c1.16,0,2.07.37,2.73,1.12.69.74,1.03,1.76,1.03,3.06v5.73h-2.97v-5.32c0-.65-.18-1.15-.53-1.5-.33-.37-.78-.56-1.35-.56s-1.03.19-1.38.56c-.33.35-.5.85-.5,1.5v5.32h-3v-9.79h3v1.29c.31-.43.72-.77,1.23-1.03.51-.25,1.09-.38,1.73-.38ZM261.28,35.78v2.56h-1.53c-1.1,0-1.95-.26-2.56-.79-.61-.53-.91-1.4-.91-2.62v-3.88h-1.18v-2.5h1.18v-2.38h3v2.38h1.97v2.5h-1.97v3.91c0,.29.07.51.21.65.16.12.39.18.71.18h1.09Z"/>
      <path class="cls-2" d="M212.27,50.47l-3.23,12.31h-3.61l-1.97-8.11-2.03,8.11h-3.64l-3.11-12.31h3.2l1.76,8.96,2.2-8.96h3.29l2.12,8.96,1.79-8.96h3.23ZM222.99,57.73c0,.27-.02.57-.06.88h-6.79c.06.61.25,1.08.59,1.41.35.31.77.47,1.26.47.76,0,1.29-.31,1.59-.94h3.17c-.16.63-.45,1.2-.88,1.73-.43.51-.97.91-1.62,1.2-.63.29-1.34.44-2.15.44-.96,0-1.81-.21-2.56-.62-.74-.41-1.33-1-1.76-1.76-.41-.76-.62-1.66-.62-2.67s.21-1.9.62-2.64c.41-.76.99-1.35,1.73-1.76.76-.41,1.63-.62,2.59-.62s1.78.21,2.53.62c.74.39,1.32.96,1.73,1.7.41.72.62,1.58.62,2.56ZM219.94,56.94c0-.51-.18-.91-.53-1.2-.35-.31-.79-.47-1.32-.47s-.94.15-1.29.44c-.33.29-.54.71-.62,1.23h3.76ZM226.07,51.97c-.53,0-.96-.15-1.29-.44-.33-.31-.5-.71-.5-1.18s.17-.85.5-1.15c.33-.31.76-.47,1.29-.47s.96.16,1.29.47c.33.29.5.68.5,1.15s-.17.86-.5,1.18c-.33.29-.76.44-1.29.44ZM227.57,53v9.79h-3v-9.79h3ZM233.48,52.85c.69,0,1.28.15,1.79.44.53.27.93.64,1.2,1.09v-1.38h3v9.76c0,.9-.18,1.71-.53,2.44-.35.74-.9,1.33-1.65,1.76-.72.43-1.63.65-2.7.65-1.45,0-2.63-.34-3.53-1.03-.9-.69-1.42-1.61-1.56-2.76h2.97c.1.37.32.67.68.88s.78.32,1.29.32c.63,0,1.12-.19,1.47-.56.37-.35.56-.92.56-1.7v-1.38c-.29.47-.7.85-1.2,1.15-.51.27-1.11.41-1.79.41-.82,0-1.56-.21-2.2-.62-.65-.43-1.17-1.03-1.56-1.79-.37-.76-.56-1.65-.56-2.64s.19-1.9.56-2.64c.39-.76.91-1.35,1.56-1.76s1.38-.62,2.2-.62ZM236.48,57.88c0-.74-.21-1.33-.62-1.76s-.92-.65-1.53-.65-1.09.22-1.5.65-.62,1.02-.62,1.76.21,1.34.62,1.79c.41.43.91.65,1.5.65s1.12-.22,1.53-.65.62-1.03.62-1.79ZM247.68,52.88c1.12,0,2.01.37,2.67,1.12.69.74,1.03,1.76,1.03,3.06v5.73h-2.97v-5.32c0-.65-.18-1.15-.53-1.5-.33-.37-.78-.56-1.35-.56s-1.03.19-1.38.56c-.33.35-.5.85-.5,1.5v5.32h-3v-12.99h3v4.53c.31-.43.72-.77,1.23-1.03.53-.27,1.13-.41,1.79-.41ZM258.95,60.23v2.56h-1.53c-1.1,0-1.95-.26-2.56-.79-.61-.53-.91-1.4-.91-2.62v-3.88h-1.18v-2.5h1.18v-2.38h3v2.38h1.97v2.5h-1.97v3.91c0,.29.07.51.21.65.16.12.39.18.71.18h1.09Z"/>
      <path class="cls-2" d="M379.39,54.44c0,.71-.17,1.36-.5,1.97-.31.59-.81,1.07-1.5,1.44-.67.35-1.51.53-2.53.53h-1.85v4.41h-3v-12.31h4.85c1,0,1.83.18,2.5.53.69.33,1.2.79,1.53,1.38.33.59.5,1.27.5,2.06ZM374.66,55.97c.57,0,.99-.13,1.26-.38.29-.27.44-.66.44-1.15s-.15-.87-.44-1.15c-.27-.27-.7-.41-1.26-.41h-1.65v3.09h1.65ZM385.43,62.93c-.96,0-1.83-.21-2.62-.62-.76-.41-1.36-1-1.79-1.76s-.65-1.66-.65-2.67.22-1.88.65-2.64c.45-.76,1.06-1.35,1.82-1.76.78-.41,1.66-.62,2.62-.62s1.82.21,2.59.62c.78.41,1.39,1,1.82,1.76.45.76.68,1.65.68,2.64s-.23,1.91-.68,2.67-1.07,1.35-1.85,1.76c-.76.41-1.63.62-2.59.62ZM385.43,60.32c.57,0,1.05-.21,1.44-.62.41-.43.62-1.04.62-1.82s-.2-1.38-.59-1.79c-.39-.43-.87-.65-1.44-.65s-1.08.22-1.47.65c-.37.41-.56,1.01-.56,1.79s.19,1.39.56,1.82c.37.41.85.62,1.44.62ZM406.19,53l-2.64,9.79h-3.32l-1.53-6.35-1.62,6.35h-3.29l-2.67-9.79h3l1.41,6.99,1.65-6.99h3.17l1.68,6.96,1.35-6.96h2.82ZM416.56,57.73c0,.27-.02.57-.06.88h-6.79c.06.61.25,1.08.59,1.41.35.31.77.47,1.26.47.76,0,1.29-.31,1.59-.94h3.17c-.16.63-.45,1.2-.88,1.73-.43.51-.97.91-1.62,1.2-.63.29-1.34.44-2.15.44-.96,0-1.81-.21-2.56-.62-.74-.41-1.33-1-1.76-1.76-.41-.76-.62-1.66-.62-2.67s.21-1.9.62-2.64c.41-.76.99-1.35,1.73-1.76.76-.41,1.63-.62,2.59-.62s1.78.21,2.53.62c.74.39,1.32.96,1.73,1.7.41.72.62,1.58.62,2.56ZM413.5,56.94c0-.51-.18-.91-.53-1.2-.35-.31-.79-.47-1.32-.47s-.94.15-1.29.44c-.33.29-.54.71-.62,1.23h3.76ZM421.14,54.61c.35-.53.79-.95,1.32-1.26s1.12-.47,1.76-.47v3.17h-.82c-.76,0-1.33.17-1.7.5-.37.31-.56.87-.56,1.68v4.55h-3v-9.79h3v1.62ZM435.02,54.44c0,.71-.17,1.36-.5,1.97-.31.59-.81,1.07-1.5,1.44-.67.35-1.51.53-2.53.53h-1.85v4.41h-3v-12.31h4.85c1,0,1.83.18,2.5.53.69.33,1.19.79,1.53,1.38.33.59.5,1.27.5,2.06ZM430.29,55.97c.57,0,.99-.13,1.26-.38.29-.27.44-.66.44-1.15s-.15-.87-.44-1.15c-.27-.27-.7-.41-1.26-.41h-1.65v3.09h1.65ZM441.06,62.93c-.96,0-1.83-.21-2.62-.62-.76-.41-1.36-1-1.79-1.76-.43-.76-.65-1.66-.65-2.67s.22-1.88.65-2.64c.45-.76,1.06-1.35,1.82-1.76.78-.41,1.66-.62,2.62-.62s1.82.21,2.59.62c.78.41,1.39,1,1.82,1.76.45.76.68,1.65.68,2.64s-.23,1.91-.68,2.67c-.45.76-1.07,1.35-1.85,1.76-.76.41-1.63.62-2.59.62ZM441.06,60.32c.57,0,1.05-.21,1.44-.62.41-.43.62-1.04.62-1.82s-.2-1.38-.59-1.79c-.39-.43-.87-.65-1.44-.65s-1.08.22-1.47.65c-.37.41-.56,1.01-.56,1.79s.19,1.39.56,1.82c.37.41.85.62,1.44.62ZM451.77,62.93c-.86,0-1.63-.15-2.29-.44-.67-.29-1.19-.7-1.59-1.2-.39-.51-.61-1.08-.65-1.7h2.97c.04.33.2.61.47.82.27.22.62.32,1.03.32.37,0,.66-.07.85-.21.22-.16.32-.35.32-.59,0-.29-.15-.5-.44-.62-.29-.14-.76-.29-1.41-.47-.71-.16-1.29-.32-1.76-.5-.47-.2-.87-.49-1.2-.88-.33-.39-.5-.92-.5-1.59,0-.55.15-1.05.44-1.5.31-.47.77-.84,1.38-1.12.61-.27,1.32-.41,2.15-.41,1.23,0,2.2.3,2.91.91s1.12,1.42,1.23,2.44h-2.79c-.04-.35-.19-.63-.44-.82-.25-.2-.59-.29-1-.29-.35,0-.63.07-.82.21-.18.14-.26.32-.26.56,0,.27.15.48.44.62.31.14.78.27,1.41.41.72.2,1.31.38,1.76.56.47.18.87.47,1.2.88.35.41.53.95.53,1.62,0,.59-.16,1.11-.47,1.56-.31.45-.77.8-1.38,1.06-.61.25-1.3.38-2.09.38ZM463.03,60.23v2.56h-1.53c-1.1,0-1.95-.26-2.56-.79-.61-.53-.91-1.4-.91-2.62v-3.88h-1.18v-2.5h1.18v-2.38h3v2.38h1.97v2.5h-1.97v3.91c0,.29.07.51.21.65.16.12.39.18.71.18h1.09ZM477.78,54.44c0,.71-.17,1.36-.5,1.97-.31.59-.81,1.07-1.5,1.44-.67.35-1.51.53-2.53.53h-1.85v4.41h-3v-12.31h4.85c1,0,1.83.18,2.5.53.69.33,1.19.79,1.53,1.38.33.59.5,1.27.5,2.06ZM473.04,55.97c.57,0,.99-.13,1.26-.38.29-.27.44-.66.44-1.15s-.15-.87-.44-1.15c-.27-.27-.7-.41-1.26-.41h-1.65v3.09h1.65ZM482.35,54.61c.35-.53.79-.95,1.32-1.26.53-.31,1.12-.47,1.76-.47v3.17h-.82c-.76,0-1.33.17-1.7.5-.37.31-.56.87-.56,1.68v4.55h-3v-9.79h3v1.62ZM491.32,62.93c-.96,0-1.83-.21-2.62-.62-.76-.41-1.36-1-1.79-1.76-.43-.76-.65-1.66-.65-2.67,0-1,.22-1.88.65-2.64.45-.76,1.06-1.35,1.82-1.76.78-.41,1.66-.62,2.62-.62s1.82.21,2.59.62c.78.41,1.39,1,1.82,1.76.45.76.68,1.65.68,2.64,0,1.02-.23,1.91-.68,2.67-.45.76-1.07,1.35-1.85,1.76-.76.41-1.63.62-2.59.62ZM491.32,60.32c.57,0,1.05-.21,1.44-.62.41-.43.62-1.04.62-1.82,0-.78-.2-1.38-.59-1.79-.39-.43-.87-.65-1.44-.65s-1.08.22-1.47.65c-.37.41-.56,1.01-.56,1.79,0,.78.19,1.39.56,1.82.37.41.85.62,1.44.62ZM501.03,54.38c.29-.45.7-.81,1.2-1.09.53-.29,1.14-.44,1.82-.44.8,0,1.53.21,2.17.62.67.41,1.19,1,1.56,1.76.39.74.59,1.63.59,2.64s-.2,1.88-.59,2.64c-.37.76-.89,1.36-1.56,1.79-.65.41-1.37.62-2.17.62-.69,0-1.29-.14-1.82-.41-.51-.29-.91-.67-1.2-1.12v6.05h-3v-14.46h3v1.38ZM505.32,57.88c0-.74-.22-1.33-.65-1.76-.41-.43-.92-.65-1.53-.65s-1.09.22-1.5.65-.62,1.02-.62,1.76.21,1.36.62,1.79.91.65,1.5.65,1.12-.22,1.53-.65c.43-.45.65-1.05.65-1.79ZM514.41,62.93c-.96,0-1.83-.21-2.62-.62-.76-.41-1.36-1-1.79-1.76-.43-.76-.65-1.66-.65-2.67s.22-1.88.65-2.64c.45-.76,1.06-1.35,1.82-1.76.78-.41,1.66-.62,2.62-.62s1.82.21,2.59.62c.78.41,1.39,1,1.82,1.76.45.76.68,1.65.68,2.64s-.23,1.91-.68,2.67c-.45.76-1.07,1.35-1.85,1.76-.76.41-1.63.62-2.59.62ZM514.41,60.32c.57,0,1.05-.21,1.44-.62.41-.43.62-1.04.62-1.82s-.2-1.38-.59-1.79c-.39-.43-.87-.65-1.44-.65s-1.08.22-1.47.65c-.37.41-.56,1.01-.56,1.79s.19,1.39.56,1.82c.37.41.85.62,1.44.62ZM525.12,62.93c-.86,0-1.63-.15-2.29-.44-.67-.29-1.2-.7-1.59-1.2-.39-.51-.61-1.08-.65-1.7h2.97c.04.33.2.61.47.82.27.22.62.32,1.03.32.37,0,.66-.07.85-.21.22-.16.32-.35.32-.59,0-.29-.15-.5-.44-.62-.29-.14-.76-.29-1.41-.47-.71-.16-1.29-.32-1.76-.5-.47-.2-.87-.49-1.2-.88-.33-.39-.5-.92-.5-1.59,0-.55.15-1.05.44-1.5.31-.47.77-.84,1.38-1.12.61-.27,1.32-.41,2.15-.41,1.23,0,2.2.3,2.91.91s1.12,1.42,1.23,2.44h-2.79c-.04-.35-.19-.63-.44-.82-.25-.2-.59-.29-1-.29-.35,0-.63.07-.82.21-.18.14-.26.32-.26.56,0,.27.15.48.44.62.31.14.78.27,1.41.41.72.2,1.31.38,1.76.56.47.18.87.47,1.2.88.35.41.53.95.53,1.62,0,.59-.16,1.11-.47,1.56-.31.45-.77.8-1.38,1.06-.61.25-1.3.38-2.09.38ZM540.14,57.73c0,.27-.02.57-.06.88h-6.79c.06.61.25,1.08.59,1.41.35.31.77.47,1.26.47.76,0,1.29-.31,1.59-.94h3.17c-.16.63-.45,1.2-.88,1.73-.43.51-.97.91-1.62,1.2-.63.29-1.34.44-2.15.44-.96,0-1.81-.21-2.56-.62s-1.33-1-1.76-1.76c-.41-.76-.62-1.66-.62-2.67s.21-1.9.62-2.64c.41-.76.99-1.35,1.73-1.76.76-.41,1.63-.62,2.59-.62s1.78.21,2.53.62c.74.39,1.32.96,1.73,1.7.41.72.62,1.58.62,2.56ZM537.08,56.94c0-.51-.18-.91-.53-1.2-.35-.31-.79-.47-1.32-.47s-.94.15-1.29.44c-.33.29-.54.71-.62,1.23h3.76ZM541.13,57.88c0-1.02.19-1.9.56-2.64.39-.76.91-1.35,1.56-1.76s1.38-.62,2.2-.62c.63,0,1.2.14,1.73.41.55.27.97.64,1.26,1.09v-4.55h3v12.99h-3v-1.41c-.27.47-.68.85-1.2,1.15-.51.27-1.11.41-1.79.41-.82,0-1.56-.21-2.2-.62-.65-.43-1.17-1.03-1.56-1.79-.37-.76-.56-1.65-.56-2.64ZM548.45,57.88c0-.74-.21-1.33-.62-1.76s-.92-.65-1.53-.65-1.09.22-1.5.65-.62,1.02-.62,1.76.21,1.34.62,1.79c.41.43.91.65,1.5.65s1.12-.22,1.53-.65.62-1.03.62-1.79ZM574.3,50.47l-3.23,12.31h-3.61l-1.97-8.11-2.03,8.11h-3.64l-3.11-12.31h3.2l1.76,8.96,2.2-8.96h3.29l2.12,8.96,1.79-8.96h3.23ZM585.03,57.73c0,.27-.02.57-.06.88h-6.79c.06.61.25,1.08.59,1.41.35.31.77.47,1.26.47.76,0,1.29-.31,1.59-.94h3.17c-.16.63-.45,1.2-.88,1.73-.43.51-.97.91-1.62,1.2-.63.29-1.34.44-2.15.44-.96,0-1.81-.21-2.56-.62-.74-.41-1.33-1-1.76-1.76-.41-.76-.62-1.66-.62-2.67s.21-1.9.62-2.64c.41-.76.99-1.35,1.73-1.76.76-.41,1.63-.62,2.59-.62s1.78.21,2.53.62c.74.39,1.32.96,1.73,1.7.41.72.62,1.58.62,2.56ZM581.98,56.94c0-.51-.18-.91-.53-1.2-.35-.31-.79-.47-1.32-.47s-.94.15-1.29.44c-.33.29-.54.71-.62,1.23h3.76ZM588.11,51.97c-.53,0-.96-.15-1.29-.44-.33-.31-.5-.71-.5-1.18,0-.47.17-.85.5-1.15.33-.31.76-.47,1.29-.47s.96.16,1.29.47c.33.29.5.68.5,1.15,0,.47-.17.86-.5,1.18-.33.29-.76.44-1.29.44ZM589.61,53v9.79h-3v-9.79h3ZM595.52,52.85c.69,0,1.28.15,1.79.44.53.27.93.64,1.2,1.09v-1.38h3v9.76c0,.9-.18,1.71-.53,2.44-.35.74-.9,1.33-1.65,1.76-.72.43-1.63.65-2.7.65-1.45,0-2.63-.34-3.53-1.03-.9-.69-1.42-1.61-1.56-2.76h2.97c.1.37.32.67.68.88s.78.32,1.29.32c.63,0,1.12-.19,1.47-.56.37-.35.56-.92.56-1.7v-1.38c-.29.47-.7.85-1.2,1.15-.51.27-1.11.41-1.79.41-.82,0-1.56-.21-2.2-.62-.65-.43-1.17-1.03-1.56-1.79-.37-.76-.56-1.65-.56-2.64s.19-1.9.56-2.64c.39-.76.91-1.35,1.56-1.76s1.38-.62,2.2-.62ZM598.52,57.88c0-.74-.21-1.33-.62-1.76s-.92-.65-1.53-.65-1.09.22-1.5.65-.62,1.02-.62,1.76.21,1.34.62,1.79c.41.43.91.65,1.5.65s1.12-.22,1.53-.65.62-1.03.62-1.79ZM609.72,52.88c1.12,0,2.01.37,2.67,1.12.69.74,1.03,1.76,1.03,3.06v5.73h-2.97v-5.32c0-.65-.18-1.15-.53-1.5-.33-.37-.78-.56-1.35-.56s-1.03.19-1.38.56c-.33.35-.5.85-.5,1.5v5.32h-3v-12.99h3v4.53c.31-.43.72-.77,1.23-1.03.53-.27,1.13-.41,1.79-.41ZM620.99,60.23v2.56h-1.53c-1.1,0-1.95-.26-2.56-.79-.61-.53-.91-1.4-.91-2.62v-3.88h-1.18v-2.5h1.18v-2.38h3v2.38h1.97v2.5h-1.97v3.91c0,.29.07.51.21.65.16.12.39.18.71.18h1.09Z"/>
      <path class="cls-2" d="M710.7,62.78l-2.56-4.64h-.73v4.64h-3v-12.31h5.03c.98,0,1.81.18,2.5.53.69.33,1.19.79,1.53,1.38.33.59.5,1.24.5,1.97,0,.82-.24,1.56-.71,2.2-.45.63-1.13,1.08-2.03,1.35l2.85,4.88h-3.38ZM707.41,56.02h1.85c.55,0,.96-.14,1.23-.41.29-.27.44-.66.44-1.15s-.15-.83-.44-1.09c-.27-.27-.69-.41-1.23-.41h-1.85v3.06ZM725.08,57.73c0,.27-.02.57-.06.88h-6.79c.06.61.25,1.08.59,1.41.35.31.77.47,1.26.47.76,0,1.29-.31,1.59-.94h3.17c-.16.63-.45,1.2-.88,1.73-.43.51-.97.91-1.62,1.2-.63.29-1.34.44-2.15.44-.96,0-1.81-.21-2.56-.62-.74-.41-1.33-1-1.76-1.76-.41-.76-.62-1.66-.62-2.67s.21-1.9.62-2.64c.41-.76.99-1.35,1.73-1.76.76-.41,1.63-.62,2.59-.62s1.78.21,2.53.62c.74.39,1.32.96,1.73,1.7.41.72.62,1.58.62,2.56ZM722.02,56.94c0-.51-.18-.91-.53-1.2-.35-.31-.79-.47-1.32-.47s-.94.15-1.29.44c-.33.29-.54.71-.62,1.23h3.76ZM726.07,57.88c0-1.02.19-1.9.56-2.64.39-.76.91-1.35,1.56-1.76.65-.41,1.38-.62,2.2-.62.63,0,1.2.14,1.73.41.55.27.97.64,1.26,1.09v-4.55h3v12.99h-3v-1.41c-.27.47-.68.85-1.2,1.15-.51.27-1.11.41-1.79.41-.82,0-1.56-.21-2.2-.62-.65-.43-1.17-1.03-1.56-1.79-.37-.76-.56-1.65-.56-2.64ZM733.39,57.88c0-.74-.21-1.33-.62-1.76-.41-.43-.92-.65-1.53-.65s-1.09.22-1.5.65c-.41.43-.62,1.02-.62,1.76,0,.74.21,1.34.62,1.79.41.43.91.65,1.5.65s1.12-.22,1.53-.65c.41-.43.62-1.03.62-1.79ZM748.24,53v9.79h-3v-1.32c-.31.43-.73.78-1.26,1.06-.51.25-1.08.38-1.7.38-.74,0-1.41-.17-2-.5-.57-.33-1.01-.81-1.32-1.44-.31-.65-.47-1.4-.47-2.26v-5.7h3v5.32c0,.65.17,1.16.5,1.53.33.35.78.53,1.35.53s1.05-.18,1.38-.53c.35-.37.53-.88.53-1.53v-5.32h3ZM749.81,57.88c0-1.02.21-1.9.62-2.64.41-.76.99-1.35,1.73-1.76.74-.41,1.6-.62,2.56-.62,1.23,0,2.26.32,3.09.97s1.36,1.55,1.62,2.7h-3.2c-.27-.74-.79-1.12-1.56-1.12-.55,0-.99.22-1.32.65-.31.43-.47,1.04-.47,1.82s.16,1.42.47,1.85c.33.43.77.65,1.32.65.76,0,1.28-.38,1.56-1.15h3.2c-.25,1.16-.8,2.07-1.65,2.73-.82.65-1.84.97-3.06.97-.96,0-1.81-.21-2.56-.62-.74-.41-1.32-1-1.73-1.76s-.62-1.66-.62-2.67ZM766.47,60.23v2.56h-1.53c-1.1,0-1.95-.26-2.56-.79-.61-.53-.91-1.4-.91-2.62v-3.88h-1.18v-2.5h1.18v-2.38h3v2.38h1.97v2.5h-1.97v3.91c0,.29.07.51.21.65.16.12.39.18.71.18h1.09ZM769.63,51.97c-.53,0-.96-.15-1.29-.44-.33-.31-.5-.71-.5-1.18s.17-.85.5-1.15c.33-.31.76-.47,1.29-.47s.96.16,1.29.47c.33.29.5.68.5,1.15s-.17.86-.5,1.18c-.33.29-.76.44-1.29.44ZM771.13,53v9.79h-3v-9.79h3ZM777.77,62.93c-.96,0-1.83-.21-2.62-.62-.76-.41-1.36-1-1.79-1.76-.43-.76-.65-1.66-.65-2.67,0-1,.22-1.88.65-2.64.45-.76,1.06-1.35,1.82-1.76.78-.41,1.66-.62,2.62-.62s1.82.21,2.59.62c.78.41,1.39,1,1.82,1.76.45.76.68,1.65.68,2.64,0,1.02-.23,1.91-.68,2.67-.45.76-1.07,1.35-1.85,1.76-.76.41-1.63.62-2.59.62ZM777.77,60.32c.57,0,1.05-.21,1.44-.62.41-.43.62-1.04.62-1.82,0-.78-.2-1.38-.59-1.79-.39-.43-.87-.65-1.44-.65s-1.08.22-1.47.65c-.37.41-.56,1.01-.56,1.79,0,.78.19,1.39.56,1.82.37.41.85.62,1.44.62ZM790.45,52.88c1.16,0,2.07.37,2.73,1.12.69.74,1.03,1.76,1.03,3.06v5.73h-2.97v-5.32c0-.65-.18-1.15-.53-1.5-.33-.37-.78-.56-1.35-.56s-1.03.19-1.38.56c-.33.35-.5.85-.5,1.5v5.32h-3v-9.79h3v1.29c.31-.43.72-.77,1.23-1.03s1.09-.38,1.73-.38Z"/>
      <path class="cls-5" d="M63.43,94.76v-1.23h2.85v10.87h-1.38v-9.64h-1.47ZM69.28,104.49c-.25,0-.47-.09-.65-.26s-.26-.4-.26-.68c0-.25.09-.47.26-.65s.39-.26.65-.26.47.09.65.26.26.39.26.65c0,.27-.09.5-.26.68s-.39.26-.65.26ZM71.79,98.85c0-1.72.27-3.07.82-4.03.57-.98,1.56-1.47,2.97-1.47s2.36.49,2.91,1.47c.57.96.85,2.3.85,4.03s-.28,3.13-.85,4.11c-.55.96-1.52,1.44-2.91,1.44s-2.4-.48-2.97-1.44c-.55-.98-.82-2.35-.82-4.11ZM77.99,98.85c0-.86-.06-1.6-.18-2.2s-.35-1.1-.71-1.47-.86-.56-1.53-.56-1.2.19-1.56.56-.59.86-.71,1.47-.18,1.34-.18,2.2.06,1.67.18,2.29c.12.61.35,1.1.71,1.47s.87.56,1.56.56,1.18-.19,1.53-.56.59-.86.71-1.47c.12-.63.18-1.39.18-2.29ZM86.84,103.29h3.67v1.12h-5.05v-10.49h1.38v9.37Z"/>
      <path class="cls-5" d="M205.22,96.26c.06-.92.41-1.64,1.06-2.15.65-.53,1.48-.79,2.5-.79.69,0,1.27.13,1.76.38.51.24.89.57,1.15,1,.25.41.38.88.38,1.41,0,.63-.19,1.17-.56,1.62-.35.45-.81.73-1.38.85v.09c.65.16,1.16.47,1.53.94.39.47.59,1.09.59,1.85,0,.57-.13,1.09-.38,1.56-.25.45-.65.81-1.18,1.09-.53.25-1.16.38-1.88.38-1.06,0-1.93-.27-2.62-.82-.69-.57-1.07-1.36-1.15-2.38h1.32c.08.59.32,1.08.73,1.47.43.37,1,.56,1.7.56s1.21-.18,1.59-.53c.37-.37.56-.85.56-1.44,0-.74-.25-1.28-.76-1.62-.49-.33-1.24-.5-2.26-.5h-.35v-1.15h.35c.92-.02,1.62-.18,2.09-.47.49-.29.73-.75.73-1.38,0-.53-.18-.95-.53-1.26s-.84-.47-1.47-.47-1.14.16-1.53.47c-.37.31-.6.74-.68,1.29h-1.32ZM213.76,101.99v-1.06l5.29-7.32h1.65v7.17h1.5v1.2h-1.5v2.41h-1.35v-2.41h-5.58ZM219.4,95.06l-4.06,5.73h4.06v-5.73ZM224.22,104.49c-.25,0-.47-.09-.65-.26s-.26-.4-.26-.68c0-.25.09-.47.26-.65s.39-.26.65-.26.47.09.65.26.26.39.26.65c0,.27-.09.5-.26.68s-.39.26-.65.26ZM233.67,94.71h-5.29v3.44c.24-.31.58-.57,1.03-.76.45-.22.94-.32,1.47-.32.82,0,1.49.18,2,.53.53.33.9.77,1.12,1.32.24.55.35,1.13.35,1.73,0,.72-.14,1.37-.41,1.94-.25.57-.67,1.02-1.23,1.35-.55.33-1.23.5-2.06.5-1.06,0-1.91-.26-2.56-.79-.65-.55-1.05-1.27-1.2-2.17h1.35c.14.57.41,1.02.82,1.35.43.31.96.47,1.59.47.8,0,1.4-.24,1.79-.71.41-.49.62-1.13.62-1.91s-.21-1.38-.62-1.79c-.39-.43-.98-.65-1.76-.65-.53,0-1,.13-1.41.38-.39.25-.68.6-.85,1.03h-1.29v-6.14h6.55v1.2ZM243.82,96.03c.71,0,1.32.16,1.85.47.55.31.96.71,1.23,1.18v-1.53h1.38v8.43c0,.76-.17,1.43-.5,2-.31.59-.77,1.05-1.38,1.38-.59.33-1.27.5-2.06.5-1.1,0-2.01-.25-2.73-.76-.71-.51-1.13-1.2-1.26-2.09h1.35c.16.51.47.91.94,1.2.47.31,1.04.47,1.7.47.74,0,1.35-.24,1.82-.71.49-.47.73-1.14.73-2v-1.73c-.27.49-.69.9-1.23,1.23-.53.31-1.15.47-1.85.47s-1.39-.18-2-.53c-.59-.37-1.06-.88-1.41-1.53-.33-.67-.5-1.41-.5-2.23s.17-1.58.5-2.2c.35-.65.82-1.15,1.41-1.5.61-.35,1.27-.53,2-.53ZM246.9,100.26c0-.63-.13-1.17-.38-1.62-.25-.47-.6-.82-1.03-1.06-.43-.25-.9-.38-1.41-.38s-.98.13-1.41.38c-.41.24-.74.59-1,1.06-.24.45-.35.99-.35,1.62s.12,1.18.35,1.65c.25.47.59.83,1,1.09.43.24.9.35,1.41.35s.98-.12,1.41-.35c.43-.25.77-.62,1.03-1.09.25-.47.38-1.02.38-1.65Z"/>
      <path class="cls-5" d="M473.53,103.32c1.27-1.04,2.27-1.88,3-2.53.72-.67,1.33-1.35,1.82-2.06.51-.72.76-1.43.76-2.12,0-.65-.17-1.16-.5-1.53-.31-.39-.82-.59-1.53-.59-.67,0-1.19.22-1.59.65-.37.43-.57,1-.59,1.7h-1.32c.04-1.12.37-1.98,1-2.59.65-.63,1.48-.94,2.5-.94s1.86.29,2.47.88c.61.57.91,1.35.91,2.35,0,.82-.25,1.64-.76,2.44-.49.78-1.06,1.48-1.7,2.09-.63.59-1.43,1.27-2.41,2.06h5.17v1.15h-7.23v-.97ZM484.12,101.49c.1.57.32,1.01.68,1.32.37.31.87.47,1.5.47.82,0,1.43-.32,1.82-.97.41-.67.61-1.77.59-3.32-.22.45-.57.8-1.06,1.06-.49.25-1.04.38-1.65.38-.67,0-1.26-.14-1.79-.41-.53-.27-.95-.68-1.26-1.2-.29-.53-.44-1.17-.44-1.91,0-1.08.31-1.94.94-2.59.63-.67,1.51-1,2.64-1,1.41,0,2.4.46,2.97,1.38.57.9.85,2.25.85,4.06,0,1.27-.12,2.32-.35,3.14-.22.8-.6,1.43-1.15,1.88-.53.43-1.26.65-2.2.65-1.02,0-1.81-.27-2.38-.82-.57-.57-.89-1.27-.97-2.12h1.26ZM486.24,99.29c.67,0,1.21-.21,1.65-.62.43-.43.65-1,.65-1.7,0-.74-.22-1.34-.65-1.79-.41-.47-1-.71-1.76-.71-.71,0-1.26.23-1.68.68-.41.43-.62,1-.62,1.7,0,.74.21,1.34.62,1.79.41.43,1.01.65,1.79.65ZM492.48,104.49c-.25,0-.47-.09-.65-.26s-.26-.4-.26-.68c0-.25.09-.47.26-.65s.39-.26.65-.26.47.09.65.26.26.39.26.65c0,.27-.09.5-.26.68s-.39.26-.65.26ZM496.76,101.49c.1.57.32,1.01.68,1.32.37.31.87.47,1.5.47.82,0,1.43-.32,1.82-.97.41-.67.61-1.77.59-3.32-.22.45-.57.8-1.06,1.06-.49.25-1.04.38-1.65.38-.67,0-1.26-.14-1.79-.41s-.95-.68-1.26-1.2c-.29-.53-.44-1.17-.44-1.91,0-1.08.31-1.94.94-2.59.63-.67,1.51-1,2.64-1,1.41,0,2.4.46,2.97,1.38.57.9.85,2.25.85,4.06,0,1.27-.12,2.32-.35,3.14-.22.8-.6,1.43-1.15,1.88-.53.43-1.26.65-2.2.65-1.02,0-1.81-.27-2.38-.82-.57-.57-.89-1.27-.97-2.12h1.26ZM498.87,99.29c.67,0,1.21-.21,1.65-.62.43-.43.65-1,.65-1.7,0-.74-.22-1.34-.65-1.79-.41-.47-1-.71-1.76-.71-.71,0-1.26.23-1.68.68-.41.43-.62,1-.62,1.7,0,.74.21,1.34.62,1.79.41.43,1.01.65,1.79.65ZM512.11,96.03c.71,0,1.32.16,1.85.47.55.31.96.71,1.23,1.18v-1.53h1.38v8.43c0,.76-.17,1.43-.5,2-.31.59-.77,1.05-1.38,1.38-.59.33-1.27.5-2.06.5-1.1,0-2.01-.25-2.73-.76-.71-.51-1.13-1.2-1.26-2.09h1.35c.16.51.47.91.94,1.2.47.31,1.04.47,1.7.47.74,0,1.35-.24,1.82-.71.49-.47.73-1.14.73-2v-1.73c-.27.49-.69.9-1.23,1.23-.53.31-1.15.47-1.85.47s-1.39-.18-2-.53c-.59-.37-1.06-.88-1.41-1.53-.33-.67-.5-1.41-.5-2.23s.17-1.58.5-2.2c.35-.65.82-1.15,1.41-1.5.61-.35,1.27-.53,2-.53ZM515.19,100.26c0-.63-.13-1.17-.38-1.62-.25-.47-.6-.82-1.03-1.06-.43-.25-.9-.38-1.41-.38s-.98.13-1.41.38c-.41.24-.74.59-1,1.06-.24.45-.35.99-.35,1.62s.12,1.18.35,1.65c.25.47.59.83,1,1.09.43.24.9.35,1.41.35s.98-.12,1.41-.35c.43-.25.77-.62,1.03-1.09.25-.47.38-1.02.38-1.65Z"/>
      <path class="cls-5" d="M731.81,98.32v1.15h-5.99v-1.15h5.99ZM737.83,101.99v-1.06l5.29-7.32h1.65v7.17h1.5v1.2h-1.5v2.41h-1.35v-2.41h-5.58ZM743.47,95.06l-4.06,5.73h4.06v-5.73ZM748.29,104.49c-.25,0-.47-.09-.65-.26-.18-.18-.26-.4-.26-.68,0-.25.09-.47.26-.65.18-.18.39-.26.65-.26s.47.09.65.26c.18.18.26.39.26.65,0,.27-.09.5-.26.68-.18.18-.39.26-.65.26ZM756.86,96.12c-.22-1.12-.9-1.68-2.06-1.68-.9,0-1.58.34-2.03,1.03-.43.69-.64,1.82-.62,3.41.24-.53.62-.94,1.15-1.23s1.13-.44,1.79-.44c1.04,0,1.86.32,2.47.97.63.63.94,1.51.94,2.64,0,.69-.14,1.3-.41,1.85-.25.53-.66.96-1.2,1.29-.53.31-1.18.47-1.94.47-1.04,0-1.85-.23-2.44-.68-.57-.47-.97-1.11-1.2-1.91-.24-.82-.35-1.83-.35-3.03,0-3.68,1.28-5.52,3.85-5.52,1,0,1.77.26,2.32.79.57.53.9,1.2,1,2.03h-1.26ZM754.8,98.35c-.43,0-.83.09-1.2.26-.37.18-.69.44-.94.79-.24.35-.35.79-.35,1.32,0,.74.23,1.36.68,1.85.45.47,1.08.71,1.88.71.71,0,1.26-.22,1.68-.65.43-.43.65-1.02.65-1.76,0-.78-.21-1.4-.62-1.85-.39-.45-.98-.68-1.76-.68ZM767.99,96.03c.71,0,1.32.16,1.85.47.55.31.96.71,1.23,1.18v-1.53h1.38v8.43c0,.76-.17,1.43-.5,2-.31.59-.77,1.05-1.38,1.38-.59.33-1.27.5-2.06.5-1.1,0-2.01-.25-2.73-.76-.71-.51-1.13-1.2-1.26-2.09h1.35c.16.51.47.91.94,1.2.47.31,1.04.47,1.7.47.74,0,1.35-.24,1.82-.71.49-.47.73-1.14.73-2v-1.73c-.27.49-.69.9-1.23,1.23-.53.31-1.15.47-1.85.47s-1.39-.18-2-.53c-.59-.37-1.06-.88-1.41-1.53-.33-.67-.5-1.41-.5-2.23s.17-1.58.5-2.2c.35-.65.82-1.15,1.41-1.5.61-.35,1.27-.53,2-.53ZM771.08,100.26c0-.63-.13-1.17-.38-1.62-.25-.47-.6-.82-1.03-1.06-.43-.25-.9-.38-1.41-.38s-.98.13-1.41.38c-.41.24-.74.59-1,1.06-.24.45-.35.99-.35,1.62s.12,1.18.35,1.65c.25.47.59.83,1,1.09.43.24.9.35,1.41.35s.98-.12,1.41-.35c.43-.25.77-.62,1.03-1.09.25-.47.38-1.02.38-1.65Z"/>
      <path class="cls-5" d="M57.92,134.85l-4.2,9.82h-1.38l4.26-9.67h-5.82v-1.18h7.14v1.03ZM66.37,134.97h-5.29v3.44c.24-.31.58-.57,1.03-.76.45-.22.94-.32,1.47-.32.82,0,1.49.18,2,.53.53.33.9.77,1.12,1.32.24.55.35,1.13.35,1.73,0,.72-.14,1.37-.41,1.94-.25.57-.67,1.02-1.23,1.35-.55.33-1.23.5-2.06.5-1.06,0-1.91-.26-2.56-.79-.65-.55-1.05-1.27-1.2-2.17h1.35c.14.57.41,1.02.82,1.35.43.31.96.47,1.59.47.8,0,1.4-.24,1.79-.71.41-.49.62-1.13.62-1.91s-.21-1.38-.62-1.79c-.39-.43-.98-.65-1.76-.65-.53,0-1,.13-1.41.38-.39.25-.68.6-.85,1.03h-1.29v-6.14h6.55v1.2ZM68.89,139.12c0-1.72.27-3.07.82-4.03.57-.98,1.56-1.47,2.97-1.47s2.36.49,2.91,1.47c.57.96.85,2.3.85,4.03s-.28,3.13-.85,4.11c-.55.96-1.52,1.44-2.91,1.44s-2.4-.48-2.97-1.44c-.55-.98-.82-2.35-.82-4.11ZM75.09,139.12c0-.86-.06-1.6-.18-2.2-.12-.61-.35-1.1-.71-1.47-.35-.37-.86-.56-1.53-.56s-1.2.19-1.56.56c-.35.37-.59.86-.71,1.47-.12.61-.18,1.34-.18,2.2s.06,1.67.18,2.29c.12.61.35,1.1.71,1.47.35.37.87.56,1.56.56s1.18-.19,1.53-.56c.35-.37.59-.86.71-1.47.12-.63.18-1.39.18-2.29ZM92.49,136.26c.65,0,1.21.14,1.7.41.51.25.9.66,1.18,1.2.29.53.44,1.18.44,1.94v4.85h-1.35v-4.67c0-.82-.21-1.45-.62-1.88-.39-.43-.93-.65-1.62-.65-.72,0-1.3.23-1.73.68-.41.45-.62,1.11-.62,1.97v4.55h-1.35v-4.67c0-.82-.21-1.45-.62-1.88-.39-.43-.94-.65-1.65-.65s-1.27.23-1.7.68c-.41.45-.62,1.11-.62,1.97v4.55h-1.38v-8.26h1.38v1.2c.27-.43.64-.76,1.09-1s.96-.35,1.53-.35c.69,0,1.29.16,1.82.47.53.31.93.77,1.2,1.38.22-.59.59-1.04,1.12-1.35.55-.33,1.15-.5,1.79-.5ZM99.44,143.55h3.67v1.12h-5.05v-10.49h1.38v9.37Z"/>
      <path class="cls-5" d="M205.22,136.53c.06-.92.41-1.64,1.06-2.15.65-.53,1.48-.79,2.5-.79.69,0,1.27.13,1.76.38.51.24.89.57,1.15,1,.25.41.38.88.38,1.41,0,.63-.19,1.17-.56,1.62-.35.45-.81.73-1.38.85v.09c.65.16,1.16.47,1.53.94.39.47.59,1.09.59,1.85,0,.57-.13,1.09-.38,1.56-.25.45-.65.81-1.18,1.09-.53.25-1.16.38-1.88.38-1.06,0-1.93-.27-2.62-.82-.69-.57-1.07-1.36-1.15-2.38h1.32c.08.59.32,1.08.73,1.47.43.37,1,.56,1.7.56s1.21-.18,1.59-.53c.37-.37.56-.85.56-1.44,0-.74-.25-1.28-.76-1.62-.49-.33-1.24-.5-2.26-.5h-.35v-1.15h.35c.92-.02,1.62-.18,2.09-.47.49-.29.73-.75.73-1.38,0-.53-.18-.95-.53-1.26-.35-.31-.84-.47-1.47-.47s-1.14.16-1.53.47c-.37.31-.6.74-.68,1.29h-1.32ZM213.76,142.26v-1.06l5.29-7.32h1.65v7.17h1.5v1.2h-1.5v2.41h-1.35v-2.41h-5.58ZM219.4,135.32l-4.06,5.73h4.06v-5.73ZM224.22,144.76c-.25,0-.47-.09-.65-.26s-.26-.4-.26-.68c0-.25.09-.47.26-.65s.39-.26.65-.26.47.09.65.26.26.39.26.65c0,.27-.09.5-.26.68s-.39.26-.65.26ZM233.67,134.97h-5.29v3.44c.24-.31.58-.57,1.03-.76.45-.22.94-.32,1.47-.32.82,0,1.49.18,2,.53.53.33.9.77,1.12,1.32.24.55.35,1.13.35,1.73,0,.72-.14,1.37-.41,1.94-.25.57-.67,1.02-1.23,1.35-.55.33-1.23.5-2.06.5-1.06,0-1.91-.26-2.56-.79-.65-.55-1.05-1.27-1.2-2.17h1.35c.14.57.41,1.02.82,1.35.43.31.96.47,1.59.47.8,0,1.4-.24,1.79-.71.41-.49.62-1.13.62-1.91s-.21-1.38-.62-1.79c-.39-.43-.98-.65-1.76-.65-.53,0-1,.13-1.41.38-.39.25-.68.6-.85,1.03h-1.29v-6.14h6.55v1.2ZM243.82,136.29c.71,0,1.32.16,1.85.47.55.31.96.71,1.23,1.18v-1.53h1.38v8.43c0,.76-.17,1.43-.5,2-.31.59-.77,1.05-1.38,1.38-.59.33-1.27.5-2.06.5-1.1,0-2.01-.25-2.73-.76-.71-.51-1.13-1.2-1.26-2.09h1.35c.16.51.47.91.94,1.2.47.31,1.04.47,1.7.47.74,0,1.35-.24,1.82-.71.49-.47.73-1.14.73-2v-1.73c-.27.49-.69.9-1.23,1.23-.53.31-1.15.47-1.85.47s-1.39-.18-2-.53c-.59-.37-1.06-.88-1.41-1.53-.33-.67-.5-1.41-.5-2.23s.17-1.58.5-2.2c.35-.65.82-1.15,1.41-1.5.61-.35,1.27-.53,2-.53ZM246.9,140.53c0-.63-.13-1.17-.38-1.62-.25-.47-.6-.82-1.03-1.06-.43-.25-.9-.38-1.41-.38s-.98.13-1.41.38c-.41.24-.74.59-1,1.06-.24.45-.35.99-.35,1.62s.12,1.18.35,1.65c.25.47.59.83,1,1.09.43.24.9.35,1.41.35s.98-.12,1.41-.35c.43-.25.77-.62,1.03-1.09.25-.47.38-1.02.38-1.65Z"/>
      <path class="cls-5" d="M473.53,143.58c1.27-1.04,2.27-1.88,3-2.53.72-.67,1.33-1.35,1.82-2.06.51-.72.76-1.43.76-2.12,0-.65-.17-1.16-.5-1.53-.31-.39-.82-.59-1.53-.59-.67,0-1.19.22-1.59.65-.37.43-.57,1-.59,1.7h-1.32c.04-1.12.37-1.98,1-2.59.65-.63,1.48-.94,2.5-.94s1.86.29,2.47.88c.61.57.91,1.35.91,2.35,0,.82-.25,1.64-.76,2.44-.49.78-1.06,1.48-1.7,2.09-.63.59-1.43,1.27-2.41,2.06h5.17v1.15h-7.23v-.97ZM484.12,141.76c.1.57.32,1.01.68,1.32.37.31.87.47,1.5.47.82,0,1.43-.32,1.82-.97.41-.67.61-1.77.59-3.32-.22.45-.57.8-1.06,1.06-.49.25-1.04.38-1.65.38-.67,0-1.26-.14-1.79-.41-.53-.27-.95-.68-1.26-1.2-.29-.53-.44-1.17-.44-1.91,0-1.08.31-1.94.94-2.59.63-.67,1.51-1,2.64-1,1.41,0,2.4.46,2.97,1.38.57.9.85,2.25.85,4.06,0,1.27-.12,2.32-.35,3.14-.22.8-.6,1.43-1.15,1.88-.53.43-1.26.65-2.2.65-1.02,0-1.81-.27-2.38-.82-.57-.57-.89-1.27-.97-2.12h1.26ZM486.24,139.56c.67,0,1.21-.21,1.65-.62.43-.43.65-1,.65-1.7,0-.74-.22-1.34-.65-1.79-.41-.47-1-.71-1.76-.71-.71,0-1.26.23-1.68.68-.41.43-.62,1-.62,1.7,0,.74.21,1.34.62,1.79.41.43,1.01.65,1.79.65ZM492.48,144.76c-.25,0-.47-.09-.65-.26s-.26-.4-.26-.68c0-.25.09-.47.26-.65s.39-.26.65-.26.47.09.65.26.26.39.26.65c0,.27-.09.5-.26.68s-.39.26-.65.26ZM496.76,141.76c.1.57.32,1.01.68,1.32.37.31.87.47,1.5.47.82,0,1.43-.32,1.82-.97.41-.67.61-1.77.59-3.32-.22.45-.57.8-1.06,1.06-.49.25-1.04.38-1.65.38-.67,0-1.26-.14-1.79-.41-.53-.27-.95-.68-1.26-1.2-.29-.53-.44-1.17-.44-1.91,0-1.08.31-1.94.94-2.59.63-.67,1.51-1,2.64-1,1.41,0,2.4.46,2.97,1.38.57.9.85,2.25.85,4.06,0,1.27-.12,2.32-.35,3.14-.22.8-.6,1.43-1.15,1.88-.53.43-1.26.65-2.2.65-1.02,0-1.81-.27-2.38-.82-.57-.57-.89-1.27-.97-2.12h1.26ZM498.87,139.56c.67,0,1.21-.21,1.65-.62.43-.43.65-1,.65-1.7,0-.74-.22-1.34-.65-1.79-.41-.47-1-.71-1.76-.71-.71,0-1.26.23-1.68.68-.41.43-.62,1-.62,1.7,0,.74.21,1.34.62,1.79.41.43,1.01.65,1.79.65ZM512.11,136.29c.71,0,1.32.16,1.85.47.55.31.96.71,1.23,1.18v-1.53h1.38v8.43c0,.76-.17,1.43-.5,2-.31.59-.77,1.05-1.38,1.38-.59.33-1.27.5-2.06.5-1.1,0-2.01-.25-2.73-.76-.71-.51-1.13-1.2-1.26-2.09h1.35c.16.51.47.91.94,1.2.47.31,1.04.47,1.7.47.74,0,1.35-.24,1.82-.71.49-.47.73-1.14.73-2v-1.73c-.27.49-.69.9-1.23,1.23-.53.31-1.15.47-1.85.47s-1.39-.18-2-.53c-.59-.37-1.06-.88-1.41-1.53-.33-.67-.5-1.41-.5-2.23s.17-1.58.5-2.2c.35-.65.82-1.15,1.41-1.5.61-.35,1.27-.53,2-.53ZM515.19,140.53c0-.63-.13-1.17-.38-1.62-.25-.47-.6-.82-1.03-1.06-.43-.25-.9-.38-1.41-.38s-.98.13-1.41.38c-.41.24-.74.59-1,1.06-.24.45-.35.99-.35,1.62s.12,1.18.35,1.65c.25.47.59.83,1,1.09.43.24.9.35,1.41.35s.98-.12,1.41-.35c.43-.25.77-.62,1.03-1.09.25-.47.38-1.02.38-1.65Z"/>
      <path class="cls-5" d="M731.81,138.59v1.15h-5.99v-1.15h5.99ZM737.83,142.26v-1.06l5.29-7.32h1.65v7.17h1.5v1.2h-1.5v2.41h-1.35v-2.41h-5.58ZM743.47,135.32l-4.06,5.73h4.06v-5.73ZM748.29,144.76c-.25,0-.47-.09-.65-.26-.18-.18-.26-.4-.26-.68,0-.25.09-.47.26-.65.18-.18.39-.26.65-.26s.47.09.65.26c.18.18.26.39.26.65,0,.27-.09.5-.26.68-.18.18-.39.26-.65.26ZM756.86,136.38c-.22-1.12-.9-1.68-2.06-1.68-.9,0-1.58.34-2.03,1.03-.43.69-.64,1.82-.62,3.41.24-.53.62-.94,1.15-1.23s1.13-.44,1.79-.44c1.04,0,1.86.32,2.47.97.63.63.94,1.51.94,2.64,0,.69-.14,1.3-.41,1.85-.25.53-.66.96-1.2,1.29-.53.31-1.18.47-1.94.47-1.04,0-1.85-.23-2.44-.68-.57-.47-.97-1.11-1.2-1.91-.24-.82-.35-1.83-.35-3.03,0-3.68,1.28-5.52,3.85-5.52,1,0,1.77.26,2.32.79.57.53.9,1.2,1,2.03h-1.26ZM754.8,138.62c-.43,0-.83.09-1.2.26-.37.18-.69.44-.94.79-.24.35-.35.79-.35,1.32,0,.74.23,1.36.68,1.85.45.47,1.08.71,1.88.71.71,0,1.26-.22,1.68-.65.43-.43.65-1.02.65-1.76,0-.78-.21-1.4-.62-1.85-.39-.45-.98-.68-1.76-.68ZM767.99,136.29c.71,0,1.32.16,1.85.47.55.31.96.71,1.23,1.18v-1.53h1.38v8.43c0,.76-.17,1.43-.5,2-.31.59-.77,1.05-1.38,1.38-.59.33-1.27.5-2.06.5-1.1,0-2.01-.25-2.73-.76-.71-.51-1.13-1.2-1.26-2.09h1.35c.16.51.47.91.94,1.2.47.31,1.04.47,1.7.47.74,0,1.35-.24,1.82-.71.49-.47.73-1.14.73-2v-1.73c-.27.49-.69.9-1.23,1.23-.53.31-1.15.47-1.85.47s-1.39-.18-2-.53c-.59-.37-1.06-.88-1.41-1.53-.33-.67-.5-1.41-.5-2.23s.17-1.58.5-2.2c.35-.65.82-1.15,1.41-1.5.61-.35,1.27-.53,2-.53ZM771.08,140.53c0-.63-.13-1.17-.38-1.62-.25-.47-.6-.82-1.03-1.06-.43-.25-.9-.38-1.41-.38s-.98.13-1.41.38c-.41.24-.74.59-1,1.06-.24.45-.35.99-.35,1.62s.12,1.18.35,1.65c.25.47.59.83,1,1.09.43.24.9.35,1.41.35s.98-.12,1.41-.35c.43-.25.77-.62,1.03-1.09.25-.47.38-1.02.38-1.65Z"/>
      <path class="cls-5" d="M56.61,176.65c-.22-1.12-.9-1.67-2.06-1.68-.9,0-1.58.34-2.03,1.03-.43.69-.64,1.82-.62,3.41.24-.53.62-.94,1.15-1.23.53-.29,1.13-.44,1.79-.44,1.04,0,1.86.32,2.47.97.63.63.94,1.51.94,2.64,0,.69-.14,1.3-.41,1.85-.25.53-.66.96-1.2,1.29-.53.31-1.18.47-1.94.47-1.04,0-1.85-.23-2.44-.68-.57-.47-.97-1.11-1.2-1.91-.24-.82-.35-1.83-.35-3.03,0-3.68,1.28-5.52,3.85-5.52,1,0,1.77.26,2.32.79.57.53.9,1.2,1,2.03h-1.26ZM54.55,178.88c-.43,0-.83.09-1.2.26-.37.18-.69.44-.94.79-.24.35-.35.79-.35,1.32,0,.74.23,1.36.68,1.85.45.47,1.08.71,1.88.71.71,0,1.26-.22,1.68-.65.43-.43.65-1.02.65-1.76,0-.78-.21-1.4-.62-1.85-.39-.45-.98-.68-1.76-.68ZM60.11,179.38c0-1.72.27-3.07.82-4.03.57-.98,1.56-1.47,2.97-1.47,1.39,0,2.36.49,2.91,1.47.57.96.85,2.3.85,4.03s-.28,3.13-.85,4.11c-.55.96-1.52,1.44-2.91,1.44-1.41,0-2.4-.48-2.97-1.44-.55-.98-.82-2.35-.82-4.11ZM66.31,179.38c0-.86-.06-1.6-.18-2.2-.12-.61-.35-1.1-.71-1.47-.35-.37-.86-.56-1.53-.56-.69,0-1.2.19-1.56.56-.35.37-.59.86-.71,1.47-.12.61-.18,1.34-.18,2.2s.06,1.67.18,2.29c.12.61.35,1.1.71,1.47.35.37.87.56,1.56.56.67,0,1.18-.19,1.53-.56.35-.37.59-.86.71-1.47.12-.63.18-1.39.18-2.29ZM69.56,179.38c0-1.72.27-3.07.82-4.03.57-.98,1.56-1.47,2.97-1.47,1.39,0,2.36.49,2.91,1.47.57.96.85,2.3.85,4.03s-.28,3.13-.85,4.11c-.55.96-1.52,1.44-2.91,1.44-1.41,0-2.4-.48-2.97-1.44-.55-.98-.82-2.35-.82-4.11ZM75.76,179.38c0-.86-.06-1.6-.18-2.2-.12-.61-.35-1.1-.71-1.47-.35-.37-.86-.56-1.53-.56-.69,0-1.2.19-1.56.56-.35.37-.59.86-.71,1.47-.12.61-.18,1.34-.18,2.2s.06,1.67.18,2.29c.12.61.35,1.1.71,1.47.35.37.87.56,1.56.56.67,0,1.18-.19,1.53-.56.35-.37.59-.86.71-1.47.12-.63.18-1.39.18-2.29ZM93.16,176.53c.65,0,1.21.14,1.7.41.51.25.9.66,1.18,1.2.29.53.44,1.18.44,1.94v4.85h-1.35v-4.67c0-.82-.21-1.45-.62-1.88-.39-.43-.93-.65-1.62-.65-.72,0-1.3.23-1.73.68-.41.45-.62,1.11-.62,1.97v4.55h-1.35v-4.67c0-.82-.21-1.45-.62-1.88-.39-.43-.94-.65-1.65-.65-.71,0-1.27.23-1.7.68-.41.45-.62,1.11-.62,1.97v4.55h-1.38v-8.26h1.38v1.2c.27-.43.64-.76,1.09-1,.45-.24.96-.35,1.53-.35.69,0,1.29.16,1.82.47.53.31.93.77,1.2,1.38.22-.59.59-1.04,1.12-1.35.55-.33,1.15-.5,1.79-.5ZM100.11,183.82h3.67v1.12h-5.05v-10.49h1.38v9.37Z"/>
      <path class="cls-5" d="M205.18,183.85c1.27-1.04,2.27-1.88,3-2.53.72-.67,1.33-1.35,1.82-2.06.51-.72.76-1.43.76-2.12,0-.65-.17-1.16-.5-1.53-.31-.39-.82-.59-1.53-.59-.67,0-1.2.22-1.59.65-.37.43-.57,1-.59,1.7h-1.32c.04-1.12.37-1.98,1-2.59.65-.63,1.48-.94,2.5-.94,1.04,0,1.86.29,2.47.88.61.57.91,1.35.91,2.35,0,.82-.25,1.64-.76,2.44-.49.78-1.06,1.48-1.7,2.09-.63.59-1.43,1.27-2.41,2.06h5.17v1.15h-7.23v-.97ZM213.65,182.53v-1.06l5.29-7.32h1.65v7.17h1.5v1.2h-1.5v2.41h-1.35v-2.41h-5.58ZM219.3,175.59l-4.06,5.73h4.06v-5.73ZM224.12,185.02c-.25,0-.47-.09-.65-.26-.18-.18-.26-.4-.26-.68,0-.25.09-.47.26-.65.18-.18.39-.26.65-.26.25,0,.47.09.65.26.18.18.26.39.26.65,0,.27-.09.5-.26.68-.18.18-.39.26-.65.26ZM226.63,179.38c0-1.72.27-3.07.82-4.03.57-.98,1.56-1.47,2.97-1.47,1.39,0,2.36.49,2.91,1.47.57.96.85,2.3.85,4.03s-.28,3.13-.85,4.11c-.55.96-1.52,1.44-2.91,1.44-1.41,0-2.4-.48-2.97-1.44-.55-.98-.82-2.35-.82-4.11ZM232.83,179.38c0-.86-.06-1.6-.18-2.2-.12-.61-.35-1.1-.71-1.47-.35-.37-.86-.56-1.53-.56-.69,0-1.2.19-1.56.56-.35.37-.59.86-.71,1.47-.12.61-.18,1.34-.18,2.2s.06,1.67.18,2.29c.12.61.35,1.1.71,1.47.35.37.87.56,1.56.56.67,0,1.18-.19,1.53-.56.35-.37.59-.86.71-1.47.12-.63.18-1.39.18-2.29ZM243.71,176.56c.71,0,1.32.16,1.85.47.55.31.96.71,1.23,1.18v-1.53h1.38v8.43c0,.76-.17,1.43-.5,2-.31.59-.77,1.05-1.38,1.38-.59.33-1.27.5-2.06.5-1.1,0-2.01-.25-2.73-.76-.71-.51-1.13-1.2-1.26-2.09h1.35c.16.51.47.91.94,1.2.47.31,1.04.47,1.7.47.74,0,1.35-.24,1.82-.71.49-.47.73-1.14.73-2v-1.73c-.27.49-.69.9-1.23,1.23-.53.31-1.15.47-1.85.47-.72,0-1.39-.18-2-.53-.59-.37-1.06-.88-1.41-1.53-.33-.67-.5-1.41-.5-2.23s.17-1.58.5-2.2c.35-.65.82-1.15,1.41-1.5.61-.35,1.27-.53,2-.53ZM246.8,180.79c0-.63-.13-1.17-.38-1.62-.25-.47-.6-.82-1.03-1.06-.43-.25-.9-.38-1.41-.38-.51,0-.98.13-1.41.38-.41.24-.74.59-1,1.06-.24.45-.35.99-.35,1.62s.12,1.18.35,1.65c.25.47.59.83,1,1.09.43.24.9.35,1.41.35.51,0,.98-.12,1.41-.35.43-.25.77-.62,1.03-1.09.25-.47.38-1.02.38-1.65Z"/>
      <path class="cls-5" d="M473.56,183.85c1.27-1.04,2.27-1.88,3-2.53.72-.67,1.33-1.35,1.82-2.06.51-.72.76-1.43.76-2.12,0-.65-.17-1.16-.5-1.53-.31-.39-.82-.59-1.53-.59-.67,0-1.2.22-1.59.65-.37.43-.57,1-.59,1.7h-1.32c.04-1.12.37-1.98,1-2.59.65-.63,1.48-.94,2.5-.94,1.04,0,1.86.29,2.47.88.61.57.91,1.35.91,2.35,0,.82-.25,1.64-.76,2.44-.49.78-1.06,1.48-1.7,2.09-.63.59-1.43,1.27-2.41,2.06h5.17v1.15h-7.23v-.97ZM482.39,179.38c0-1.72.27-3.07.82-4.03.57-.98,1.56-1.47,2.97-1.47,1.39,0,2.36.49,2.91,1.47.57.96.85,2.3.85,4.03s-.28,3.13-.85,4.11c-.55.96-1.52,1.44-2.91,1.44-1.41,0-2.4-.48-2.97-1.44-.55-.98-.82-2.35-.82-4.11ZM488.59,179.38c0-.86-.06-1.6-.18-2.2-.12-.61-.35-1.1-.71-1.47-.35-.37-.86-.56-1.53-.56-.69,0-1.2.19-1.56.56-.35.37-.59.86-.71,1.47-.12.61-.18,1.34-.18,2.2s.06,1.67.18,2.29c.12.61.35,1.1.71,1.47.35.37.87.56,1.56.56.67,0,1.18-.19,1.53-.56.35-.37.59-.86.71-1.47.12-.63.18-1.39.18-2.29ZM492.48,185.02c-.25,0-.47-.09-.65-.26-.18-.18-.26-.4-.26-.68,0-.25.09-.47.26-.65.18-.18.39-.26.65-.26.25,0,.47.09.65.26.18.18.26.39.26.65,0,.27-.09.5-.26.68-.18.18-.39.26-.65.26ZM495,179.38c0-1.72.27-3.07.82-4.03.57-.98,1.56-1.47,2.97-1.47,1.39,0,2.36.49,2.91,1.47.57.96.85,2.3.85,4.03s-.28,3.13-.85,4.11c-.55.96-1.52,1.44-2.91,1.44-1.41,0-2.4-.48-2.97-1.44-.55-.98-.82-2.35-.82-4.11ZM501.2,179.38c0-.86-.06-1.6-.18-2.2-.12-.61-.35-1.1-.71-1.47-.35-.37-.86-.56-1.53-.56-.69,0-1.2.19-1.56.56-.35.37-.59.86-.71,1.47-.12.61-.18,1.34-.18,2.2s.06,1.67.18,2.29c.12.61.35,1.1.71,1.47.35.37.87.56,1.56.56.67,0,1.18-.19,1.53-.56.35-.37.59-.86.71-1.47.12-.63.18-1.39.18-2.29ZM512.08,176.56c.71,0,1.32.16,1.85.47.55.31.96.71,1.23,1.18v-1.53h1.38v8.43c0,.76-.17,1.43-.5,2-.31.59-.77,1.05-1.38,1.38-.59.33-1.27.5-2.06.5-1.1,0-2.01-.25-2.73-.76-.71-.51-1.13-1.2-1.26-2.09h1.35c.16.51.47.91.94,1.2.47.31,1.04.47,1.7.47.74,0,1.35-.24,1.82-.71.49-.47.73-1.14.73-2v-1.73c-.27.49-.69.9-1.23,1.23-.53.31-1.15.47-1.85.47-.72,0-1.39-.18-2-.53-.59-.37-1.06-.88-1.41-1.53-.33-.67-.5-1.41-.5-2.23s.17-1.58.5-2.2c.35-.65.82-1.15,1.41-1.5.61-.35,1.27-.53,2-.53ZM515.16,180.79c0-.63-.13-1.17-.38-1.62-.25-.47-.6-.82-1.03-1.06-.43-.25-.9-.38-1.41-.38-.51,0-.98.13-1.41.38-.41.24-.74.59-1,1.06-.24.45-.35.99-.35,1.62s.12,1.18.35,1.65c.25.47.59.83,1,1.09.43.24.9.35,1.41.35.51,0,.98-.12,1.41-.35.43-.25.77-.62,1.03-1.09.25-.47.38-1.02.38-1.65Z"/>
      <path class="cls-5" d="M731.86,178.85v1.15h-5.99v-1.15h5.99ZM737.88,182.53v-1.06l5.29-7.32h1.65v7.17h1.5v1.2h-1.5v2.41h-1.35v-2.41h-5.58ZM743.53,175.59l-4.06,5.73h4.06v-5.73ZM748.35,185.02c-.25,0-.47-.09-.65-.26-.18-.18-.26-.4-.26-.68,0-.25.09-.47.26-.65.18-.18.39-.26.65-.26.25,0,.47.09.65.26.18.18.26.39.26.65,0,.27-.09.5-.26.68-.18.18-.39.26-.65.26ZM750.86,179.38c0-1.72.27-3.07.82-4.03.57-.98,1.56-1.47,2.97-1.47,1.39,0,2.36.49,2.91,1.47.57.96.85,2.3.85,4.03,0,1.76-.28,3.13-.85,4.11-.55.96-1.52,1.44-2.91,1.44-1.41,0-2.4-.48-2.97-1.44-.55-.98-.82-2.35-.82-4.11ZM757.06,179.38c0-.86-.06-1.6-.18-2.2-.12-.61-.35-1.1-.71-1.47-.35-.37-.86-.56-1.53-.56-.69,0-1.2.19-1.56.56-.35.37-.59.86-.71,1.47-.12.61-.18,1.34-.18,2.2,0,.9.06,1.67.18,2.29.12.61.35,1.1.71,1.47.35.37.87.56,1.56.56.67,0,1.18-.19,1.53-.56.35-.37.59-.86.71-1.47.12-.63.18-1.39.18-2.29ZM767.94,176.56c.71,0,1.32.16,1.85.47.55.31.96.71,1.23,1.18v-1.53h1.38v8.43c0,.76-.17,1.43-.5,2-.31.59-.77,1.05-1.38,1.38-.59.33-1.27.5-2.06.5-1.1,0-2.01-.25-2.73-.76-.71-.51-1.13-1.2-1.26-2.09h1.35c.16.51.47.91.94,1.2.47.31,1.04.47,1.7.47.74,0,1.35-.24,1.82-.71.49-.47.73-1.14.73-2v-1.73c-.27.49-.69.9-1.23,1.23-.53.31-1.15.47-1.85.47-.72,0-1.39-.18-2-.53-.59-.37-1.06-.88-1.41-1.53-.33-.67-.5-1.41-.5-2.23,0-.84.17-1.58.5-2.2.35-.65.82-1.15,1.41-1.5.61-.35,1.27-.53,2-.53ZM771.03,180.79c0-.63-.13-1.17-.38-1.62-.25-.47-.6-.82-1.03-1.06-.43-.25-.9-.38-1.41-.38-.51,0-.98.13-1.41.38-.41.24-.74.59-1,1.06-.23.45-.35.99-.35,1.62,0,.63.12,1.18.35,1.65.25.47.59.83,1,1.09.43.24.9.35,1.41.35.51,0,.98-.12,1.41-.35.43-.25.77-.62,1.03-1.09.25-.47.38-1.02.38-1.65Z"/>
      <path class="cls-5" d="M57.54,215.5h-5.29v3.44c.24-.31.58-.57,1.03-.76.45-.22.94-.32,1.47-.32.82,0,1.49.18,2,.53.53.33.9.77,1.12,1.32.24.55.35,1.13.35,1.73,0,.72-.14,1.37-.41,1.94-.25.57-.67,1.02-1.23,1.35-.55.33-1.23.5-2.06.5-1.06,0-1.91-.26-2.56-.79-.65-.55-1.05-1.27-1.2-2.17h1.35c.14.57.41,1.02.82,1.35.43.31.96.47,1.59.47.8,0,1.4-.24,1.79-.71.41-.49.62-1.13.62-1.91s-.21-1.38-.62-1.79c-.39-.43-.98-.65-1.76-.65-.53,0-1,.13-1.41.38-.39.25-.68.6-.85,1.03h-1.29v-6.14h6.55v1.2ZM60.06,219.65c0-1.72.27-3.07.82-4.03.57-.98,1.56-1.47,2.97-1.47s2.36.49,2.91,1.47c.57.96.85,2.3.85,4.03s-.28,3.13-.85,4.11c-.55.96-1.52,1.44-2.91,1.44s-2.4-.48-2.97-1.44c-.55-.98-.82-2.35-.82-4.11ZM66.26,219.65c0-.86-.06-1.6-.18-2.2-.12-.61-.35-1.1-.71-1.47-.35-.37-.86-.56-1.53-.56s-1.2.19-1.56.56c-.35.37-.59.86-.71,1.47-.12.61-.18,1.34-.18,2.2s.06,1.67.18,2.29c.12.61.35,1.1.71,1.47.35.37.87.56,1.56.56s1.18-.19,1.53-.56c.35-.37.59-.86.71-1.47.12-.63.18-1.39.18-2.29ZM69.5,219.65c0-1.72.27-3.07.82-4.03.57-.98,1.56-1.47,2.97-1.47s2.36.49,2.91,1.47c.57.96.85,2.3.85,4.03s-.28,3.13-.85,4.11c-.55.96-1.52,1.44-2.91,1.44s-2.4-.48-2.97-1.44c-.55-.98-.82-2.35-.82-4.11ZM75.7,219.65c0-.86-.06-1.6-.18-2.2-.12-.61-.35-1.1-.71-1.47-.35-.37-.86-.56-1.53-.56s-1.2.19-1.56.56c-.35.37-.59.86-.71,1.47-.12.61-.18,1.34-.18,2.2s.06,1.67.18,2.29c.12.61.35,1.1.71,1.47.35.37.87.56,1.56.56s1.18-.19,1.53-.56c.35-.37.59-.86.71-1.47.12-.63.18-1.39.18-2.29ZM93.11,216.8c.65,0,1.21.14,1.7.41.51.25.9.66,1.18,1.2.29.53.44,1.18.44,1.94v4.85h-1.35v-4.67c0-.82-.21-1.45-.62-1.88-.39-.43-.93-.65-1.62-.65-.72,0-1.3.23-1.73.68-.41.45-.62,1.11-.62,1.97v4.55h-1.35v-4.67c0-.82-.21-1.45-.62-1.88-.39-.43-.94-.65-1.65-.65s-1.27.23-1.7.68c-.41.45-.62,1.11-.62,1.97v4.55h-1.38v-8.26h1.38v1.2c.27-.43.64-.76,1.09-1s.96-.35,1.53-.35c.69,0,1.29.16,1.82.47.53.31.93.77,1.2,1.38.22-.59.59-1.04,1.12-1.35.55-.33,1.15-.5,1.79-.5ZM100.05,224.08h3.67v1.12h-5.05v-10.49h1.38v9.37Z"/>
      <path class="cls-5" d="M205.59,224.11c1.27-1.04,2.27-1.88,3-2.53.72-.67,1.33-1.35,1.82-2.06.51-.72.76-1.43.76-2.12,0-.65-.17-1.16-.5-1.53-.31-.39-.82-.59-1.53-.59-.67,0-1.19.22-1.59.65-.37.43-.57,1-.59,1.7h-1.32c.04-1.12.37-1.98,1-2.59.65-.63,1.48-.94,2.5-.94s1.86.29,2.47.88c.61.57.91,1.35.91,2.35,0,.82-.25,1.64-.76,2.44-.49.78-1.06,1.48-1.7,2.09-.63.59-1.43,1.27-2.41,2.06h5.17v1.15h-7.23v-.97ZM214.24,224.11c1.27-1.04,2.27-1.88,3-2.53.72-.67,1.33-1.35,1.82-2.06.51-.72.76-1.43.76-2.12,0-.65-.17-1.16-.5-1.53-.31-.39-.82-.59-1.53-.59-.67,0-1.2.22-1.59.65-.37.43-.57,1-.59,1.7h-1.32c.04-1.12.37-1.98,1-2.59.65-.63,1.48-.94,2.5-.94s1.86.29,2.47.88c.61.57.91,1.35.91,2.35,0,.82-.25,1.64-.76,2.44-.49.78-1.06,1.48-1.7,2.09-.63.59-1.43,1.27-2.41,2.06h5.17v1.15h-7.23v-.97ZM223.71,225.29c-.25,0-.47-.09-.65-.26s-.26-.4-.26-.68c0-.25.09-.47.26-.65s.39-.26.65-.26.47.09.65.26.26.39.26.65c0,.27-.09.5-.26.68s-.39.26-.65.26ZM226.22,219.65c0-1.72.27-3.07.82-4.03.57-.98,1.56-1.47,2.97-1.47s2.36.49,2.91,1.47c.57.96.85,2.3.85,4.03s-.28,3.13-.85,4.11c-.55.96-1.52,1.44-2.91,1.44s-2.4-.48-2.97-1.44c-.55-.98-.82-2.35-.82-4.11ZM232.42,219.65c0-.86-.06-1.6-.18-2.2-.12-.61-.35-1.1-.71-1.47-.35-.37-.86-.56-1.53-.56s-1.2.19-1.56.56c-.35.37-.59.86-.71,1.47-.12.61-.18,1.34-.18,2.2s.06,1.67.18,2.29c.12.61.35,1.1.71,1.47.35.37.87.56,1.56.56s1.18-.19,1.53-.56c.35-.37.59-.86.71-1.47.12-.63.18-1.39.18-2.29ZM243.3,216.83c.71,0,1.32.16,1.85.47.55.31.96.71,1.23,1.18v-1.53h1.38v8.43c0,.76-.17,1.43-.5,2-.31.59-.77,1.05-1.38,1.38-.59.33-1.27.5-2.06.5-1.1,0-2.01-.25-2.73-.76-.71-.51-1.13-1.2-1.26-2.09h1.35c.16.51.47.91.94,1.2.47.31,1.04.47,1.7.47.74,0,1.35-.24,1.82-.71.49-.47.73-1.14.73-2v-1.73c-.27.49-.69.9-1.23,1.23-.53.31-1.15.47-1.85.47s-1.39-.18-2-.53c-.59-.37-1.06-.88-1.41-1.53-.33-.67-.5-1.41-.5-2.23s.17-1.58.5-2.2c.35-.65.82-1.15,1.41-1.5.61-.35,1.27-.53,2-.53ZM246.39,221.06c0-.63-.13-1.17-.38-1.62-.25-.47-.6-.82-1.03-1.06-.43-.25-.9-.38-1.41-.38s-.98.13-1.41.38c-.41.24-.74.59-1,1.06-.24.45-.35.99-.35,1.62s.12,1.18.35,1.65c.25.47.59.83,1,1.09.43.24.9.35,1.41.35s.98-.12,1.41-.35c.43-.25.77-.62,1.03-1.09s.38-1.02.38-1.65Z"/>
      <path class="cls-5" d="M475.25,215.56v-1.23h2.85v10.87h-1.38v-9.64h-1.47ZM482.42,219.53c-.55-.22-.98-.53-1.29-.94-.29-.43-.44-.95-.44-1.56,0-.53.14-1.01.41-1.44.27-.45.68-.8,1.2-1.06.53-.25,1.18-.38,1.94-.38s1.41.13,1.94.38c.55.25.96.61,1.23,1.06.27.43.41.91.41,1.44,0,.59-.16,1.11-.47,1.56-.31.43-.73.74-1.26.94.61.2,1.1.54,1.47,1.03.37.47.56,1.04.56,1.7s-.17,1.21-.5,1.7c-.31.49-.76.87-1.35,1.15-.59.25-1.26.38-2.03.38s-1.44-.13-2.03-.38c-.57-.27-1.01-.66-1.32-1.15-.31-.49-.47-1.06-.47-1.7s.18-1.23.53-1.7c.37-.49.86-.83,1.47-1.03ZM486.5,217.21c0-.61-.21-1.08-.62-1.41-.39-.33-.94-.5-1.65-.5s-1.23.17-1.65.5c-.39.33-.59.81-.59,1.44,0,.55.21,1,.62,1.35.41.33.95.5,1.62.5s1.23-.17,1.65-.5c.41-.35.62-.81.62-1.38ZM484.24,220.15c-.74,0-1.35.18-1.82.53-.47.33-.71.85-.71,1.56,0,.63.23,1.14.68,1.53.47.39,1.09.59,1.85.59s1.4-.2,1.85-.59c.45-.39.68-.9.68-1.53,0-.69-.24-1.2-.71-1.56-.45-.35-1.06-.53-1.82-.53ZM490.59,225.29c-.25,0-.47-.09-.65-.26-.18-.18-.26-.4-.26-.68,0-.25.09-.47.26-.65.18-.18.39-.26.65-.26s.47.09.65.26c.18.18.26.39.26.65,0,.27-.09.5-.26.68-.18.18-.39.26-.65.26ZM493.1,219.65c0-1.72.27-3.07.82-4.03.57-.98,1.56-1.47,2.97-1.47s2.36.49,2.91,1.47c.57.96.85,2.3.85,4.03,0,1.76-.28,3.13-.85,4.11-.55.96-1.52,1.44-2.91,1.44s-2.4-.48-2.97-1.44c-.55-.98-.82-2.35-.82-4.11ZM499.3,219.65c0-.86-.06-1.6-.18-2.2-.12-.61-.35-1.1-.71-1.47-.35-.37-.86-.56-1.53-.56s-1.2.19-1.56.56c-.35.37-.59.86-.71,1.47-.12.61-.18,1.34-.18,2.2,0,.9.06,1.67.18,2.29.12.61.35,1.1.71,1.47.35.37.87.56,1.56.56s1.18-.19,1.53-.56c.35-.37.59-.86.71-1.47.12-.63.18-1.39.18-2.29ZM510.18,216.83c.71,0,1.32.16,1.85.47.55.31.96.71,1.23,1.18v-1.53h1.38v8.43c0,.76-.17,1.43-.5,2-.31.59-.77,1.05-1.38,1.38-.59.33-1.27.5-2.06.5-1.1,0-2.01-.25-2.73-.76-.71-.51-1.13-1.2-1.26-2.09h1.35c.16.51.47.91.94,1.2.47.31,1.04.47,1.7.47.74,0,1.35-.24,1.82-.71.49-.47.73-1.14.73-2v-1.73c-.27.49-.69.9-1.23,1.23-.53.31-1.15.47-1.85.47s-1.39-.18-2-.53c-.59-.37-1.06-.88-1.41-1.53-.33-.67-.5-1.41-.5-2.23,0-.84.17-1.58.5-2.2.35-.65.82-1.15,1.41-1.5.61-.35,1.27-.53,2-.53ZM513.27,221.06c0-.63-.13-1.17-.38-1.62-.25-.47-.6-.82-1.03-1.06-.43-.25-.9-.38-1.41-.38s-.98.13-1.41.38c-.41.24-.74.59-1,1.06-.23.45-.35.99-.35,1.62,0,.63.12,1.18.35,1.65.25.47.59.83,1,1.09.43.24.9.35,1.41.35s.98-.12,1.41-.35c.43-.25.77-.62,1.03-1.09.25-.47.38-1.02.38-1.65Z"/>
      <path class="cls-5" d="M731.86,219.12v1.15h-5.99v-1.15h5.99ZM737.88,222.79v-1.06l5.29-7.32h1.65v7.17h1.5v1.2h-1.5v2.41h-1.35v-2.41h-5.58ZM743.53,215.86l-4.06,5.73h4.06v-5.73ZM748.35,225.29c-.25,0-.47-.09-.65-.26s-.26-.4-.26-.68c0-.25.09-.47.26-.65s.39-.26.65-.26.47.09.65.26.26.39.26.65c0,.27-.09.5-.26.68s-.39.26-.65.26ZM750.86,219.65c0-1.72.27-3.07.82-4.03.57-.98,1.56-1.47,2.97-1.47s2.36.49,2.91,1.47c.57.96.85,2.3.85,4.03,0,1.76-.28,3.13-.85,4.11-.55.96-1.52,1.44-2.91,1.44s-2.4-.48-2.97-1.44c-.55-.98-.82-2.35-.82-4.11ZM757.06,219.65c0-.86-.06-1.6-.18-2.2-.12-.61-.35-1.1-.71-1.47-.35-.37-.86-.56-1.53-.56s-1.2.19-1.56.56c-.35.37-.59.86-.71,1.47-.12.61-.18,1.34-.18,2.2,0,.9.06,1.67.18,2.29.12.61.35,1.1.71,1.47.35.37.87.56,1.56.56s1.18-.19,1.53-.56c.35-.37.59-.86.71-1.47.12-.63.18-1.39.18-2.29ZM767.94,216.83c.71,0,1.32.16,1.85.47.55.31.96.71,1.23,1.18v-1.53h1.38v8.43c0,.76-.17,1.43-.5,2-.31.59-.77,1.05-1.38,1.38-.59.33-1.27.5-2.06.5-1.1,0-2.01-.25-2.73-.76-.71-.51-1.13-1.2-1.26-2.09h1.35c.16.51.47.91.94,1.2.47.31,1.04.47,1.7.47.74,0,1.35-.24,1.82-.71.49-.47.73-1.14.73-2v-1.73c-.27.49-.69.9-1.23,1.23-.53.31-1.15.47-1.85.47s-1.39-.18-2-.53c-.59-.37-1.06-.88-1.41-1.53-.33-.67-.5-1.41-.5-2.23,0-.84.17-1.58.5-2.2.35-.65.82-1.15,1.41-1.5.61-.35,1.27-.53,2-.53ZM771.03,221.06c0-.63-.13-1.17-.38-1.62-.25-.47-.6-.82-1.03-1.06-.43-.25-.9-.38-1.41-.38s-.98.13-1.41.38c-.41.24-.74.59-1,1.06-.23.45-.35.99-.35,1.62,0,.63.12,1.18.35,1.65.25.47.59.83,1,1.09.43.24.9.35,1.41.35s.98-.12,1.41-.35c.43-.25.77-.62,1.03-1.09.25-.47.38-1.02.38-1.65Z"/>
      <path class="cls-5" d="M50.87,257.33c.06-.92.41-1.64,1.06-2.15.65-.53,1.48-.79,2.5-.79.69,0,1.27.13,1.76.38.51.24.89.57,1.15,1,.25.41.38.88.38,1.41,0,.63-.19,1.17-.56,1.62-.35.45-.81.73-1.38.85v.09c.65.16,1.16.47,1.53.94.39.47.59,1.09.59,1.85,0,.57-.13,1.09-.38,1.56-.25.45-.65.81-1.18,1.09-.53.25-1.16.38-1.88.38-1.06,0-1.93-.27-2.62-.82-.69-.57-1.07-1.36-1.15-2.38h1.32c.08.59.32,1.08.73,1.47.43.37,1,.56,1.7.56s1.21-.18,1.59-.53c.37-.37.56-.85.56-1.44,0-.74-.25-1.28-.76-1.62-.49-.33-1.24-.5-2.26-.5h-.35v-1.15h.35c.92-.02,1.62-.18,2.09-.47.49-.29.73-.75.73-1.38,0-.53-.18-.95-.53-1.26-.35-.31-.84-.47-1.47-.47s-1.14.16-1.53.47c-.37.31-.6.74-.68,1.29h-1.32ZM66.7,255.77h-5.29v3.44c.24-.31.58-.57,1.03-.76.45-.22.94-.32,1.47-.32.82,0,1.49.18,2,.53.53.33.9.77,1.12,1.32.24.55.35,1.13.35,1.73,0,.72-.14,1.37-.41,1.94-.25.57-.67,1.02-1.23,1.35-.55.33-1.23.5-2.06.5-1.06,0-1.91-.26-2.56-.79-.65-.55-1.05-1.27-1.2-2.17h1.35c.14.57.41,1.02.82,1.35.43.31.96.47,1.59.47.8,0,1.4-.24,1.79-.71.41-.49.62-1.13.62-1.91s-.21-1.38-.62-1.79c-.39-.43-.98-.65-1.76-.65-.53,0-1,.13-1.41.38-.39.25-.68.6-.85,1.03h-1.29v-6.14h6.55v1.2ZM69.21,259.91c0-1.72.27-3.07.82-4.03.57-.98,1.56-1.47,2.97-1.47s2.36.49,2.91,1.47c.57.96.85,2.3.85,4.03s-.28,3.13-.85,4.11c-.55.96-1.52,1.44-2.91,1.44s-2.4-.48-2.97-1.44c-.55-.98-.82-2.35-.82-4.11ZM75.41,259.91c0-.86-.06-1.6-.18-2.2-.12-.61-.35-1.1-.71-1.47-.35-.37-.86-.56-1.53-.56s-1.2.19-1.56.56c-.35.37-.59.86-.71,1.47-.12.61-.18,1.34-.18,2.2s.06,1.67.18,2.29c.12.61.35,1.1.71,1.47.35.37.87.56,1.56.56s1.18-.19,1.53-.56c.35-.37.59-.86.71-1.47.12-.63.18-1.39.18-2.29ZM92.81,257.06c.65,0,1.21.14,1.7.41.51.25.9.66,1.18,1.2.29.53.44,1.18.44,1.94v4.85h-1.35v-4.67c0-.82-.21-1.45-.62-1.88-.39-.43-.93-.65-1.62-.65-.72,0-1.3.23-1.73.68-.41.45-.62,1.11-.62,1.97v4.55h-1.35v-4.67c0-.82-.21-1.45-.62-1.88-.39-.43-.94-.65-1.65-.65s-1.27.23-1.7.68c-.41.45-.62,1.11-.62,1.97v4.55h-1.38v-8.26h1.38v1.2c.27-.43.64-.76,1.09-1s.96-.35,1.53-.35c.69,0,1.29.16,1.82.47.53.31.93.77,1.2,1.38.22-.59.59-1.04,1.12-1.35.55-.33,1.15-.5,1.79-.5ZM99.76,264.35h3.67v1.12h-5.05v-10.49h1.38v9.37Z"/>
      <path class="cls-5" d="M208.13,255.83v-1.23h2.85v10.87h-1.38v-9.64h-1.47ZM220.03,255.65l-4.2,9.82h-1.38l4.26-9.67h-5.82v-1.18h7.14v1.03ZM222.19,265.55c-.25,0-.47-.09-.65-.26s-.26-.4-.26-.68c0-.25.09-.47.26-.65s.39-.26.65-.26.47.09.65.26.26.39.26.65c0,.27-.09.5-.26.68s-.39.26-.65.26ZM231.4,255.65l-4.2,9.82h-1.38l4.26-9.67h-5.82v-1.18h7.14v1.03ZM240.55,257.09c.71,0,1.32.16,1.85.47.55.31.96.71,1.23,1.18v-1.53h1.38v8.43c0,.76-.17,1.43-.5,2-.31.59-.77,1.05-1.38,1.38-.59.33-1.27.5-2.06.5-1.1,0-2.01-.25-2.73-.76-.71-.51-1.13-1.2-1.26-2.09h1.35c.16.51.47.91.94,1.2.47.31,1.04.47,1.7.47.74,0,1.35-.24,1.82-.71.49-.47.73-1.14.73-2v-1.73c-.27.49-.69.9-1.23,1.23-.53.31-1.15.47-1.85.47s-1.39-.18-2-.53c-.59-.37-1.06-.88-1.41-1.53-.33-.67-.5-1.41-.5-2.23s.17-1.58.5-2.2c.35-.65.82-1.15,1.41-1.5.61-.35,1.27-.53,2-.53ZM243.64,261.32c0-.63-.13-1.17-.38-1.62-.25-.47-.6-.82-1.03-1.06-.43-.25-.9-.38-1.41-.38s-.98.13-1.41.38c-.41.24-.74.59-1,1.06-.24.45-.35.99-.35,1.62s.12,1.18.35,1.65c.25.47.59.83,1,1.09.43.24.9.35,1.41.35s.98-.12,1.41-.35c.43-.25.77-.62,1.03-1.09s.38-1.02.38-1.65Z"/>
      <path class="cls-5" d="M475.27,255.83v-1.23h2.85v10.87h-1.38v-9.64h-1.47ZM487.4,255.77h-5.29v3.44c.24-.31.58-.57,1.03-.76.45-.22.94-.32,1.47-.32.82,0,1.49.18,2,.53.53.33.9.77,1.12,1.32.24.55.35,1.13.35,1.73,0,.72-.14,1.37-.41,1.94-.25.57-.67,1.02-1.23,1.35-.55.33-1.23.5-2.06.5-1.06,0-1.91-.26-2.56-.79-.65-.55-1.05-1.27-1.2-2.17h1.35c.14.57.41,1.02.82,1.35.43.31.96.47,1.59.47.8,0,1.4-.24,1.79-.71.41-.49.62-1.13.62-1.91s-.21-1.38-.62-1.79c-.39-.43-.98-.65-1.76-.65-.53,0-1,.13-1.41.38-.39.25-.68.6-.85,1.03h-1.29v-6.14h6.55v1.2ZM490.56,265.55c-.25,0-.47-.09-.65-.26s-.26-.4-.26-.68c0-.25.09-.47.26-.65s.39-.26.65-.26.47.09.65.26.26.39.26.65c0,.27-.09.5-.26.68s-.39.26-.65.26ZM493.08,259.91c0-1.72.27-3.07.82-4.03.57-.98,1.56-1.47,2.97-1.47s2.36.49,2.91,1.47c.57.96.85,2.3.85,4.03,0,1.76-.28,3.13-.85,4.11-.55.96-1.52,1.44-2.91,1.44s-2.4-.48-2.97-1.44c-.55-.98-.82-2.35-.82-4.11ZM499.28,259.91c0-.86-.06-1.6-.18-2.2-.12-.61-.35-1.1-.71-1.47-.35-.37-.86-.56-1.53-.56s-1.2.19-1.56.56c-.35.37-.59.86-.71,1.47-.12.61-.18,1.34-.18,2.2,0,.9.06,1.67.18,2.29.12.61.35,1.1.71,1.47.35.37.87.56,1.56.56s1.18-.19,1.53-.56c.35-.37.59-.86.71-1.47.12-.63.18-1.39.18-2.29ZM510.16,257.09c.71,0,1.32.16,1.85.47.55.31.96.71,1.23,1.18v-1.53h1.38v8.43c0,.76-.17,1.43-.5,2-.31.59-.77,1.05-1.38,1.38-.59.33-1.27.5-2.06.5-1.1,0-2.01-.25-2.73-.76-.71-.51-1.13-1.2-1.26-2.09h1.35c.16.51.47.91.94,1.2.47.31,1.04.47,1.7.47.74,0,1.35-.24,1.82-.71.49-.47.73-1.14.73-2v-1.73c-.27.49-.69.9-1.23,1.23-.53.31-1.15.47-1.85.47s-1.39-.18-2-.53c-.59-.37-1.06-.88-1.41-1.53-.33-.67-.5-1.41-.5-2.23,0-.84.17-1.58.5-2.2.35-.65.82-1.15,1.41-1.5.61-.35,1.27-.53,2-.53ZM513.24,261.32c0-.63-.13-1.17-.38-1.62-.25-.47-.6-.82-1.03-1.06-.43-.25-.9-.38-1.41-.38s-.98.13-1.41.38c-.41.24-.74.59-1,1.06-.24.45-.35.99-.35,1.62,0,.63.12,1.18.35,1.65.25.47.59.83,1,1.09.43.24.9.35,1.41.35s.98-.12,1.41-.35c.43-.25.77-.62,1.03-1.09.25-.47.38-1.02.38-1.65Z"/>
      <path class="cls-5" d="M732.89,259.38v1.15h-5.99v-1.15h5.99ZM739.08,264.38c1.27-1.04,2.27-1.88,3-2.53.72-.67,1.33-1.35,1.82-2.06.51-.72.76-1.43.76-2.12,0-.65-.17-1.16-.5-1.53-.31-.39-.82-.59-1.53-.59-.67,0-1.2.22-1.59.65-.37.43-.57,1-.59,1.7h-1.32c.04-1.12.37-1.98,1-2.59.65-.63,1.48-.94,2.5-.94s1.86.29,2.47.88c.61.57.91,1.35.91,2.35,0,.82-.25,1.64-.76,2.44-.49.78-1.06,1.48-1.7,2.09-.63.59-1.43,1.27-2.41,2.06h5.17v1.15h-7.23v-.97ZM748.56,265.55c-.25,0-.47-.09-.65-.26s-.26-.4-.26-.68c0-.25.09-.47.26-.65s.39-.26.65-.26.47.09.65.26.26.39.26.65c0,.27-.09.5-.26.68s-.39.26-.65.26ZM757.77,255.65l-4.2,9.82h-1.38l4.26-9.67h-5.82v-1.18h7.14v1.03ZM766.92,257.09c.71,0,1.32.16,1.85.47.55.31.96.71,1.23,1.18v-1.53h1.38v8.43c0,.76-.17,1.43-.5,2-.31.59-.77,1.05-1.38,1.38-.59.33-1.27.5-2.06.5-1.1,0-2.01-.25-2.73-.76-.71-.51-1.13-1.2-1.26-2.09h1.35c.16.51.47.91.94,1.2.47.31,1.04.47,1.7.47.74,0,1.35-.24,1.82-.71.49-.47.73-1.14.73-2v-1.73c-.27.49-.69.9-1.23,1.23-.53.31-1.15.47-1.85.47s-1.39-.18-2-.53c-.59-.37-1.06-.88-1.41-1.53-.33-.67-.5-1.41-.5-2.23s.17-1.58.5-2.2c.35-.65.82-1.15,1.41-1.5.61-.35,1.27-.53,2-.53ZM770,261.32c0-.63-.13-1.17-.38-1.62-.25-.47-.6-.82-1.03-1.06-.43-.25-.9-.38-1.41-.38s-.98.13-1.41.38c-.41.24-.74.59-1,1.06-.24.45-.35.99-.35,1.62s.12,1.18.35,1.65c.25.47.59.83,1,1.09.43.24.9.35,1.41.35s.98-.12,1.41-.35c.43-.25.77-.62,1.03-1.09.25-.47.38-1.02.38-1.65Z"/>
    </g>
  </g>
</svg>