<?xml version="1.0" encoding="UTF-8"?>
<svg id="Capa_2" xmlns="http://www.w3.org/2000/svg" viewBox="0 0 633.89 662.58">
  <defs>
    <style>
      .cls-1 {
        fill: #fff;
      }

      .cls-1, .cls-2 {
        fill-rule: evenodd;
      }

      .cls-2 {
        fill: #00b050;
      }

      .cls-3 {
        fill: none;
        stroke: #595959;
        stroke-linejoin: round;
      }
    </style>
  </defs>
  <g id="Capa_1-2" data-name="Capa_1">
    <g>
      <path class="cls-2" d="M385.06,173.04h-.89l-.6.64h0v.96h.6l.89-.96h0v-.64h0ZM385.06,172.08h-.89v.96l.89-.96h.6-.6ZM359.13,159.87h.89v-.64h-1.49l.6.64h0ZM365.99,159.23h0v.64h1.49l.89-.64h0v-.96l-.89-.64-.6.64v.96h-.89v-.96h-.89l-.6.96h1.49ZM391.03,178.83l-1.49-1.61-.89-.96h-1.49v.96l-2.09-.96h0l-1.49.96h-.89l-.6.64-.89-.64h0l-.89-.96h2.38v-.64l.89-.96v-.96h0v-.64h.6v-.96h0l.89-.64.6-.96h-.6l-.89-.64-1.49-.96h0l-1.49-1.61h-1.49v.96h0v.64h0v-.64h0l-.89-.96-.6-.64h-.89v.64h-.6v.96h0l-.89-1.61v-1.93h-.6v.96h-.89v-1.61h0v-.96h-.89v-.64h3.28l.6-.96h1.49l.89-.64-2.38.64-2.98-.64h-2.98l-1.49.64h-4.77v.96h3.28v.64h-2.38l-4.47,2.57h-2.98l-.89-.96h-.89l-1.49-.64-.6-.96v-.64h0l-1.49-.96h-3.88l-1.49.96h-2.38l-1.49.64-1.49-.64h-.89l-.6-.96v-.64l.6-.96-.6-.64v-1.61l-1.49-.96-.89-.96h-1.49l-.6-.64h-2.38l-.89.64v-.64l-.6-.96v-3.21h0l-.89-.64-.6.64h-.89v3.21h2.38v1.61h-.89l-.6-.64h0l-.89.64h0l-2.09.96-1.79.96-2.98,1.61h-.6v.64l-.89.96v2.25l.89.96.6.64v1.93l.89.64v4.18l-.89.64h-.6v.96h-2.38v-.96l-.6-.64h0v-.96h0l-.89-.64v-.96l-.89-1.61.89-1.61.89-.96.6-.64.89-.96.6-1.61v-.64l-.6-.96v-.64h0l-.89-.96v-.64l-.6-1.93h0v-.64l.6-.96h0l2.38-.64h.6v-.96h0l-.6.96h-1.49l-1.49.64h0l-1.79,3.53-1.49.64h-.6v.96l-.89.64v.96l-1.49,1.61v2.25l-.6.96v2.57l-.89.64v.96l-.6.64-.89.96v.64h1.49v-.64l.89.64h0v.96l.6-.96v.96l.89,1.61v1.61l.6.96.89.64v2.57h0l-.89.64v3.53h0l.89.64h.6v.96l.89,1.61h.6v.64l.89-.64h2.38l1.49.64h.6l1.49-.64h2.38v.64h2.38l.6,1.61.89,1.61.6,1.93.89.64h.6l.89.96v-.96h6.86l.6-.64h2.38l.89.64h0v1.61l-.89.96-.6.64v1.61l-.89.96v3.21l-.89,1.61v1.61h.89v3.21l.89,1.61h0l.6.96h0l.89,1.61v.96h0l-.89,1.61-2.38,1.61v.64h1.79v.96h.6l.89.64v.96h.6v.96h0v1.61h.89v.64h0v1.61l.6.96v.64h0v2.57h0l1.49,1.61,1.49,1.61h2.38l.89-.64h.6l.89-.96h0l.6.96h0v1.61h0l.89-.96v-.64h.6l.89-.96v-.64h.89l.6-.96h.89l.6-.96h.89v-.64h1.49l.6-.96h0l.89-1.61v-.64h0l.6-.96h1.79l.6-.64h.89v-2.57h-3.88v-.96h0v-1.61l-.89-1.61v-3.86l-.6-.96-1.49-1.61-.89-.96h0l-.6-1.61h.6l.89.96h2.09l.89.64v.96h4.47l.89.64.6.96.89.96h.6v-.96l.89-1.61v-.96h.6l.89-.64h3.88l1.49-.96.6-.64v-.96h2.38l.89-.64v-.96h.6v-.64h.89v-.96h.6v-.96h-.6v-.64h0l-1.49-2.57-1.49-1.61-.89-1.61h0v-.64l.89-.96h.6v-2.57h0l-.6-.64h.6v-.96h1.49v-.64h0l.89.64.6-.64h0l1.49-.96h0v-1.61h-1.49v-.64h0v-1.61h0v-.96h0l.89-.96v-.64h1.49v-.96h.6l.89-.64v-.96h.89l.6-.64h0Z"/>
      <path class="cls-3" d="M385.06,173.04h-.89l-.6.64h0v.96h.6l.89-.96h0v-.64h0ZM385.06,172.08h-.89v.96l.89-.96h.6-.6ZM359.13,159.87h.89v-.64h-1.49l.6.64h0ZM365.99,159.23h0v.64h1.49l.89-.64h0v-.96l-.89-.64-.6.64v.96h-.89v-.96h-.89l-.6.96h1.49ZM391.03,178.83l-1.49-1.61-.89-.96h-1.49v.96l-2.09-.96h0l-1.49.96h-.89l-.6.64-.89-.64h0l-.89-.96h2.38v-.64l.89-.96v-.96h0v-.64h.6v-.96h0l.89-.64.6-.96h-.6l-.89-.64-1.49-.96h0l-1.49-1.61h-1.49v.96h0v.64h0v-.64h0l-.89-.96-.6-.64h-.89v.64h-.6v.96h0l-.89-1.61v-1.93h-.6v.96h-.89v-1.61h0v-.96h-.89v-.64h3.28l.6-.96h1.49l.89-.64-2.38.64-2.98-.64h-2.98l-1.49.64h-4.77v.96h3.28v.64h-2.38l-4.47,2.57h-2.98l-.89-.96h-.89l-1.49-.64-.6-.96v-.64h0l-1.49-.96h-3.88l-1.49.96h-2.38l-1.49.64-1.49-.64h-.89l-.6-.96v-.64l.6-.96-.6-.64v-1.61l-1.49-.96-.89-.96h-1.49l-.6-.64h-2.38l-.89.64v-.64l-.6-.96v-3.21h0l-.89-.64-.6.64h-.89v3.21h2.38v1.61h-.89l-.6-.64h0l-.89.64h0l-2.09.96-1.79.96-2.98,1.61h-.6v.64l-.89.96v2.25l.89.96.6.64v1.93l.89.64v4.18l-.89.64h-.6v.96h-2.38v-.96l-.6-.64h0v-.96h0l-.89-.64v-.96l-.89-1.61.89-1.61.89-.96.6-.64.89-.96.6-1.61v-.64l-.6-.96v-.64h0l-.89-.96v-.64l-.6-1.93h0v-.64l.6-.96h0l2.38-.64h.6v-.96h0l-.6.96h-1.49l-1.49.64h0l-1.79,3.53-1.49.64h-.6v.96l-.89.64v.96l-1.49,1.61v2.25l-.6.96v2.57l-.89.64v.96l-.6.64-.89.96v.64h1.49v-.64l.89.64h0v.96l.6-.96v.96l.89,1.61v1.61l.6.96.89.64v2.57h0l-.89.64v3.53h0l.89.64h.6v.96l.89,1.61h.6v.64l.89-.64h2.38l1.49.64h.6l1.49-.64h2.38v.64h2.38l.6,1.61.89,1.61.6,1.93.89.64h.6l.89.96v-.96h6.86l.6-.64h2.38l.89.64h0v1.61l-.89.96-.6.64v1.61l-.89.96v3.21l-.89,1.61v1.61h.89v3.21l.89,1.61h0l.6.96h0l.89,1.61v.96h0l-.89,1.61-2.38,1.61v.64h1.79v.96h.6l.89.64v.96h.6v.96h0v1.61h.89v.64h0v1.61l.6.96v.64h0v2.57h0l1.49,1.61,1.49,1.61h2.38l.89-.64h.6l.89-.96h0l.6.96h0v1.61h0l.89-.96v-.64h.6l.89-.96v-.64h.89l.6-.96h.89l.6-.96h.89v-.64h1.49l.6-.96h0l.89-1.61v-.64h0l.6-.96h1.79l.6-.64h.89v-2.57h-3.88v-.96h0v-1.61l-.89-1.61v-3.86l-.6-.96-1.49-1.61-.89-.96h0l-.6-1.61h.6l.89.96h2.09l.89.64v.96h4.47l.89.64.6.96.89.96h.6v-.96l.89-1.61v-.96h.6l.89-.64h3.88l1.49-.96.6-.64v-.96h2.38l.89-.64v-.96h.6v-.64h.89v-.96h.6v-.96h-.6v-.64h0l-1.49-2.57-1.49-1.61-.89-1.61h0v-.64l.89-.96h.6v-2.57h0l-.6-.64h.6v-.96h1.49v-.64h0l.89.64.6-.64h0l1.49-.96h0v-1.61h-1.49v-.64h0v-1.61h0v-.96h0l.89-.96v-.64h1.49v-.96h.6l.89-.64v-.96h.89l.6-.64h0Z"/>
      <path class="cls-2" d="M447.97,485.36h-.6v-.96h0v-.64l-.89-2.57h0l.89-.64h0l.6-.96v-.64l.89-.96h-.89v-.96h-.6l-1.49-.64-.89-.96v-.64l-.6-.96h0v-.64h-.89l-.89-.96h-.6l-.89-.64-.6-.96-.89-.64h-.6l-.89-.96-1.49-.96-.89-.64-.6.64v-.64h-.89v-.96h-.6v-.64l-.89-.96h-.6v-.64.64h-.89v.96h-1.49v-1.61h-.6v-.96l-.89-.64-1.49-.96-2.38-1.61-.6-.96h-1.49v.96h-3.28v.96h0l-.6.64v.96l.6.64v1.61h0v.96h0v1.61h0l-.6.64v.96l.6.96h0v1.61h0l-.6.64h0v.96h.6v.64h0v2.57l.89.64v.96l.89,1.61h0v.96l-.89.64h-.89v2.57l.89,1.61v1.61l1.49.96,1.49,1.61.89.64v.96h4.47l1.49,1.61h2.98v.64l.89.96h.6l1.49-.96.89-.64,2.38.64.6.96h1.49l3.28-1.61h.6l.89-1.61,1.49-.96v-.64l.6-1.61v-1.93h0l.89-.64h-.89Z"/>
      <path class="cls-3" d="M447.97,485.36h-.6v-.96h0v-.64l-.89-2.57h0l.89-.64h0l.6-.96v-.64l.89-.96h-.89v-.96h-.6l-1.49-.64-.89-.96v-.64l-.6-.96h0v-.64h-.89l-.89-.96h-.6l-.89-.64-.6-.96-.89-.64h-.6l-.89-.96-1.49-.96-.89-.64-.6.64v-.64h-.89v-.96h-.6v-.64l-.89-.96h-.6v-.64.64h-.89v.96h-1.49v-1.61h-.6v-.96l-.89-.64-1.49-.96-2.38-1.61-.6-.96h-1.49v.96h-3.28v.96h0l-.6.64v.96l.6.64v1.61h0v.96h0v1.61h0l-.6.64v.96l.6.96h0v1.61h0l-.6.64h0v.96h.6v.64h0v2.57l.89.64v.96l.89,1.61h0v.96l-.89.64h-.89v2.57l.89,1.61v1.61l1.49.96,1.49,1.61.89.64v.96h4.47l1.49,1.61h2.98v.64l.89.96h.6l1.49-.96.89-.64,2.38.64.6.96h1.49l3.28-1.61h.6l.89-1.61,1.49-.96v-.64l.6-1.61v-1.93h0l.89-.64h-.89Z"/>
      <path class="cls-1" d="M366.88,110.07l-.89-.96h0l-.89.96h2.38-.6ZM366.88,105.25h.6-.6ZM365.99,105.25h-.89.89Z"/>
      <path class="cls-3" d="M366.88,110.07l-.89-.96h0l-.89.96h2.38-.6ZM366.88,105.25h.6-.6ZM365.99,105.25h-.89.89Z"/>
      <path class="cls-1" d="M325.74,79.86h-.89v.64h.89v-.64h0ZM328.72,79.86h-.6.6v.64h0v-.64ZM327.23,78.9h0v.96h.89-.89v-.96Z"/>
      <path class="cls-3" d="M325.74,79.86h-.89v.64h.89v-.64h0ZM328.72,79.86h-.6.6v.64h0v-.64ZM327.23,78.9h0v.96h.89-.89v-.96Z"/>
      <path class="cls-1" d="M385.06,159.87h-.89l-.6.96h-2.38v.64h.89v2.57h-.89l-.89.64h0l-1.49.96h5.37v-1.61h.89l-.89-.96v-.64h0v-.96l.89-.64v-.96ZM387.15,156.66h-.6l-.89.96h.89l1.49-.96h-.89Z"/>
      <path class="cls-3" d="M385.06,159.87h-.89l-.6.96h-2.38v.64h.89v2.57h-.89l-.89.64h0l-1.49.96h5.37v-1.61h.89l-.89-.96v-.64h0v-.96l.89-.64v-.96ZM387.15,156.66h-.6l-.89.96h.89l1.49-.96h-.89Z"/>
      <path class="cls-1" d="M423.82,200.68l.6-.64v-1.61l.89-.96-.89-.64h0l-1.49-.96h-8.94v1.61-.64l-2.38-.96h-4.47l-.89.96v2.25-.64l-.6.64h0v.96h0v.64h0v.96h0v.64h-3.28v.96h-.6v.96h0v.64h0v1.61h0l-.89.96v1.61h-.6l.6.64.89,1.61h0v.96l.6.96.89.64h-.89l.89.96h1.49v1.61h.89v.64h0v.96h0v.64h.6v.96h0v.64h.89v.96h0v.96h0l.6.64h0v.96l.89.64h.6v.96h1.49l1.49.64.89-.64h0v-.96h0v-.64h-.89v-.96h-.6v-.64h.6v-.96h.89l.89.96.6-.96h2.38l.6-.96h1.49v.96h.89l.89.96h.6v-.96h.89l.6-1.61.89-.96v-2.25h0l.6-1.61v-.96h0v-.64h0v-.96l-.6-.96h0l-.89-.64v-1.61h-.6v-2.57h0v-1.61h0v-1.61h0v-.96l.6-.64.89-.96Z"/>
      <path class="cls-3" d="M423.82,200.68l.6-.64v-1.61l.89-.96-.89-.64h0l-1.49-.96h-8.94v1.61-.64l-2.38-.96h-4.47l-.89.96v2.25-.64l-.6.64h0v.96h0v.64h0v.96h0v.64h-3.28v.96h-.6v.96h0v.64h0v1.61h0l-.89.96v1.61h-.6l.6.64.89,1.61h0v.96l.6.96.89.64h-.89l.89.96h1.49v1.61h.89v.64h0v.96h0v.64h.6v.96h0v.64h.89v.96h0v.96h0l.6.64h0v.96l.89.64h.6v.96h1.49l1.49.64.89-.64h0v-.96h0v-.64h-.89v-.96h-.6v-.64h.6v-.96h.89l.89.96.6-.96h2.38l.6-.96h1.49v.96h.89l.89.96h.6v-.96h.89l.6-1.61.89-.96v-2.25h0l.6-1.61v-.96h0v-.64h0v-.96l-.6-.96h0l-.89-.64v-1.61h-.6v-2.57h0v-1.61h0v-1.61h0v-.96l.6-.64.89-.96Z"/>
      <path class="cls-1" d="M383.57,146.05h0v.64h0v-.64h0ZM384.17,144.45h0v-.96.96h0ZM385.06,141.88h-.89v1.61h.89v-1.61h0Z"/>
      <path class="cls-3" d="M383.57,146.05h0v.64h0v-.64h0ZM384.17,144.45h0v-.96.96h0ZM385.06,141.88h-.89v1.61h.89v-1.61h0Z"/>
      <path class="cls-3" d="M376.72,106.85h0v.64h0v-.64h0Z"/>
      <path class="cls-3" d="M376.72,107.5h-.89.89Z"/>
      <path class="cls-1" d="M386.56,136.09h0v.96l-.89.64h0v.96l.89.96v-.96l.6-1.61-.6-.96Z"/>
      <path class="cls-3" d="M386.56,136.09h0v.96l-.89.64h0v.96l.89.96v-.96l.6-1.61-.6-.96Z"/>
      <path class="cls-1" d="M378.8,113.28h0v.96h0v-.96ZM378.8,113.28h-.6v-.64h-.89v.64h1.49Z"/>
      <path class="cls-3" d="M378.8,113.28h0v.96h0v-.96ZM378.8,113.28h-.6v-.64h-.89v.64h1.49Z"/>
      <path class="cls-3" d="M376.72,111.67h0ZM375.23,110.07h0v.96h0v-.96h0Z"/>
      <path class="cls-3" d="M377.31,108.46h.89-.89Z"/>
      <path class="cls-1" d="M633.39,661.11h-1.49.89l.6.96v-.96ZM578.84,635.09h-1.49v-.96l-.89-.96h0l-.89-.64h0v.64h-.6v-.64h-.89l-.6-.96h-2.38v-.64h-4.47,2.09v.64h.89l2.38.96v.64h1.49l.6.96h1.49v.96l.89.64.89.96h1.49l.6-.96h-.6v-.64Z"/>
      <path class="cls-3" d="M633.39,661.11h-1.49.89l.6.96v-.96ZM578.84,635.09h-1.49v-.96l-.89-.96h0l-.89-.64h0v.64h-.6v-.64h-.89l-.6-.96h-2.38v-.64h-4.47,2.09v.64h.89l2.38.96v.64h1.49l.6.96h1.49v.96l.89.64.89.96h1.49l.6-.96h-.6v-.64Z"/>
      <path class="cls-1" d="M348.4,106.85h-.6v.64h.6v-.64h0ZM363.6,106.85h-1.49,1.49ZM360.02,104.28h-.89v.96-.96h-6.86v.96h0v.64h0v2.57h2.38v-.96l.6.96.89-.96.6.96h2.38l.89-.96.6-.64h0l.89-.96v-.64h-.89l-.6-.96Z"/>
      <path class="cls-3" d="M348.4,106.85h-.6v.64h.6v-.64h0ZM363.6,106.85h-1.49,1.49ZM360.02,104.28h-.89v.96-.96h-6.86v.96h0v.64h0v2.57h2.38v-.96l.6.96.89-.96.6.96h2.38l.89-.96.6-.64h0l.89-.96v-.64h-.89l-.6-.96Z"/>
      <path class="cls-3" d="M.5,417.56v-.96h0v.96h0Z"/>
      <path class="cls-2" d="M340.94,358.76v-.96h-1.49l-.89-.96-.6-2.25-.89-.96v-.64l.89-.96v-.64l.6-.96h0l-1.49-1.61h0v-1.61h.89v-1.61h0l.6-.96h0v-1.61h.89v-1.61h-.89v-1.61l-.6-.96h0l.6-.64h0v-.96l-.6-3.21v-.64h.6v-.96h.89v-.64h0v-.96h0l-.89-1.61-.6-1.61-.89-1.61-.6-1.61-.89-.96-.6-1.61v-.96l-1.79-1.61h-2.09l-.89.96h-1.49v-.96h-1.49v-9h0v-1.61h0v-.64.64h-1.49v.96h0l-.89.64-.6.96h0l-.89.64h-5.96l.6-.64-.6-.96h0l-.89-.64v-.96h-.6l-.89-.64h-3.58l.6-.96.89-1.61v-.64l-.89-.96h0l-.6-.96-.89-.64h0v-.96h-.89v-.64h-.6v-.96h0l-.89-.64h0v-.96h0l-.6-.64h0v-.96h0v-.64h0l-.89-.96h-.6v-.96h0v-.64h1.49v-.96h0v-.64h-.89v-.96l.89-.64h0v-.96l1.49-.64.6-.96h.89v-.64h0v-.96h0v-1.61l-.89-.96h.89v-.64l.89-.96v-1.61h0v-.64l.6-1.61v-.96h0l.89-.64h.6l.89-.96.6-.96.89-.64.6-.96h.89l.6-.64h3.28l.6-.96h1.49v-.64h.89v-.96h2.98v.96h.89l.6.64h0l.89-.64h0l-.89-.96h0l-.6-.64h0l-.89-.96v-.64h-.89l-.6.64h0l-.89-.64h-.6l.6-1.93,1.49-2.25.89-.96.89-1.61v-.64l.6-.96h-.6l-.89-.64h-.89v-.96h-1.49l-.6-.96-.89-.64h-1.49l-.6.64h-.89l-.6-.64h-.89l-.89-.96h0l-.6.96h0l-.89.64h-1.49v.96h-.6l-.89-.96h-.6l-.89.96h-.6v-.96h-.89l-.89-.64h0v-.96h0v-2.25h-1.49l-.6-.96h0v-1.61h0l-.89-.64v-.96h-1.49v-.96h-.6v-.64h-1.79v-.96h0v-.64h-.6v-1.61h0l-.89-.96h0l-.6-.64h-.89v-.96h-.6l-.89-.64h0l-.6-.96h-.89v.96h-2.38l.89.64h0l.89.96v.64l.6.96h0v.64h0v2.57h0l-.6-.96h0v1.61l-.89,1.93v1.61h-.89v.64l-1.49,1.61-.6,1.61-.89.96-.6.64-.89.96-1.49.96-.6.64h-1.79l-1.49.96-.6.64h-.89l-1.49.96h-.6v1.61h-.89v.64h0v.96h-.89v-.96h-.6v2.57h0v.96h0l-.89.64h0v.96h0v.64l-.6.96v.64h0v.96h0v.64h0l-.89.96h-.6v.64h0v.96h-.89v.96l-.6-.96h-.89v-.96h-.6v-.64l-.89-.96v-.64h-1.49l-.89-.96h-.6l-.89-.64v.64h-.6v.96h-.89v-.96h0l.89-.64h-.89v-.96h0v-.64h.89v-.96h.6v-1.61h0v-.96h-.6v-.64h0v-.96h0l-1.49.96-.89,1.61h-.6l-.89,1.61-1.49,2.57-.89.64v2.57l.89.64v.96l.6.96v.64h0l1.79,2.57v2.25h-1.79v1.61l.89.96,1.49.64,4.47,2.57.89.96v1.61l1.49.64.89,1.61v.96l1.49,3.21v.96l1.49.64.6.96.89,1.61.6,1.61v.64l.89,1.93.6,1.61.89,1.61.89,1.61.6,1.61v1.61l.89,1.61,2.09,4.18.89.64v1.61l.6.96,1.79,1.61.6.96.89,1.61v1.61h.6v.64h0l1.49.96v1.61l.89,1.61.6.96.89.64v.96l1.49,1.61.89,1.61-.89,1.61h0l-.89.96.89.64v.96l.89.64.6.96.89.64v1.61l1.49.96,1.49.64.6,1.93.89.64.6.96.89.64,2.98,1.61,1.49.96,1.49.64,1.79,1.61.6.96,2.38.96h.6l1.49,1.61h1.49l1.79.64.6.96.89.64,1.49.96h.6l.89.64v.96h1.49l.6.64v.96l.89.64v.96l2.38,1.61h.6l.89.96,1.49,1.61.6.64h1.79l.6-.64h.89v-.96l.6-.64-.6-.96v-1.61h.6l.89-.96v-.64h0v-.96h0l-.89-.64h0l.89-.96h0l.6-.64h0l.89-.96v-1.61h.6v-1.61h0l.89-.64h0Z"/>
      <path class="cls-3" d="M340.94,358.76v-.96h-1.49l-.89-.96-.6-2.25-.89-.96v-.64l.89-.96v-.64l.6-.96h0l-1.49-1.61h0v-1.61h.89v-1.61h0l.6-.96h0v-1.61h.89v-1.61h-.89v-1.61l-.6-.96h0l.6-.64h0v-.96l-.6-3.21v-.64h.6v-.96h.89v-.64h0v-.96h0l-.89-1.61-.6-1.61-.89-1.61-.6-1.61-.89-.96-.6-1.61v-.96l-1.79-1.61h-2.09l-.89.96h-1.49v-.96h-1.49v-9h0v-1.61h0v-.64.64h-1.49v.96h0l-.89.64-.6.96h0l-.89.64h-5.96l.6-.64-.6-.96h0l-.89-.64v-.96h-.6l-.89-.64h-3.58l.6-.96.89-1.61v-.64l-.89-.96h0l-.6-.96-.89-.64h0v-.96h-.89v-.64h-.6v-.96h0l-.89-.64h0v-.96h0l-.6-.64h0v-.96h0v-.64h0l-.89-.96h-.6v-.96h0v-.64h1.49v-.96h0v-.64h-.89v-.96l.89-.64h0v-.96l1.49-.64.6-.96h.89v-.64h0v-.96h0v-1.61l-.89-.96h.89v-.64l.89-.96v-1.61h0v-.64l.6-1.61v-.96h0l.89-.64h.6l.89-.96.6-.96.89-.64.6-.96h.89l.6-.64h3.28l.6-.96h1.49v-.64h.89v-.96h2.98v.96h.89l.6.64h0l.89-.64h0l-.89-.96h0l-.6-.64h0l-.89-.96v-.64h-.89l-.6.64h0l-.89-.64h-.6l.6-1.93,1.49-2.25.89-.96.89-1.61v-.64l.6-.96h-.6l-.89-.64h-.89v-.96h-1.49l-.6-.96-.89-.64h-1.49l-.6.64h-.89l-.6-.64h-.89l-.89-.96h0l-.6.96h0l-.89.64h-1.49v.96h-.6l-.89-.96h-.6l-.89.96h-.6v-.96h-.89l-.89-.64h0v-.96h0v-2.25h-1.49l-.6-.96h0v-1.61h0l-.89-.64v-.96h-1.49v-.96h-.6v-.64h-1.79v-.96h0v-.64h-.6v-1.61h0l-.89-.96h0l-.6-.64h-.89v-.96h-.6l-.89-.64h0l-.6-.96h-.89v.96h-2.38l.89.64h0l.89.96v.64l.6.96h0v.64h0v2.57h0l-.6-.96h0v1.61l-.89,1.93v1.61h-.89v.64l-1.49,1.61-.6,1.61-.89.96-.6.64-.89.96-1.49.96-.6.64h-1.79l-1.49.96-.6.64h-.89l-1.49.96h-.6v1.61h-.89v.64h0v.96h-.89v-.96h-.6v2.57h0v.96h0l-.89.64h0v.96h0v.64l-.6.96v.64h0v.96h0v.64h0l-.89.96h-.6v.64h0v.96h-.89v.96l-.6-.96h-.89v-.96h-.6v-.64l-.89-.96v-.64h-1.49l-.89-.96h-.6l-.89-.64v.64h-.6v.96h-.89v-.96h0l.89-.64h-.89v-.96h0v-.64h.89v-.96h.6v-1.61h0v-.96h-.6v-.64h0v-.96h0l-1.49.96-.89,1.61h-.6l-.89,1.61-1.49,2.57-.89.64v2.57l.89.64v.96l.6.96v.64h0l1.79,2.57v2.25h-1.79v1.61l.89.96,1.49.64,4.47,2.57.89.96v1.61l1.49.64.89,1.61v.96l1.49,3.21v.96l1.49.64.6.96.89,1.61.6,1.61v.64l.89,1.93.6,1.61.89,1.61.89,1.61.6,1.61v1.61l.89,1.61,2.09,4.18.89.64v1.61l.6.96,1.79,1.61.6.96.89,1.61v1.61h.6v.64h0l1.49.96v1.61l.89,1.61.6.96.89.64v.96l1.49,1.61.89,1.61-.89,1.61h0l-.89.96.89.64v.96l.89.64.6.96.89.64v1.61l1.49.96,1.49.64.6,1.93.89.64.6.96.89.64,2.98,1.61,1.49.96,1.49.64,1.79,1.61.6.96,2.38.96h.6l1.49,1.61h1.49l1.79.64.6.96.89.64,1.49.96h.6l.89.64v.96h1.49l.6.64v.96l.89.64v.96l2.38,1.61h.6l.89.96,1.49,1.61.6.64h1.79l.6-.64h.89v-.96l.6-.64-.6-.96v-1.61h.6l.89-.96v-.64h0v-.96h0l-.89-.64h0l.89-.96h0l.6-.64h0l.89-.96v-1.61h.6v-1.61h0l.89-.64h0Z"/>
      <path class="cls-1" d="M432.17,414.99h.6l-.6-.64-.89-.96h-2.09v.96h-3.28l-.6-.96v-.96h0v-.64h-.89v-1.61h0v-.96h0v-.64l-.6-.96h0v-1.61h0v-1.61h-.89v-1.61h-.6v-.96h-2.38l-.89-.64h0l-.6-.96h-.89v.96h0v.64h-2.09l-.89-.64h-2.98l-.89-.96h0l-.6.96h0l-.89-.96h0v-.64h0v-.96h0v-.64h0v-.96h0v-.64h0v-.96h0v-.96h0v-.64h0v-1.61h0v-.96h-.6l.6-.64h-.6v-.96h0l-.89-.64h0v-.96h0l-.6-.64h0v-3.53h0l-2.38-1.61-1.49-.64-2.38-1.61h-5.37l-2.98.64-2.09.96h-.89l-2.98.64h-.89l-.6,1.61v1.61l-.89.96-.6,1.61-.89,1.61.89,1.61v1.61l-.89,2.57v4.18l-.6,1.61v.64h.6v.96h1.49l.89,1.61.6,1.61,1.49,1.61.89.96.6.64h.89v.96h.89l1.49.64.6.96v.64l1.49.96,2.38.96h2.38l1.49.64,1.49,1.61.6.96h.89l.6.64,3.28,1.61,1.49.96h.6v.64h1.49l.89.96h1.49l.89,1.61.6.96h0v1.61h-.6v.64h0l-.89.96v.64h0v.96h-.89v.64h0l-.6.96h0v.96h0l.6.64v.96h-.6v.64h0v.96h-.89v.64h0v.96h-.6v1.61h4.47l2.98.64h3.28l.6.96.89-.96h.6v.96h.89v-.96l.6-.64h1.49l.89.64h.6v-.64h0v-1.61h.89v-.96h1.49v-.64h.89v-.96h.6v-.64h0l.89-.96v-9.64l.6-.96h-.6v-1.61l.6-2.57v-1.61l-.6-.64v-.96Z"/>
      <path class="cls-3" d="M432.17,414.99h.6l-.6-.64-.89-.96h-2.09v.96h-3.28l-.6-.96v-.96h0v-.64h-.89v-1.61h0v-.96h0v-.64l-.6-.96h0v-1.61h0v-1.61h-.89v-1.61h-.6v-.96h-2.38l-.89-.64h0l-.6-.96h-.89v.96h0v.64h-2.09l-.89-.64h-2.98l-.89-.96h0l-.6.96h0l-.89-.96h0v-.64h0v-.96h0v-.64h0v-.96h0v-.64h0v-.96h0v-.96h0v-.64h0v-1.61h0v-.96h-.6l.6-.64h-.6v-.96h0l-.89-.64h0v-.96h0l-.6-.64h0v-3.53h0l-2.38-1.61-1.49-.64-2.38-1.61h-5.37l-2.98.64-2.09.96h-.89l-2.98.64h-.89l-.6,1.61v1.61l-.89.96-.6,1.61-.89,1.61.89,1.61v1.61l-.89,2.57v4.18l-.6,1.61v.64h.6v.96h1.49l.89,1.61.6,1.61,1.49,1.61.89.96.6.64h.89v.96h.89l1.49.64.6.96v.64l1.49.96,2.38.96h2.38l1.49.64,1.49,1.61.6.96h.89l.6.64,3.28,1.61,1.49.96h.6v.64h1.49l.89.96h1.49l.89,1.61.6.96h0v1.61h-.6v.64h0l-.89.96v.64h0v.96h-.89v.64h0l-.6.96h0v.96h0l.6.64v.96h-.6v.64h0v.96h-.89v.64h0v.96h-.6v1.61h4.47l2.98.64h3.28l.6.96.89-.96h.6v.96h.89v-.96l.6-.64h1.49l.89.64h.6v-.64h0v-1.61h.89v-.96h1.49v-.64h.89v-.96h.6v-.64h0l.89-.96v-9.64l.6-.96h-.6v-1.61l.6-2.57v-1.61l-.6-.64v-.96Z"/>
      <path class="cls-1" d="M259.56,185.25v-.64h.89l-.89-.96h0l-.6.96h0l.6.64.89.96h0v-.96h-.89ZM275.66,178.83h0v.64l.6-.64h-.6ZM277.15,177.22v.64h-.89v.96l.89.64v-.64h0v-.96h0v-.64ZM257.47,170.47h0v.96-.96ZM286.99,180.43v-.96l-.89-.64v-.96h0l-.6-.64h0l.6-.96h0l-1.49-1.61-.6-1.61-1.49-.96-2.38-1.61h-2.98v-.64h-2.38l-1.49-.96v.96h-.6l-.89.64h-.89v.96l-.6.64-2.98.96h-.89l-.6,1.61h-1.49l-.89.96h-.89l-1.49-.96-.6-.96-.89-.64h0v-.96.96h0l.89.64h-2.38l-.6-.64v-.96h-.89v-1.61h0l-.89-.64h-1.49v-.96.96h-.6v1.61l-.89,1.61h.89l.6.64h0v.96h-.6l-.89.96.89.64v.96h0v.64h-.89l-.6.96h.6v.64h0v.96h.89v-1.61h3.88v.64h2.98v.96h0l.6,2.25.89.96h.6l.89-1.61h0l.89-.96v1.61l.6,2.57v1.61h.89l1.49-.64h.6v-.96h1.49v-.64h.89v-.96h-.89l-.6-1.61-.89-.96v-.64h-.6v-.96h.6v-.64h1.49v-.96l2.38-1.61h0v-.64h.89v-.96h.6v-.96h.89l.6-.64,1.49.64h.89l.6.96h0l.89.96h0l.6.64v1.61h.89v-.64h0l.89.64h.6v-.64l.89.64v.96l.6.64h.89-1.49v-.64l-.89-.96h0v.96h-.6v1.61h-1.79l.89.64.89,3.53,1.49,1.61h0l.6-.96v-.64h.89l-.89-.96.89-.96h0v.96h.6v.96-.96l1.49-.96h0v-1.61h.89v-.64Z"/>
      <path class="cls-3" d="M259.56,185.25v-.64h.89l-.89-.96h0l-.6.96h0l.6.64.89.96h0v-.96h-.89ZM275.66,178.83h0v.64l.6-.64h-.6ZM277.15,177.22v.64h-.89v.96l.89.64v-.64h0v-.96h0v-.64ZM257.47,170.47h0v.96-.96ZM286.99,180.43v-.96l-.89-.64v-.96h0l-.6-.64h0l.6-.96h0l-1.49-1.61-.6-1.61-1.49-.96-2.38-1.61h-2.98v-.64h-2.38l-1.49-.96v.96h-.6l-.89.64h-.89v.96l-.6.64-2.98.96h-.89l-.6,1.61h-1.49l-.89.96h-.89l-1.49-.96-.6-.96-.89-.64h0v-.96.96h0l.89.64h-2.38l-.6-.64v-.96h-.89v-1.61h0l-.89-.64h-1.49v-.96.96h-.6v1.61l-.89,1.61h.89l.6.64h0v.96h-.6l-.89.96.89.64v.96h0v.64h-.89l-.6.96h.6v.64h0v.96h.89v-1.61h3.88v.64h2.98v.96h0l.6,2.25.89.96h.6l.89-1.61h0l.89-.96v1.61l.6,2.57v1.61h.89l1.49-.64h.6v-.96h1.49v-.64h.89v-.96h-.89l-.6-1.61-.89-.96v-.64h-.6v-.96h.6v-.64h1.49v-.96l2.38-1.61h0v-.64h.89v-.96h.6v-.96h.89l.6-.64,1.49.64h.89l.6.96h0l.89.96h0l.6.64v1.61h.89v-.64h0l.89.64h.6v-.64l.89.64v.96l.6.64h.89-1.49v-.64l-.89-.96h0v.96h-.6v1.61h-1.79l.89.64.89,3.53,1.49,1.61h0l.6-.96v-.64h.89l-.89-.96.89-.96h0v.96h.6v.96-.96l1.49-.96h0v-1.61h.89v-.64Z"/>
      <path class="cls-2" d="M253.6,129.67h-.89v.96h-.6l-.89.64h-1.49v.96h-.6v-.96h-.89v.96h-2.38l-.6-.96h-.89l-.6.96h0v.64h-.89v1.61h-.6l-.89.96-.6.64-.89.96h0l-.89.64h0l-1.49-.64h-.6l-.89.64-.6.96h-2.38v.96h0v2.25h-.89v.96h-.6v.64h0l-.89.96h-1.49l-.6.64h0v-.64h-1.49v.64l1.49.96,1.49,1.61v.96l1.49,1.61h.6v1.61l1.79,1.61,2.09,3.21.89.96.6.64h0l.89-.64h0l1.49.64h.89l1.49.96h.6l.89-.96h0l1.49.96h.6v.64h.89v.96h2.38l.6-.96h0v-.64h-.6v-2.57h0v-1.61h.6l.89-.96v-.64l-.89-.96h-.6.6v-1.61h0v.96h.89v-2.57h0v-.64l-.89-.96h.89l.6-.96h0v.96h-.6v.96h.6v-.96h0l.89-3.21v-2.57l.6-3.21v-1.61h.89l.6-.96v-4.82h-.6v-.64h.6v.64h0l.89-.64v-.96h-1.49Z"/>
      <path class="cls-3" d="M253.6,129.67h-.89v.96h-.6l-.89.64h-1.49v.96h-.6v-.96h-.89v.96h-2.38l-.6-.96h-.89l-.6.96h0v.64h-.89v1.61h-.6l-.89.96-.6.64-.89.96h0l-.89.64h0l-1.49-.64h-.6l-.89.64-.6.96h-2.38v.96h0v2.25h-.89v.96h-.6v.64h0l-.89.96h-1.49l-.6.64h0v-.64h-1.49v.64l1.49.96,1.49,1.61v.96l1.49,1.61h.6v1.61l1.79,1.61,2.09,3.21.89.96.6.64h0l.89-.64h0l1.49.64h.89l1.49.96h.6l.89-.96h0l1.49.96h.6v.64h.89v.96h2.38l.6-.96h0v-.64h-.6v-2.57h0v-1.61h.6l.89-.96v-.64l-.89-.96h-.6.6v-1.61h0v.96h.89v-2.57h0v-.64l-.89-.96h.89l.6-.96h0v.96h-.6v.96h.6v-.96h0l.89-3.21v-2.57l.6-3.21v-1.61h.89l.6-.96v-4.82h-.6v-.64h.6v.64h0l.89-.64v-.96h-1.49Z"/>
      <path class="cls-1" d="M381.19,116.49h-.89v.96h.89v-.96Z"/>
      <path class="cls-3" d="M381.19,116.49h-.89v.96h.89v-.96Z"/>
      <path class="cls-1" d="M207.99,102.68h1.49l-.89-.64h0l-1.49.64h.89ZM94.7,102.03h-.6l.6.64h0v-.64h0ZM238.39,88.86v.64h-.89v1.61h0l.89-1.61h.6v-.64h-.6ZM239.88,84.04h0v.64h0v-.64ZM124.51,81.47l-.89-.96h0v1.61h0l.89-.64h0ZM107.82,61.87v.64h.6l-.6-.64h0ZM96.19,60.26h0l.89,1.61.6-.96-.6-.64h-.89ZM104.54,56.09h0v1.61h.89v-.64l-.89-.96h0ZM95.6,59.3v-.64h0v-.96h0l.6-2.57v-.64l-.6,2.57-.89,1.61h.89v1.61h0v-.96ZM103.05,48.7v.96l-.6.64h.6v-.64h.89v-.96h-.89ZM84.27,32.31h0l-.89.96-.89.64.89.96.89-.96v-1.61ZM68.17,26.53v-.64h-.89v.64h0v1.93h.89v-1.93h0ZM103.05,25.88h-.6l-.89.64-.6,1.93h0l.6.64h.89l.6-1.61v-1.61h0ZM97.09,24.28l-.89-.96h0v.96h-.6l.6.64.89,1.61.6.96h0v-2.57h-.6v-.64h0ZM94.7,6.93v.96h0v-.96h0ZM238.99,84.04l.89-.96-.89-.96-.6-.64h-1.49l-.89.64h1.49l-.6.96-.89-.96h-2.09l-.89-.64h-2.98l-.89.64-.6.96h-.89l-5.96.96h0l-2.38.64-.6.96-.89,2.25h0l-.89.96v2.25l-.6,1.93v.64h0l-.89.96-.6.64v2.57l-1.49,1.61-.89.64h-.6l-2.38.96v.96h0l.89-.96h0v.96h0v1.61h-.89l-.89.64h-2.09v-.64h.6l-.6-.96h-2.98l-1.49.96h0v.64h-.89l-1.49.96-.89-.96h-2.09l-.89.96-.6.64-2.38.96h-2.38v-1.61l-.6-.96-1.49-.64-.89-.96h-2.38l-.6-.64h0l.6.64h-1.49v-.64h.89l-.89-.96-.6-.96v-.64h0l-1.49-1.61v-3.21l-1.49-2.57-1.49-3.21-.89-.96.89-.64-.89-1.61-.89-2.57h0v-.96h-.6v-3.86l.6,2.25.89.96h0v.64h0l-.89.96.89.96v-.96h0l.89-.96-.89-.64v-.96l-.89-.64-.6-1.61v-3.21h0v-.96l.6-.96v-1.61l.89-2.25.89-3.21h0v-1.93l.6-3.21,2.38-3.86.6-1.93,1.49-2.25.89-1.61v-1.61h-.89v.64h-.6l-.89-.64h-.6l-2.38-.96h-.6l-.89-.64h-.89l-.6-.96h0l-.89-.96h-1.49v-.64h0v-2.57l-.6-.64v-.96h0v-.64h0v-.96h0l.6-.64h0v-.96l-.6-.96-.89-.64v-.96l-.6-.64v-1.61h-.89v-1.61h0l-.89-.96v-4.18l-.6-.64-.89-.96h0v-.64h0l-1.49-1.61v-.96h-4.47v-.64h-.89l-.6.64h-.89l-1.49.96-.6,1.61-.89.64v.96h0l-.6.64-.89.96h-.6l-.89-.96-1.49-.64-.89-.96h-1.49v-.64l-.6-.96h0l-.89-.64v-5.78l-.6-.96v-.64h0l-1.79-.96-.6-1.61-.89-1.61-.6-.64-.89-.96-.6-.96v-1.61h-10.73v1.61l-.6.96v.96h-16.99l-2.09-.96-2.38-.96-2.09-1.61-2.38-.64-2.38-.96-2.09-.64-2.38-1.61-2.38-.96v-.64l.89-.96h-2.38l-1.49.96h-8.35l-1.49.64v3.21l.89,1.61v.96h-.89v1.61l.89.96v3.21l.6.64v.96l-.6.64v.96l.6.64h0v1.93l-.6,1.61h.6v1.61l1.49.64.89.96.6.64h0v.96l.89.64,1.49,2.57.6,1.61v.96l-.6,1.61-.89,1.61-.6.64h.6v.96h0v.64h-.6l-.89-.64.89-.96h-.89l-.6.96h-1.49l-1.49-.96v.96h0l.6.64.89.96.6.96v.64h0v.96l.89.64h.6l.89.96h.6v.64l.89.96h2.38l.6-.96v-.64,1.61h0v1.61l1.49,1.61h.89l.6.96.89,2.25v2.57h0v1.61l-.89,1.61v1.61l.89,1.61h0v.96h.6l.89.64.6.96,1.79,1.61.6.64.89.96.6.96.89.64.6.96v3.86l.89.96h.6v-.96h.89l.89-.64.6-.96h.89v-3.21h-.89v-.64l-.6-.96v-1.61h-.89v-.96l-.89-.64h-.6v1.61h-.89v-.96h-.6v-.64l-.89-2.57h.89v-2.25l-.89-.96v-3.21h-.6v-7.39h0v-.96l-1.49-1.61h0v2.57h0l-.89-.96.89-1.61-.89-.64h0v-.96h0l-.89-.64v-2.57l-.6-.96-.89-.64v-4.18h0v-.64h-.6v-2.57h-.89v-.64h-.6v-1.93l-.89-1.61v-.64l-1.49-.96v-.64l-.6-.96v-.64l-.89-.96v-1.61l.89-1.61v-4.82l.6-2.57.89-.96v-1.61h0v-.64l.6.64h0l.89.96h0l1.49.64.6.96h.89v-.96h1.49v.96h0v.96l.89.64h2.09v1.61h-.6v.96l-.89.64v.96l.89,1.61v4.18h0v1.61l.6.64v.96h0l-.6.64h.6v2.57l.89.96v.64h0l.6.96v1.61l1.49.64v1.61l.89.96.89.64h2.09v.96l-.6.64v1.93h0l.6.64v.96h.89l1.49.64v.96h0v1.61l.6.64h1.49l.89.96v.64h0v.96h0v.96h0v-.96l-.89.96-.6.64v.96l-.89,1.61.89.64h0v.96l.6-.96h1.79v-.64.64l-.89.96h-.89v.64l.89-.64h.89v.64h.6l.89.96.6.64,1.49.96h0v.96h-.6v-.96h-.89l.89.96.6,1.61v.64h0l.89.96h1.49v.64h0v.96l-1.49-.96h0l2.98,3.21.89.96.6,1.61.89,1.61.6,1.61.89.96.6,1.61.89.64.6.96.89,2.57-.89,2.25.89.96v1.61h0l1.49.64-.6.96v1.61l-.89.96-.89.64v.96h-.6v.64h1.49v.96h0l-.89.64h-1.49v.96h-.6l.6.64h0v2.57l.89,1.61.6.96.89.64v1.61l2.38.96.6.64h.89l1.49.96.6.96.89,1.61.6.64v.96l3.28,1.61,1.49.64h.6l1.49.96h2.38l.89.64.6.96.89.96v.64l1.49.96.6.64h.89l2.38,1.61h.6l1.49.96,1.49,1.61h2.38l2.38.64h.6l1.49,1.61,2.38.96,2.09,1.61,3.28.96,2.09,1.61h3.28l2.98-1.61,1.49-.96,2.09-.64,1.79-.96h.6-1.49v-.96h.89v-.64h.6v.64h0v.96h0l.89-.96h.6l-.6.96h0l.6.96,2.98.64h0l-1.49-.64h0l-.6-.96h.6l.89.96,1.49.64.6.96.89.64,2.38,2.57.6.64v.96l.89.64,1.49,2.57,1.49,1.61h0v-.64h.89v-.96h0v-1.61h.6v-.96l-.6-.64h0v-.96l.6-.64.89-1.61,1.49-1.61.6-.96h7.75v-2.57h0v-.64h-.89v-.96h0l-.6-.64v-.96l-1.49-.64v-.96l-.89-.64-.89-.96h2.38v-2.25l.89-1.93h10.43v-.64h0l.89-.96.6.96h.89v-.96l1.49-1.61.89-1.61h1.49v-1.61l.6-.64h.89v.64l-.89,1.61h.89v1.61h.6v-1.61l.89-1.61.6-.64.89-1.93.89-1.61h-1.79v-.64h1.79v-.96h0l.6-.64h-2.38.89l.89-1.61h.6v-1.61h0v-1.93l1.49-1.61,1.49-.64.89-1.61h.6v-1.61l.89-.96h-.89v-.64Z"/>
      <path class="cls-3" d="M207.99,102.68h1.49l-.89-.64h0l-1.49.64h.89ZM94.7,102.03h-.6l.6.64h0v-.64h0ZM238.39,88.86v.64h-.89v1.61h0l.89-1.61h.6v-.64h-.6ZM239.88,84.04h0v.64h0v-.64ZM124.51,81.47l-.89-.96h0v1.61h0l.89-.64h0ZM107.82,61.87v.64h.6l-.6-.64h0ZM96.19,60.26h0l.89,1.61.6-.96-.6-.64h-.89ZM104.54,56.09h0v1.61h.89v-.64l-.89-.96h0ZM95.6,59.3v-.64h0v-.96h0l.6-2.57v-.64l-.6,2.57-.89,1.61h.89v1.61h0v-.96ZM103.05,48.7v.96l-.6.64h.6v-.64h.89v-.96h-.89ZM84.27,32.31h0l-.89.96-.89.64.89.96.89-.96v-1.61ZM68.17,26.53v-.64h-.89v.64h0v1.93h.89v-1.93h0ZM103.05,25.88h-.6l-.89.64-.6,1.93h0l.6.64h.89l.6-1.61v-1.61h0ZM97.09,24.28l-.89-.96h0v.96h-.6l.6.64.89,1.61.6.96h0v-2.57h-.6v-.64h0ZM94.7,6.93v.96h0v-.96h0ZM238.99,84.04l.89-.96-.89-.96-.6-.64h-1.49l-.89.64h1.49l-.6.96-.89-.96h-2.09l-.89-.64h-2.98l-.89.64-.6.96h-.89l-5.96.96h0l-2.38.64-.6.96-.89,2.25h0l-.89.96v2.25l-.6,1.93v.64h0l-.89.96-.6.64v2.57l-1.49,1.61-.89.64h-.6l-2.38.96v.96h0l.89-.96h0v.96h0v1.61h-.89l-.89.64h-2.09v-.64h.6l-.6-.96h-2.98l-1.49.96h0v.64h-.89l-1.49.96-.89-.96h-2.09l-.89.96-.6.64-2.38.96h-2.38v-1.61l-.6-.96-1.49-.64-.89-.96h-2.38l-.6-.64h0l.6.64h-1.49v-.64h.89l-.89-.96-.6-.96v-.64h0l-1.49-1.61v-3.21l-1.49-2.57-1.49-3.21-.89-.96.89-.64-.89-1.61-.89-2.57h0v-.96h-.6v-3.86l.6,2.25.89.96h0v.64h0l-.89.96.89.96v-.96h0l.89-.96-.89-.64v-.96l-.89-.64-.6-1.61v-3.21h0v-.96l.6-.96v-1.61l.89-2.25.89-3.21h0v-1.93l.6-3.21,2.38-3.86.6-1.93,1.49-2.25.89-1.61v-1.61h-.89v.64h-.6l-.89-.64h-.6l-2.38-.96h-.6l-.89-.64h-.89l-.6-.96h0l-.89-.96h-1.49v-.64h0v-2.57l-.6-.64v-.96h0v-.64h0v-.96h0l.6-.64h0v-.96l-.6-.96-.89-.64v-.96l-.6-.64v-1.61h-.89v-1.61h0l-.89-.96v-4.18l-.6-.64-.89-.96h0v-.64h0l-1.49-1.61v-.96h-4.47v-.64h-.89l-.6.64h-.89l-1.49.96-.6,1.61-.89.64v.96h0l-.6.64-.89.96h-.6l-.89-.96-1.49-.64-.89-.96h-1.49v-.64l-.6-.96h0l-.89-.64v-5.78l-.6-.96v-.64h0l-1.79-.96-.6-1.61-.89-1.61-.6-.64-.89-.96-.6-.96v-1.61h-10.73v1.61l-.6.96v.96h-16.99l-2.09-.96-2.38-.96-2.09-1.61-2.38-.64-2.38-.96-2.09-.64-2.38-1.61-2.38-.96v-.64l.89-.96h-2.38l-1.49.96h-8.35l-1.49.64v3.21l.89,1.61v.96h-.89v1.61l.89.96v3.21l.6.64v.96l-.6.64v.96l.6.64h0v1.93l-.6,1.61h.6v1.61l1.49.64.89.96.6.64h0v.96l.89.64,1.49,2.57.6,1.61v.96l-.6,1.61-.89,1.61-.6.64h.6v.96h0v.64h-.6l-.89-.64.89-.96h-.89l-.6.96h-1.49l-1.49-.96v.96h0l.6.64.89.96.6.96v.64h0v.96l.89.64h.6l.89.96h.6v.64l.89.96h2.38l.6-.96v-.64,1.61h0v1.61l1.49,1.61h.89l.6.96.89,2.25v2.57h0v1.61l-.89,1.61v1.61l.89,1.61h0v.96h.6l.89.64.6.96,1.79,1.61.6.64.89.96.6.96.89.64.6.96v3.86l.89.96h.6v-.96h.89l.89-.64.6-.96h.89v-3.21h-.89v-.64l-.6-.96v-1.61h-.89v-.96l-.89-.64h-.6v1.61h-.89v-.96h-.6v-.64l-.89-2.57h.89v-2.25l-.89-.96v-3.21h-.6v-7.39h0v-.96l-1.49-1.61h0v2.57h0l-.89-.96.89-1.61-.89-.64h0v-.96h0l-.89-.64v-2.57l-.6-.96-.89-.64v-4.18h0v-.64h-.6v-2.57h-.89v-.64h-.6v-1.93l-.89-1.61v-.64l-1.49-.96v-.64l-.6-.96v-.64l-.89-.96v-1.61l.89-1.61v-4.82l.6-2.57.89-.96v-1.61h0v-.64l.6.64h0l.89.96h0l1.49.64.6.96h.89v-.96h1.49v.96h0v.96l.89.64h2.09v1.61h-.6v.96l-.89.64v.96l.89,1.61v4.18h0v1.61l.6.64v.96h0l-.6.64h.6v2.57l.89.96v.64h0l.6.96v1.61l1.49.64v1.61l.89.96.89.64h2.09v.96l-.6.64v1.93h0l.6.64v.96h.89l1.49.64v.96h0v1.61l.6.64h1.49l.89.96v.64h0v.96h0v.96h0v-.96l-.89.96-.6.64v.96l-.89,1.61.89.64h0v.96l.6-.96h1.79v-.64.64l-.89.96h-.89v.64l.89-.64h.89v.64h.6l.89.96.6.64,1.49.96h0v.96h-.6v-.96h-.89l.89.96.6,1.61v.64h0l.89.96h1.49v.64h0v.96l-1.49-.96h0l2.98,3.21.89.96.6,1.61.89,1.61.6,1.61.89.96.6,1.61.89.64.6.96.89,2.57-.89,2.25.89.96v1.61h0l1.49.64-.6.96v1.61l-.89.96-.89.64v.96h-.6v.64h1.49v.96h0l-.89.64h-1.49v.96h-.6l.6.64h0v2.57l.89,1.61.6.96.89.64v1.61l2.38.96.6.64h.89l1.49.96.6.96.89,1.61.6.64v.96l3.28,1.61,1.49.64h.6l1.49.96h2.38l.89.64.6.96.89.96v.64l1.49.96.6.64h.89l2.38,1.61h.6l1.49.96,1.49,1.61h2.38l2.38.64h.6l1.49,1.61,2.38.96,2.09,1.61,3.28.96,2.09,1.61h3.28l2.98-1.61,1.49-.96,2.09-.64,1.79-.96h.6-1.49v-.96h.89v-.64h.6v.64h0v.96h0l.89-.96h.6l-.6.96h0l.6.96,2.98.64h0l-1.49-.64h0l-.6-.96h.6l.89.96,1.49.64.6.96.89.64,2.38,2.57.6.64v.96l.89.64,1.49,2.57,1.49,1.61h0v-.64h.89v-.96h0v-1.61h.6v-.96l-.6-.64h0v-.96l.6-.64.89-1.61,1.49-1.61.6-.96h7.75v-2.57h0v-.64h-.89v-.96h0l-.6-.64v-.96l-1.49-.64v-.96l-.89-.64-.89-.96h2.38v-2.25l.89-1.93h10.43v-.64h0l.89-.96.6.96h.89v-.96l1.49-1.61.89-1.61h1.49v-1.61l.6-.64h.89v.64l-.89,1.61h.89v1.61h.6v-1.61l.89-1.61.6-.64.89-1.93.89-1.61h-1.79v-.64h1.79v-.96h0l.6-.64h-2.38.89l.89-1.61h.6v-1.61h0v-1.93l1.49-1.61,1.49-.64.89-1.61h.6v-1.61l.89-.96h-.89v-.64Z"/>
      <path class="cls-2" d="M298.31,108.46v-1.61l-2.09-.96h0l-.89-.64h-1.49l-.89-.96h-5.07l-.89.96h0l-.89.64h.89l.89.96h.6v.64h.89v.96l.6.64h2.38l.6.96v-1.61h.89v.64h.6v-.64h1.79l.6.64.89-.64h1.49-.89Z"/>
      <path class="cls-3" d="M298.31,108.46v-1.61l-2.09-.96h0l-.89-.64h-1.49l-.89-.96h-5.07l-.89.96h0l-.89.64h.89l.89.96h.6v.64h.89v.96l.6.64h2.38l.6.96v-1.61h.89v.64h.6v-.64h1.79l.6.64.89-.64h1.49-.89Z"/>
      <path class="cls-2" d="M255.09,129.67l-.89-.96v-.64l-1.49-.96h.89v.96h-1.49l-.89-.96h0l-.6-.64v.64h-.89v-.64h.89l.6-.96.89.96h0l-2.38-2.57-1.49-.64v.64h-.89v-.64l-2.09-.96h0l-.89.96h-2.09l-1.49-.96h-1.79.89v.96h-1.49l-1.49.64h-6.86l-.89-.64h-1.49l-.6.64h0l-.89.96h-.6l-.89.64-.89.96-.6.64-1.49.96-.89.64h-.6l-.89.96v.96h0v2.25h-.6l-.89.96h0l1.49.64h.89v.96l.6.64h.89v.96h1.49v.64h.6l.89-.64h.89v.64h1.49l.6.96-.6.96v.64h0v.96h-.89l.89.64h1.49v.96h0v.64h.6v.96h1.49l.89-.96h0v-.64h.6v-.96h.89v-2.25h0v-.96h2.38l.6-.96.89-.64h.6l1.49.64h0l.89-.64h0l.89-.96.6-.64.89-.96h.6v-1.61h.89v-.64h0l.6-.96h.89l.6.96h2.38v-.96h.89v.96h.6v-.96h1.49l.89-.64h.6v-.96h2.38ZM236.9,119.71l1.49-.64h-1.49l-.89.64h.89ZM240.78,119.06h-.89v.64l.89-.64Z"/>
      <path class="cls-3" d="M255.09,129.67l-.89-.96v-.64l-1.49-.96h.89v.96h-1.49l-.89-.96h0l-.6-.64v.64h-.89v-.64h.89l.6-.96.89.96h0l-2.38-2.57-1.49-.64v.64h-.89v-.64l-2.09-.96h0l-.89.96h-2.09l-1.49-.96h-1.79.89v.96h-1.49l-1.49.64h-6.86l-.89-.64h-1.49l-.6.64h0l-.89.96h-.6l-.89.64-.89.96-.6.64-1.49.96-.89.64h-.6l-.89.96v.96h0v2.25h-.6l-.89.96h0l1.49.64h.89v.96l.6.64h.89v.96h1.49v.64h.6l.89-.64h.89v.64h1.49l.6.96-.6.96v.64h0v.96h-.89l.89.64h1.49v.96h0v.64h.6v.96h1.49l.89-.96h0v-.64h.6v-.96h.89v-2.25h0v-.96h2.38l.6-.96.89-.64h.6l1.49.64h0l.89-.64h0l.89-.96.6-.64.89-.96h.6v-1.61h.89v-.64h0l.6-.96h.89l.6.96h2.38v-.96h.89v.96h.6v-.96h1.49l.89-.64h.6v-.96h2.38ZM236.9,119.71l1.49-.64h-1.49l-.89.64h.89ZM240.78,119.06h-.89v.64l.89-.64Z"/>
      <path class="cls-1" d="M319.78,102.03h-.89l-.89-.96h-1.49l1.49.96,1.79.64v-.64ZM326.34,98.5v-.64h0v-2.57h-2.09l-1.49-.64-.89-.96h-2.98l-.89.96h-.6l-.89.64v.96h2.38l.89.64h1.49l-.89.96v1.61l-.6.64.6.96,1.49,1.61h0v.96h-1.49v.64h-5.37l-.6-.64h-2.38l-.6-.96h-.89v.96l-.89.64v.96h0l1.79.64h0l.6.96.89.64h0v-.64h.6l.89-.96h2.98l1.49.96h1.49v-.96h3.88v.96h.6v.64-1.61h.89v-.64h-.89l-.6-.96v-.64h.6l.89-.96v-.64h0v-.96h0l.6-.96v-.64h0v-.96ZM320.37,93.04h.89l.6.64v-.64h-2.09.6Z"/>
      <path class="cls-3" d="M319.78,102.03h-.89l-.89-.96h-1.49l1.49.96,1.79.64v-.64ZM326.34,98.5v-.64h0v-2.57h-2.09l-1.49-.64-.89-.96h-2.98l-.89.96h-.6l-.89.64v.96h2.38l.89.64h1.49l-.89.96v1.61l-.6.64.6.96,1.49,1.61h0v.96h-1.49v.64h-5.37l-.6-.64h-2.38l-.6-.96h-.89v.96l-.89.64v.96h0l1.79.64h0l.6.96.89.64h0v-.64h.6l.89-.96h2.98l1.49.96h1.49v-.96h3.88v.96h.6v.64-1.61h.89v-.64h-.89l-.6-.96v-.64h.6l.89-.96v-.64h0v-.96h0l.6-.96v-.64h0v-.96ZM320.37,93.04h.89l.6.64v-.64h-2.09.6Z"/>
      <path class="cls-2" d="M409.21,224.45h-.6l-.89-.64v-.96h0l-.6-.64h0v-.96h0v-.96h-.89v-.64h0v-.96h-.6v-.64h0v-.96h0v-.64h-.89v-1.61h-1.49l-.89-.96h.89l-.89-.64-.6-.96v-.96h0l-.89-1.61-.6-.64h.6v-1.61l.89-.96h0v-1.61h0v-.64h0v-.96h.6v-.96h3.28v-.64h0v-.96h0v-.64h0v-.96h0l.6-.64h0v-4.18l-.6-.64-1.79-.96v-.96l-1.49-.64-.6-1.61h-2.98v.64l-.89.96v.64l-.6.96.6-.96v-2.25l.89-1.61v-2.57l-.89-.64-.6-.96v-.96l-2.38-2.25-1.49-1.61-1.49-.96h0v.96h-.89v-.96l-.6-.64h-.89l1.49,1.61h0l-.6.64h-.89v.96l-.89.64h-.6v.96h-1.49v.64l-.89.96h0v.96h0v1.61h0v.64h1.49v1.61h0l-1.49.96h0l-.6.64-.89-.64h0v.64h-1.49v.96h-.6l.6.64h0v2.57h-.6l-.89.96v.64h0l.89,1.61,1.49,1.61,1.49,2.57v-.96l.6.96h1.49l.89-.96h0l.6.96h0v.64h0v2.57h0l-.6.96h0v.64h2.38v.96h.6l-.6.64h0v.96h.6v1.61h.89-.89v1.61h-.6l-.89.96v1.61h0v.64l-.89.96v3.86l.89,1.93h0l.89.64v2.57h0v.64h0l.6.96h.89l.6.64v.96h0l.89.64h1.49v.96h2.38l.6-.96h0l-.6-.64h.6v-.96h1.49l.89.96v-.96h.6v-.64h2.38v-.96l.6-.64h.89v-.96.96l.89-.96h.6v.96h2.98v-.96Z"/>
      <path class="cls-3" d="M409.21,224.45h-.6l-.89-.64v-.96h0l-.6-.64h0v-.96h0v-.96h-.89v-.64h0v-.96h-.6v-.64h0v-.96h0v-.64h-.89v-1.61h-1.49l-.89-.96h.89l-.89-.64-.6-.96v-.96h0l-.89-1.61-.6-.64h.6v-1.61l.89-.96h0v-1.61h0v-.64h0v-.96h.6v-.96h3.28v-.64h0v-.96h0v-.64h0v-.96h0l.6-.64h0v-4.18l-.6-.64-1.79-.96v-.96l-1.49-.64-.6-1.61h-2.98v.64l-.89.96v.64l-.6.96.6-.96v-2.25l.89-1.61v-2.57l-.89-.64-.6-.96v-.96l-2.38-2.25-1.49-1.61-1.49-.96h0v.96h-.89v-.96l-.6-.64h-.89l1.49,1.61h0l-.6.64h-.89v.96l-.89.64h-.6v.96h-1.49v.64l-.89.96h0v.96h0v1.61h0v.64h1.49v1.61h0l-1.49.96h0l-.6.64-.89-.64h0v.64h-1.49v.96h-.6l.6.64h0v2.57h-.6l-.89.96v.64h0l.89,1.61,1.49,1.61,1.49,2.57v-.96l.6.96h1.49l.89-.96h0l.6.96h0v.64h0v2.57h0l-.6.96h0v.64h2.38v.96h.6l-.6.64h0v.96h.6v1.61h.89-.89v1.61h-.6l-.89.96v1.61h0v.64l-.89.96v3.86l.89,1.93h0l.89.64v2.57h0v.64h0l.6.96h.89l.6.64v.96h0l.89.64h1.49v.96h2.38l.6-.96h0l-.6-.64h.6v-.96h1.49l.89.96v-.96h.6v-.64h2.38v-.96l.6-.64h.89v-.96.96l.89-.96h.6v.96h2.98v-.96Z"/>
      <path class="cls-1" d="M223.79,123.24h0v.64h-.6l-.89-.64h-2.09v-1.61l.6-3.53v-1.61l.89-2.25v-3.21l.6-1.93h-10.43l-.89,1.93v2.25h-2.38l.89.96.89.64v.96l1.49.64v.96l.6.64h0v.96h.89v.64h0v2.57h-7.75l-.6.96-1.49,1.61-.89,1.61-.6.64v.96h0l.6.64v.96h-.6v1.61h0v.96h-.89v.64h0l2.38,2.57.6.64,1.49.96,1.49.64h3.88l2.38.96h0v-.96l.6-.64h1.49v-.96h0l.89-.64h.6v-.96h0v-.64h.89l.89-.96h.6v-2.25h0v-.96l.89-.96h.6l.89-.64,1.49-.96.6-.64.89-.96.89-.64h.6l-2.38-1.61Z"/>
      <path class="cls-3" d="M223.79,123.24h0v.64h-.6l-.89-.64h-2.09v-1.61l.6-3.53v-1.61l.89-2.25v-3.21l.6-1.93h-10.43l-.89,1.93v2.25h-2.38l.89.96.89.64v.96l1.49.64v.96l.6.64h0v.96h.89v.64h0v2.57h-7.75l-.6.96-1.49,1.61-.89,1.61-.6.64v.96h0l.6.64v.96h-.6v1.61h0v.96h-.89v.64h0l2.38,2.57.6.64,1.49.96,1.49.64h3.88l2.38.96h0v-.96l.6-.64h1.49v-.96h0l.89-.64h.6v-.96h0v-.64h.89l.89-.96h.6v-2.25h0v-.96l.89-.96h.6l.89-.64,1.49-.96.6-.64.89-.96.89-.64h.6l-2.38-1.61Z"/>
      <path class="cls-1" d="M383.57,119.71h-.89v2.57h.89v.96l.6-.96h0v-1.61h0l-.6-.96ZM385.66,122.28h0v.96h.89l-.89-.96ZM386.56,120.67l-.89-.96-.6-.64h-.89l.89.64-.89.96h2.38Z"/>
      <path class="cls-3" d="M383.57,119.71h-.89v2.57h.89v.96l.6-.96h0v-1.61h0l-.6-.96ZM385.66,122.28h0v.96h.89l-.89-.96ZM386.56,120.67l-.89-.96-.6-.64h-.89l.89.64-.89.96h2.38Z"/>
      <path class="cls-1" d="M381.19,150.23h0v.64h-.89v.96h.89v-.96l.89-.64h-.89Z"/>
      <path class="cls-3" d="M381.19,150.23h0v.64h-.89v.96h.89v-.96l.89-.64h-.89Z"/>
      <path class="cls-1" d="M439.02,209.03v-.96h0l-.89-2.25h-.6v.64h0v.96h-.89v-.96h.89l-.89-.64v-.96l-.89-.64h-.6v-.96h0l-.89-.96-2.09-1.61-.89-.64-1.49-.96-1.49-.64-2.38-1.61-.6.64h0l-.89,2.57h0l-.6.64-.89.96-.6.64v.96h0v1.61h0v1.61h0v2.57h.6v1.61l.89.64h0l.6.96v.96h0v.64h0v.96l-.6,1.61h0v2.25l-.89.96-.6,1.61h-.89v.96h-.6l.6.64h.89l.6.96h.89l1.49-.96h0v-.64h.6l.89.64h1.49v-.64h0l.89.64h.6l.89.96h0l.6-.96h0l.89-.64h0l.6-.96v-.96h.89v-2.25h.6v-.96h0v-.64h0l.89-.96h0l.6-.64v-.96l.89-1.61h.89v-.96h0l.6-.64h0v-.96h.89v-.64h0Z"/>
      <path class="cls-3" d="M439.02,209.03v-.96h0l-.89-2.25h-.6v.64h0v.96h-.89v-.96h.89l-.89-.64v-.96l-.89-.64h-.6v-.96h0l-.89-.96-2.09-1.61-.89-.64-1.49-.96-1.49-.64-2.38-1.61-.6.64h0l-.89,2.57h0l-.6.64-.89.96-.6.64v.96h0v1.61h0v1.61h0v2.57h.6v1.61l.89.64h0l.6.96v.96h0v.64h0v.96l-.6,1.61h0v2.25l-.89.96-.6,1.61h-.89v.96h-.6l.6.64h.89l.6.96h.89l1.49-.96h0v-.64h.6l.89.64h1.49v-.64h0l.89.64h.6l.89.96h0l.6-.96h0l.89-.64h0l.6-.96v-.96h.89v-2.25h.6v-.96h0v-.64h0l.89-.96h0l.6-.64v-.96l.89-1.61h.89v-.96h0l.6-.64h0v-.96h.89v-.64h0Z"/>
      <path class="cls-1" d="M451.84,617.74h0v.96h.89l-.89-.96h0ZM457.8,617.09h0v.64h.89l-.89-.64h0ZM444.98,615.17h-.6l-.89.96h1.49v-.96h0ZM451.84,613.56h0l.89-.64h-.89v-.96l-.89.96h-5.07v-.96h-.89l.89.96h0v.64h1.49l.6.96h-1.49v.64h1.49v.96h-.6l-.89.96-.6-.96-.89.96,1.49.64.89.96h.6v-.96h.89v-.64h1.49l.6-1.93v-.64h.89v-.96ZM447.37,612.92h.6v-.96h-1.49l.89.96ZM460.19,614.52h0l-.89-.96h.89l-.89-.64h-2.09l.6.64h-1.49v-.64h0v-.96h-2.98.89l-.89,1.61h0l.89.96h-.89v.64h0l-1.49.96.89.96-.89.64h.89l.6.96.89.64v-.64h.6l.89-.96-1.49-.64h.6l2.38.64v-.64h0l-.89-.96h1.49l.89-.96h.6l.89-.64h0Z"/>
      <path class="cls-3" d="M451.84,617.74h0v.96h.89l-.89-.96h0ZM457.8,617.09h0v.64h.89l-.89-.64h0ZM444.98,615.17h-.6l-.89.96h1.49v-.96h0ZM451.84,613.56h0l.89-.64h-.89v-.96l-.89.96h-5.07v-.96h-.89l.89.96h0v.64h1.49l.6.96h-1.49v.64h1.49v.96h-.6l-.89.96-.6-.96-.89.96,1.49.64.89.96h.6v-.96h.89v-.64h1.49l.6-1.93v-.64h.89v-.96ZM447.37,612.92h.6v-.96h-1.49l.89.96ZM460.19,614.52h0l-.89-.96h.89l-.89-.64h-2.09l.6.64h-1.49v-.64h0v-.96h-2.98.89l-.89,1.61h0l.89.96h-.89v.64h0l-1.49.96.89.96-.89.64h.89l.6.96.89.64v-.64h.6l.89-.96-1.49-.64h.6l2.38.64v-.64h0l-.89-.96h1.49l.89-.96h.6l.89-.64h0Z"/>
      <path class="cls-2" d="M227.06,140.27h0v-.64l.6-.96-.6-.96h-1.49v-.64h-.89l-.89.64h-.6v-.64h-1.49v-.96h-.89l-.6-.64v-.96h-.89l-1.49-.64h-.89v.64h0v.96h-.6l-.89.64h0v.96h-1.49l-.6.64v.96h0l.6.96.89.64h1.49l1.49.96,2.38.64,2.09.96h-.6l-.89-.96h.89l1.49.96h2.98v-.96h0v-.64h.89v-.96h0Z"/>
      <path class="cls-3" d="M227.06,140.27h0v-.64l.6-.96-.6-.96h-1.49v-.64h-.89l-.89.64h-.6v-.64h-1.49v-.96h-.89l-.6-.64v-.96h-.89l-1.49-.64h-.89v.64h0v.96h-.6l-.89.64h0v.96h-1.49l-.6.64v.96h0l.6.96.89.64h1.49l1.49.96,2.38.64,2.09.96h-.6l-.89-.96h.89l1.49.96h2.98v-.96h0v-.64h.89v-.96h0Z"/>
      <path class="cls-2" d="M267.91,261.4h0v-1.61h.89l.6-.96h-1.49l-.6.96h0v1.61h.6ZM206.5,248.23h-.89v.96h.89v-.96h0ZM213.35,244.05h-.89l-.6.96h0l-.89.64h0l.89.96.6-.96v-.64h.89v-.96h0ZM205.6,243.41h0v.64l.89.96h.6v-2.57l-1.49.96ZM200.24,242.45v-.64l-.6-.96-.89.96h0v.64h1.49ZM204.11,240.2l-.6.64h0l.6.96h1.49l-.6-.96-.89-.64ZM202.62,243.41h0v-.96l-.6-1.61-.89-1.61h0v-.96h-1.49l-.89.96h1.49v2.57h.89l.89.64v1.61h-1.79l-.6.96v.64h0l.6.96h1.79l1.49-.96.6-.64-.6-.96-.89-.64ZM275.66,230.24v-.96h-.89v.96h.89ZM296.82,244.05h0v-.64h0l-.6-.96v-.64l-.89-.96h0l-.89-.64h2.38l-.6-.96-1.79-.96h-1.49v-.64l-.6-.96h0l-1.49-.64h-.89v.64h0v.96h-2.98l-.89-.96h-2.09v-2.25h-1.49v-.96h-.89l-1.49-.64-.89-.96h-.6l-.89-1.61h-1.49v-.96l-.6-.64h0v1.61l-2.38.96-1.49.64h-1.49l-.89.96h0l-.6.64h-.89v1.61l.89.96-.89,2.25v.96l-.6.96-.89.64-.6.96v.64l.6.96.89.64h-.89l-.6-.64v.64l-.89,1.61h0l-1.49.96v2.57h.89l-.89,2.25.89.96v2.25h-.89l-.89.96h.89v.64h1.49l1.49,1.93v.64h.89l.6-.64.89-1.93h0v1.93h.6v-4.18.64h0v1.61l.89.96v2.57l-.89,2.25h0l-.6.96h0l-.89.64h-.6v.96h0v.64h.6v.96h0v1.61h-.6v.96h-.89v.64h0v.96h.89l-.89.64h0v.96h.89v-.96h.6v-.64l.89.64h.6l.89.96h1.49v.64l.89.96v.64h.6v.96h.89l.6.96v-.96h.89v-.96h0v-.64h.6l.89-.96h0v-.64h0v-.96h0v-.64l.6-.96v-.64h0v-.96h0l.89-.64h0v-.96h0v-2.57h.6v.96h.89v-.96h0v-.64h.89v-1.61h.6l1.49-.96h.89l.6-.64,1.49-.96h1.79l.6-.64,1.49-.96.89-.96.6-.64.89-.96.6-1.61,1.49-1.61v-.64h.89v-1.61l.89-1.93v-1.61h0l.6.96h0v-2.57Z"/>
      <path class="cls-3" d="M267.91,261.4h0v-1.61h.89l.6-.96h-1.49l-.6.96h0v1.61h.6ZM206.5,248.23h-.89v.96h.89v-.96h0ZM213.35,244.05h-.89l-.6.96h0l-.89.64h0l.89.96.6-.96v-.64h.89v-.96h0ZM205.6,243.41h0v.64l.89.96h.6v-2.57l-1.49.96ZM200.24,242.45v-.64l-.6-.96-.89.96h0v.64h1.49ZM204.11,240.2l-.6.64h0l.6.96h1.49l-.6-.96-.89-.64ZM202.62,243.41h0v-.96l-.6-1.61-.89-1.61h0v-.96h-1.49l-.89.96h1.49v2.57h.89l.89.64v1.61h-1.79l-.6.96v.64h0l.6.96h1.79l1.49-.96.6-.64-.6-.96-.89-.64ZM275.66,230.24v-.96h-.89v.96h.89ZM296.82,244.05h0v-.64h0l-.6-.96v-.64l-.89-.96h0l-.89-.64h2.38l-.6-.96-1.79-.96h-1.49v-.64l-.6-.96h0l-1.49-.64h-.89v.64h0v.96h-2.98l-.89-.96h-2.09v-2.25h-1.49v-.96h-.89l-1.49-.64-.89-.96h-.6l-.89-1.61h-1.49v-.96l-.6-.64h0v1.61l-2.38.96-1.49.64h-1.49l-.89.96h0l-.6.64h-.89v1.61l.89.96-.89,2.25v.96l-.6.96-.89.64-.6.96v.64l.6.96.89.64h-.89l-.6-.64v.64l-.89,1.61h0l-1.49.96v2.57h.89l-.89,2.25.89.96v2.25h-.89l-.89.96h.89v.64h1.49l1.49,1.93v.64h.89l.6-.64.89-1.93h0v1.93h.6v-4.18.64h0v1.61l.89.96v2.57l-.89,2.25h0l-.6.96h0l-.89.64h-.6v.96h0v.64h.6v.96h0v1.61h-.6v.96h-.89v.64h0v.96h.89l-.89.64h0v.96h.89v-.96h.6v-.64l.89.64h.6l.89.96h1.49v.64l.89.96v.64h.6v.96h.89l.6.96v-.96h.89v-.96h0v-.64h.6l.89-.96h0v-.64h0v-.96h0v-.64l.6-.96v-.64h0v-.96h0l.89-.64h0v-.96h0v-2.57h.6v.96h.89v-.96h0v-.64h.89v-1.61h.6l1.49-.96h.89l.6-.64,1.49-.96h1.79l.6-.64,1.49-.96.89-.96.6-.64.89-.96.6-1.61,1.49-1.61v-.64h.89v-1.61l.89-1.93v-1.61h0l.6.96h0v-2.57Z"/>
      <path class="cls-1" d="M345.42,102.68h0l-1.49-1.61-.6-.96h-3.28l-.6-.64h-.89l.89-.96.6.96.89-.96h0v-.64l-2.98.64v-.64l-.89-.96v-1.61h0l-.6.96h-.89l-.6-.96h-.89v-.64h-1.49v-.96h-1.49l-1.49.96h0l-.89-.96h-.6l-.89.96h0l-.89.64h0v2.57h0v1.61h0v.64l-.6.96h0v.96h0v.64l-.89.96h-.6v.64l.6.96h.89v.64h-.89v1.61h.89v.96h0v.64h.6v1.93l.89-.96h0l.89-.96.6-1.61.89-.64v-.96h.6l.89-.64h.6l.89.64h2.38l.6-.64h.89l.6-.96h.89l.6.96h.89l.6-.96,1.49.96h1.79v.64h.6l.89-.64h0l.6-.96.89-.64-.89-.96Z"/>
      <path class="cls-3" d="M345.42,102.68h0l-1.49-1.61-.6-.96h-3.28l-.6-.64h-.89l.89-.96.6.96.89-.96h0v-.64l-2.98.64v-.64l-.89-.96v-1.61h0l-.6.96h-.89l-.6-.96h-.89v-.64h-1.49v-.96h-1.49l-1.49.96h0l-.89-.96h-.6l-.89.96h0l-.89.64h0v2.57h0v1.61h0v.64l-.6.96h0v.96h0v.64l-.89.96h-.6v.64l.6.96h.89v.64h-.89v1.61h.89v.96h0v.64h.6v1.93l.89-.96h0l.89-.96.6-1.61.89-.64v-.96h.6l.89-.64h.6l.89.64h2.38l.6-.64h.89l.6-.96h.89l.6.96h.89l.6-.96,1.49.96h1.79v.64h.6l.89-.64h0l.6-.96.89-.64-.89-.96Z"/>
      <path class="cls-1" d="M385.66,125.49h-.6l-.89-.64v.64h0v1.61l.89.96h0l.6-.96v-1.61Z"/>
      <path class="cls-3" d="M385.66,125.49h-.6l-.89-.64v.64h0v1.61l.89.96h0l.6-.96v-1.61Z"/>
      <path class="cls-1" d="M264.33,79.86h0v-.96h-1.79l-.6.96h0l.6,1.61h-.6v.64l-.89-.64h0v.64h.89v.96h.6l1.79-.96.6-.64h0l-.6-.96v-.64ZM292.35,78.26h0l.6.64h.89v-.64h-1.49ZM292.35,77.29h.6l-.6-.64h0l-.89.64h.89ZM290.86,75.69l.6.96h.89-.89v-.96h-.6ZM288.48,75.04h.89l.6.64h.89l-.89-.64h-1.49ZM284,73.12l.6.96h0l-1.49-1.61h0v.64h.89ZM312.92,91.11h-1.49v-.64l-.89-.96-.89-.64h-.6l-.89-.96h-4.47l.89-.64h.6l-.6-.96h.6v-.64h-1.49l-1.49-.96h-.89l-.6-.64h-1.49v-.96h-.89l-.6.96.6-.96h0l-.6-.96-.89-.64v.64h-.6l-.89-.64h1.49-.6v-.96h-.89l-.89-.64h0v.64h0l-.6-.64-1.49-.96h0l-.89-.64-2.98-2.57h-3.88l-.6-.64-.89-.96v-.96l-1.49-.64h.89-1.49v-.96h-3.28v-.64h-3.58v-.96l-.89.96h-1.49l-1.49-.96h-2.98l-1.49.96h0l-3.28.64h-.6l-4.47,2.57h-.89l-.89.96-.6.64v2.57h-1.49l-2.38,1.61h1.49v-.96h.89v1.61-.64h1.49l.6-.96h.89l.89-.64v-.96h2.98l.6-.64.89-.96h.6v-.64l1.79-.96h0l.6-.96,4.47.96h1.49v.96h-.6l-1.49.64h0v.96l.6.64h2.38l.89.96h0l.6-.96h0v-.64l.89.64h0v.96h3.58l.89.64v.96h.6l.89.64,2.98.96.89.64h.6l2.38-.64h0l.89.64v1.93l.6,1.61h0v.64h.89l.6,1.61h4.47l.89.96h0l.89.64h0v.96h-.89v.64l-2.38,1.93-1.49,1.61h1.49l1.49-.96h12.22v-.64.64h1.49l.89-.64h2.98l.89-.96h0v-.96h0Z"/>
      <path class="cls-3" d="M264.33,79.86h0v-.96h-1.79l-.6.96h0l.6,1.61h-.6v.64l-.89-.64h0v.64h.89v.96h.6l1.79-.96.6-.64h0l-.6-.96v-.64ZM292.35,78.26h0l.6.64h.89v-.64h-1.49ZM292.35,77.29h.6l-.6-.64h0l-.89.64h.89ZM290.86,75.69l.6.96h.89-.89v-.96h-.6ZM288.48,75.04h.89l.6.64h.89l-.89-.64h-1.49ZM284,73.12l.6.96h0l-1.49-1.61h0v.64h.89ZM312.92,91.11h-1.49v-.64l-.89-.96-.89-.64h-.6l-.89-.96h-4.47l.89-.64h.6l-.6-.96h.6v-.64h-1.49l-1.49-.96h-.89l-.6-.64h-1.49v-.96h-.89l-.6.96.6-.96h0l-.6-.96-.89-.64v.64h-.6l-.89-.64h1.49-.6v-.96h-.89l-.89-.64h0v.64h0l-.6-.64-1.49-.96h0l-.89-.64-2.98-2.57h-3.88l-.6-.64-.89-.96v-.96l-1.49-.64h.89-1.49v-.96h-3.28v-.64h-3.58v-.96l-.89.96h-1.49l-1.49-.96h-2.98l-1.49.96h0l-3.28.64h-.6l-4.47,2.57h-.89l-.89.96-.6.64v2.57h-1.49l-2.38,1.61h1.49v-.96h.89v1.61-.64h1.49l.6-.96h.89l.89-.64v-.96h2.98l.6-.64.89-.96h.6v-.64l1.79-.96h0l.6-.96,4.47.96h1.49v.96h-.6l-1.49.64h0v.96l.6.64h2.38l.89.96h0l.6-.96h0v-.64l.89.64h0v.96h3.58l.89.64v.96h.6l.89.64,2.98.96.89.64h.6l2.38-.64h0l.89.64v1.93l.6,1.61h0v.64h.89l.6,1.61h4.47l.89.96h0l.89.64h0v.96h-.89v.64l-2.38,1.93-1.49,1.61h1.49l1.49-.96h12.22v-.64.64h1.49l.89-.64h2.98l.89-.96h0v-.96h0Z"/>
      <path class="cls-2" d="M255.09,168.87h-.89v-.64h-.6l-.89-1.61v-.96l-1.49-1.61-.6-.96v-2.25l-.89-.96h0l-.6.96h-2.38v-.96h-.89v-.64h-.6l-1.49-.96h0l-.89.96h-.6l-1.49-.96h-.89l-1.49-.64h0l-.89.64h0v.96l-.6.64h-.89.89l.6.96h0v.64h0v.96l-.6.64-.89.96.89,1.61v.96l.6.64h1.49l.89,1.61h.89l.6-.64.89-.96h0l-.89-.64h-.6l-.89-.96v-1.61.64h0l1.49.96,1.49,1.61.89.96h-.89v.64l.89.96h.6l1.49.64h0l1.49.96.89.64.89.96v2.57l-.89.64.89.96v.64h1.49v-.64h0l-.89-.96v-.64h.89l.6.64h0l.89.96v1.61l.6.64v.96-.96h0v-.64h-.6l.6-.96h.89v-.64h0v-.96l-.89-.64.89-.96h.6v-.96h0l-.6-.64h-.89l.89-1.61v-1.61h.6v-.96.96h1.49l-.6-.96Z"/>
      <path class="cls-3" d="M255.09,168.87h-.89v-.64h-.6l-.89-1.61v-.96l-1.49-1.61-.6-.96v-2.25l-.89-.96h0l-.6.96h-2.38v-.96h-.89v-.64h-.6l-1.49-.96h0l-.89.96h-.6l-1.49-.96h-.89l-1.49-.64h0l-.89.64h0v.96l-.6.64h-.89.89l.6.96h0v.64h0v.96l-.6.64-.89.96.89,1.61v.96l.6.64h1.49l.89,1.61h.89l.6-.64.89-.96h0l-.89-.64h-.6l-.89-.96v-1.61.64h0l1.49.96,1.49,1.61.89.96h-.89v.64l.89.96h.6l1.49.64h0l1.49.96.89.64.89.96v2.57l-.89.64.89.96v.64h1.49v-.64h0l-.89-.96v-.64h.89l.6.64h0l.89.96v1.61l.6.64v.96-.96h0v-.64h-.6l.6-.96h.89v-.64h0v-.96l-.89-.64.89-.96h.6v-.96h0l-.6-.64h-.89l.89-1.61v-1.61h.6v-.96.96h1.49l-.6-.96Z"/>
      <path class="cls-2" d="M280.13,221.24v-.96h0v-.64l-.89.64h0l.89.96ZM346.91,230.24v-2.57h0v-.64l-.6-.96v-1.61h0v-.64h-.89v-1.61h0v-.96h-.6v-.96l-.89-.64h-.6v-.96h-1.79v-.64l2.38-1.61.89-1.61h0v-.96l-.89-1.61h0l-.6-.96h0l-.89-1.61v-3.21h-.89v-1.61l.89-1.61v-3.21l.89-.96v-1.61l.6-.64.89-.96v-1.61h0l-.89-.64h-2.38l-.6.64h-6.86v.96l-.89-.96h-.6l-.89-.64-.6-1.93-.89-1.61-.6-1.61h-2.38v-.64h-2.38l-1.49.64h-.6l-1.49-.64h-2.38l-.89.64v-.64h-.6l-.89-1.61v-.96h-.6l-.89-.64h0v-3.53l.89-.64h0v-2.57l-.89-.64-.6-.96v-1.61l-.89-1.61v-.96l-.6.96v-.96h0l-.89-.64v.64h-1.49v-.64l.89-.96.6-.64v-.96l.89-.64v-2.57l.6-.96v-2.25l1.49-1.61v-.96l.89-.64v-.96h.6l1.49-.64,1.79-3.53h0l1.49-.64h1.49l.6-.96h.89l.6-1.61v-.64l-.6-.96-1.49-.64h-.89l-1.49.64h0v.96h-1.49v.64l-.89,1.61-.6.96h-2.38l-3.58,3.21h-5.37v1.61l-.89.96v1.61h-.6v-1.61h.6-.6l-2.38-.96h0l-1.49,1.61-.89.96h0l-1.49.64v.96l-.6,1.61-.89.64h.89v1.93l-.89.64v3.21h-2.38l-.6.96-.89,2.25-2.98,1.93v.64h-.6v.96h0l.6,1.61v2.25h-1.49v-.64h.89v-.96h-.89v-.64l-.6-.96-.89-.64-.89-.96h0l-.6.96h0l.6.64h0v.96l.89.64v1.61h-.89v1.61h0l-1.49.96v.96-.96h-.6v-.96h0l-.89.96.89.96h-.89v.64l-.6.96.6.64.89,1.61v.96h0l.6.64h.89v3.53h-.89v.64l.89,1.61.6.96-.6.64-1.49,1.61.6.96h.89v4.18h0v2.25l-.89.96h0v.64h-.6.6v.96h0v1.61l.89-.96h0v.96h0l.6.64v-.64h.89l-1.49,2.57-.89.64v.96h0l-.6.64v.96l-.89.64h-.6l.6.96h0l-.6.64-.89.96h0l-.6.64h0l-.89.96h-2.38l-.6.96h0v3.86h-2.38v1.61h.89v.96h0l.6.64v.96h1.49l.89,1.61h.6l.89.96,1.49.64h.89v.96h1.49v2.25h2.09l.89.96h2.98v-.96h0v-.64h.89l1.49.64h0l.6.96v.64h1.49l1.79.96.6.96v-.96h.89l.6.96h0l.89.64h.6v.96h.89l.6.64h0l.89.96h0v1.61h.6v.64h0v.96h1.79v.64h.6v.96h1.49v.96l.89.64h0v1.61h0l.6.96h1.49v2.25h0v.96h0l.89.64h.89v.96h.6l.89-.96h.6l.89.96h.6v-.96h1.49l.89-.64h0l.6-.96h0l.89.96h.89l.6.64h.89l.6-.64h1.49l.89.64.6.96h1.49v.96h.89l.89.64h.6l-.6.96v.64l-.89,1.61-.89.96-1.49,2.25-.6,1.93h.6l.89.64h0l.6-.64h.89v.64l.89.96h0l.6.64h0l.89.96h0v-4.18l.6-2.57v-2.25l.89-2.57v-4.82l.6-1.61v-4.18h.89l-.89-.96h0v-.64h0v-.96h-.6v-.64h0v-.96h0v-.64h0l-.89-.96h0l-.6-.64h-.89l-.6-.96v-5.78h1.49l.6-.64h2.98v-.96h0v-.64h0v-.96h-2.09v-.64l-.89.64v-.64h-.6v.64-4.82h.6l.89-.96h.6l.89.96h6.86v-.96h0v-.64h0v-.96l.6.96h0v.64h1.49l.89-.64.89-.96h0l.6-.64h.89v.64l.6,1.61.89.96v3.21h0v.96l.6-.96h0Z"/>
      <path class="cls-3" d="M280.13,221.24v-.96h0v-.64l-.89.64h0l.89.96ZM346.91,230.24v-2.57h0v-.64l-.6-.96v-1.61h0v-.64h-.89v-1.61h0v-.96h-.6v-.96l-.89-.64h-.6v-.96h-1.79v-.64l2.38-1.61.89-1.61h0v-.96l-.89-1.61h0l-.6-.96h0l-.89-1.61v-3.21h-.89v-1.61l.89-1.61v-3.21l.89-.96v-1.61l.6-.64.89-.96v-1.61h0l-.89-.64h-2.38l-.6.64h-6.86v.96l-.89-.96h-.6l-.89-.64-.6-1.93-.89-1.61-.6-1.61h-2.38v-.64h-2.38l-1.49.64h-.6l-1.49-.64h-2.38l-.89.64v-.64h-.6l-.89-1.61v-.96h-.6l-.89-.64h0v-3.53l.89-.64h0v-2.57l-.89-.64-.6-.96v-1.61l-.89-1.61v-.96l-.6.96v-.96h0l-.89-.64v.64h-1.49v-.64l.89-.96.6-.64v-.96l.89-.64v-2.57l.6-.96v-2.25l1.49-1.61v-.96l.89-.64v-.96h.6l1.49-.64,1.79-3.53h0l1.49-.64h1.49l.6-.96h.89l.6-1.61v-.64l-.6-.96-1.49-.64h-.89l-1.49.64h0v.96h-1.49v.64l-.89,1.61-.6.96h-2.38l-3.58,3.21h-5.37v1.61l-.89.96v1.61h-.6v-1.61h.6-.6l-2.38-.96h0l-1.49,1.61-.89.96h0l-1.49.64v.96l-.6,1.61-.89.64h.89v1.93l-.89.64v3.21h-2.38l-.6.96-.89,2.25-2.98,1.93v.64h-.6v.96h0l.6,1.61v2.25h-1.49v-.64h.89v-.96h-.89v-.64l-.6-.96-.89-.64-.89-.96h0l-.6.96h0l.6.64h0v.96l.89.64v1.61h-.89v1.61h0l-1.49.96v.96-.96h-.6v-.96h0l-.89.96.89.96h-.89v.64l-.6.96.6.64.89,1.61v.96h0l.6.64h.89v3.53h-.89v.64l.89,1.61.6.96-.6.64-1.49,1.61.6.96h.89v4.18h0v2.25l-.89.96h0v.64h-.6.6v.96h0v1.61l.89-.96h0v.96h0l.6.64v-.64h.89l-1.49,2.57-.89.64v.96h0l-.6.64v.96l-.89.64h-.6l.6.96h0l-.6.64-.89.96h0l-.6.64h0l-.89.96h-2.38l-.6.96h0v3.86h-2.38v1.61h.89v.96h0l.6.64v.96h1.49l.89,1.61h.6l.89.96,1.49.64h.89v.96h1.49v2.25h2.09l.89.96h2.98v-.96h0v-.64h.89l1.49.64h0l.6.96v.64h1.49l1.79.96.6.96v-.96h.89l.6.96h0l.89.64h.6v.96h.89l.6.64h0l.89.96h0v1.61h.6v.64h0v.96h1.79v.64h.6v.96h1.49v.96l.89.64h0v1.61h0l.6.96h1.49v2.25h0v.96h0l.89.64h.89v.96h.6l.89-.96h.6l.89.96h.6v-.96h1.49l.89-.64h0l.6-.96h0l.89.96h.89l.6.64h.89l.6-.64h1.49l.89.64.6.96h1.49v.96h.89l.89.64h.6l-.6.96v.64l-.89,1.61-.89.96-1.49,2.25-.6,1.93h.6l.89.64h0l.6-.64h.89v.64l.89.96h0l.6.64h0l.89.96h0v-4.18l.6-2.57v-2.25l.89-2.57v-4.82l.6-1.61v-4.18h.89l-.89-.96h0v-.64h0v-.96h-.6v-.64h0v-.96h0v-.64h0l-.89-.96h0l-.6-.64h-.89l-.6-.96v-5.78h1.49l.6-.64h2.98v-.96h0v-.64h0v-.96h-2.09v-.64l-.89.64v-.64h-.6v.64-4.82h.6l.89-.96h.6l.89.96h6.86v-.96h0v-.64h0v-.96l.6.96h0v.64h1.49l.89-.64.89-.96h0l.6-.64h.89v.64l.6,1.61.89.96v3.21h0v.96l.6-.96h0Z"/>
      <path class="cls-1" d="M423.82,643.12h-1.49v.96h1.49v-.96h0ZM424.42,642.16h-.6v-.64h0v.64h-.89v.96h1.49v-.96ZM426.8,638.94h-.89v.96h.89v-.96h0ZM422.33,639.91h.6l.89-.96h0v-.64h-.89l-.6-.96h-5.37l.6.96.89.64h.6l1.79.96h0v-.96h1.49v.96ZM419.94,641.51v-.96h-.89l-.6-.64h0l-.89-.96h-1.49v-.64h.89l-.89-.96h-.6l-1.49.96-3.88-.96-1.49-.64.6,1.61h0v.64h1.49l.89.96h0l.6.64h2.38-1.49v-.64h0v-.96h1.49v.96-.96h.89v.96h0v.64h1.49l.6.96h1.49l.89.64h.89v-.64h-.89ZM406.23,637.34h-2.38l-.6-.64h-2.38v.64h.89v-.64l.6.64h1.49v.96h2.38v.64h.89l.6-.64h0l-1.49-.96ZM397.88,632.52h.89l.6.64h1.49v-.64h0v-.96h-1.49l-.6-.64h-1.49l-.89-.96h-2.38v.96l.89.64,1.49.96v.64l.89-.64h.6ZM393.41,629.3h-.89v-.96h-.6l-.89-.64h-2.38v-.96h-1.49.89v.96l-1.49-.96h-1.49l-.89.96h1.49v.64l.89.96h1.49v.64h.6v.96h.89v-.96h1.49v.96h0l-.6.64h2.09v-.64h.89v-.96h0v-.64ZM384.17,626.09h1.49l.89.64.6-.64h-1.49l-.6-.96h-.89l-.6-.96h-1.49l-.89-.64h-1.49l-.89-.96h-.6l-.89-.64h0v.64h.89l.6.96h.89l.6.64h2.38l.89.96h.6v.96ZM409.21,635.73l.89.96h.6l2.38.64.89-.64h.6l-.6-1.61-.89-1.93-.89-2.25-.6-1.61-.89-1.61-.6-1.61-1.49-2.57-.89-1.61v-.96h-.6l-1.49.96h0l-2.38-1.61h0l-.89.64h0v.96l-.6.64h-.89l-.6-.64h-.89l.89.64h0l.6.96h0v.64l-.6-.64v.64h0v.96h0l.6.96.89.64h1.49l.6-.64h1.79l.6.64h0l.89.96h0l-1.49.64h-.89l-.89.96h0v.64l.89.96.89.64,5.07,1.61h.89v.96h-.89v.96h0l-.6-.96h0l-.89-.96h-3.58l-.89-.64-.89-.96h-.6l-.89-.64h.89l-.89-.96-.6-1.61h-.89v.96h.89l-1.49.64.6.96v.64l1.49.96h.89v.64h.6l1.79.96h-2.38v-.96h-1.49v.96h-.89l-1.49-.96h0v.96h-2.09l.6.96h2.38l1.49.64h2.09l1.79.96.6-.96h0l.89.96h1.49v-.96h.6ZM377.31,616.13h0l-.6-.96h-1.49l.6.96h1.49ZM375.82,617.09h-.6l-.89-.96h-.89v-.96l-.6-.64h0v.64h-.89l.89.96.6.96.89.64.89.96h.6l-.6-.96.6-.64ZM371.95,612.92h1.49v-.96h-.6v-.64h-.89l-.6.64h-1.49v.96h0v.64l.6.96v-.96h0v-.64h1.49ZM366.88,606.49h-.89v.64h0l.89.96h.6l-.6-.96h.6v-.64h-.6ZM366.88,602.96h-1.79v.96h0v1.61h1.79l.6-.96h0l.89-.64h-.89l-.6-.96ZM363,594.92h-.89v-.96h-.6l-.89.96h-.6v.64h.6l.89.96h-.89v.96h.89l.6-.96h0l.89-1.61ZM368.97,602.96v-1.61h0l-.6-.64h0v-.96l-.89-.64v-.96l-.6-1.61-1.79-2.57h-.6l-.89-.64h0l-.6.64h0l.6.96v.64h0l-.6.96h0l.6.96h0v.64l-.6-.64h0l-.89.64h0l.89.96h.6v.64h-.6v1.61h2.98l-.89-1.61h0l.89-.64h.89-.89v.64h.89l-.89.96h.89v.64l.6.96h0l.89.64h.6ZM360.62,593.96l.89-.64h0l-.89-1.61-.6-1.61-.89-.96-.6-.64-.89.64h0l.89.96h0l.6.64v1.61l.89,1.61h.6ZM359.13,589.14h0l.89.96h.6v.64h.89v.96l.6.64.89.96h1.49v-.96l-.89-.64h0v-.96h-.6v-.64h-.89v-.96h0l-.6-.64v-.96h-.89v.96h-1.49v.64ZM360.02,586.57h-1.49l.6.96h.89l.6-.96h-.6ZM355.25,571.15v.96l.89.64v-.64l.6.64h.89v-.64h0v-.96h0l-.89-.64v-.96l-.6-.96h-.89v.96l.89.96v.64h-.89ZM350.78,565.36h0l.89.96h0v-.96h-.89ZM358.53,564.72v.64h.6v-.64h-.6v-.96h-.89v-.64.64h0v.96h.89ZM360.02,563.76h-.89l.89.96h0l.6.64h1.49l.89-.64v-.96h0v-.64h-.89l-1.49-.96h-.6v.96h0v.64ZM356.74,563.11v-.96h0v-.64h-.6v-.96h-1.49v.96l.6.64h-1.49v.96h-.6l.6.64h-.6l.6.96.89.64.6.96.89,1.61h.6l.89.64v.96h1.49v-.96h0v-.64l-.6-.96v-.64h0l-.89-.96v-.64l-.89-.96h-.6v-.64h.6ZM355.25,557.97h-1.49v.96h1.49v-.96h0ZM349.89,556.37h-.6v.96l.6-.96h0ZM353.76,554.76h.89l-.89-.64.89-.96h0v-.64h0v-.96l-.89-.96h-.6l-.89-.64h0v-.96h1.49l-.6-.64v-.96h0v-.64h0l-.89-.96v-.64h-.6l-.89-.96h-2.38.89v1.61h0v1.61h0v.96h0v.64l.6.96.89,1.61v2.57h0l.89.64h2.09ZM303.68,484.39h-.89v.96l.89-.96h0ZM115.27,437.16h0v.64l.89-.64h.6-1.49ZM396.39,629.3l.89.64h1.49l.6-.64h0v-1.61l-.6-.96h-.89v-3.21h-.6v-.96l.6-.64h.89l2.09-1.61h1.49v-1.61h2.38l2.98.64v-.64h-2.98l-1.49-.96h-2.98l-1.49-.64h-10.14l-.6-.96v-.96h-.89l-.6-.64h-.89l-.6-.96v-1.61l-.89-.64h0l-.6-.96h.6l-.6-.64v-.96l-.89-.64-.6-.96h-2.38v.96h-1.49v-.96h-.89v-.64l-.6-.96-.89-.96-.6-.64-.89-.96v-1.61l-.89-.64-.6-.96v-1.61h1.49l-.89-.64v-1.93h.89l.89-.64h0v-.96h0v-.64l-.89-.96v-.64h.89l.6-.96v-.64l-.6-.96-.89-.64h-.89v-1.93h0v-.64l-.6-.96.6-.64h.89v-1.61h0v-.96h-.89v-1.61h0l.89-.64h0v-.96l-.89-.96-.6-.64v-.96h-.89v-.64h0l.89-.96v-.64h-.89v-.96l-.6-.64v-.96h.6v-.64l.89-.96-.89-.96h-.6l-.89-.64v-1.61h-2.98v-1.61.64l1.49-.64h1.49l.89.64v-1.61h0v-.64h0l-.89-.96h-2.98l-.6-.64v-.96h0v-.96h0v-.64h0l-.89-.96v-.64h0v-.96h-.89l-.6-.64v-.96h.6v-.64h-.6l-.89-.96h-1.49v-.64l-.6-1.93v-.64h0v-.96h0l-.89-.64v-.96h0v-.64h.89l.6-.96h0l-.6-.64-.89-.96-.6-1.61h0l-.89-1.61v-.96l-.6-1.61v-.64l-.89-.96v-1.61h0v-.64h0l.89-.96h-.89l-.89-.96h0v-.64h.89v-.96h0l-.89-.64v-.96l-.6-.64h.6v-.96h0v-1.61h0l-.6-1.61v-.64h.6v-.96h.89l.89-.96h0v-.64h0v-.96h-.89v-.64l-.89-.96v-1.61l-.6-.64-.89-.96-.6-1.61h0v-1.61l-.89-.96h0v-2.25l-.6-.96h0v-.64l.6-.96h-.6v-.64h.6v-.96h.89v-.96h.6v-.64h.89v-1.61l-.89-.96h0v-2.25h-.6v-1.61h-.89v-.96h.89v-3.21h0v-2.57h0v-.64h1.49l-.89-.96v-1.61l-.6-1.61v-2.57h0v-.64h-1.49l-.89-.96h0v-1.61h0v-.64h-.6l-.89-1.93v-1.61l-.89-.64h0l-.6-.96v-.64h0v-.96h-.89v-.64l-.6-.96-.89-.64v-3.53h.89v-.64h0v-.96h-.89l.89-.64v-2.57h0v-.64h.6l.89-.96h0v-.96h-.89v-1.61l-.6-.64v-1.61l-.89-1.61v-1.61h.89v-5.14l.6-.64v-.96h0l.89-.64v-.96l.6-.64h0v-3.53h.89v-2.25h2.38l.6-.96h0v-.64l-.6-.96-.89-.64-.6-.96v-.64h0v-.96h0l.6-.96v-.64l-1.49-2.57v-.64l-.89-.96v-2.25h.89v-.96h0v-.96h0l-.89-.64h0v-1.61h0v-.96h.89v-.64h.89l.6-.96.89-.64,1.49-.96h1.49v-.64h0l.6-2.57v-4.82l-.6-.96h-3.88l-.6-.64h0v-1.93l-.89-1.61h0v-1.61l-.89-.64v-1.61l-.6-.96v-.64l-.89-1.93-.6-.64-.89-1.61h-.6v-1.61h0v-.96h0l-.89-.64h-.6v-.96h0l.6-.64h-.6v-.96h0v-.96h.6v-.64h0v-.96l-.6-.64h0l.6-.96v-.64h0v-.96h0l-.6-.64h0l-.89-.96h-.6l-.89-.64v-.96h0v-.96l-.89-.64v-1.61l-.6-.96v-.64h0v-.96h0v-.64h0l-.89-.96h-.6v-.64l-.89-1.93-.6-.64v.64l-.89.96h-.6v1.61l.6.96-.6.64v.96h-.89l-.6.64h-1.79.89v3.21l.89,3.53.6,1.61v.64l.89.96v7.39l1.49,3.86v11.57l-.89.96v.64h-.6v2.57l.6.64h.89v9l1.49,3.53h0v1.61l-.89.64h0v2.57l.89.64v7.39l-.89,1.61v.96l.89,1.61h0v.96l-.89.64h0v6.43l-.6.96v.64h0v2.57l1.49.96v.64l.6,1.61v3.21l-1.49,1.93.89,1.61v1.61l.6,1.61v.64l.89,2.57.6,2.57.89,3.21,1.49.64v4.18l-.6.96h0l.6,1.61v.64l.89.96v.64l-.89,1.61v1.93l-.6.64.6.96v5.46l-.6,1.93v1.61h0l-.89.64.89.96v.64l-.89.96.89,3.21-.89.96v5.46h-.89l-1.49-.64v1.61l.89.64v1.93l1.49,1.61.89.64v2.57l.6.64v.96l2.98,4.82v4.18h0l-.6.64v1.61l.6,1.93v3.86l.89.96.6,1.61v.64h.89l.6.96h.89-.89v.96h0l.89.64h2.38v-.64l.6-.96v-.96h.89v.96l1.49.96h.6v-1.93h.89v.96l-.89.96h-.6v.64h-.89v.96h.89l.6.64.89-.64.89,1.61.6,1.61h0l-.6-.96-.89-.64h-.89v.64h0l.89.96.89.64h-.89v2.57h.89l.6.96v.64h-.6v.96l-.89.64.89.96.6,1.61v1.61h-.6l.6.64v.96l.89.96h.6l1.49.64.89.96.6.64v.96l-1.49,1.61h-1.49v1.61l.89.64h.6l1.49.96v.96h.89l-1.49-.96h-.89l-.6.96h-1.49l.6,1.61h.89v.64l.6.96v2.25h.89v2.57h-.89v-.96h0v-3.21h-.6v-1.61h-.89v3.21h-2.09.6l.89-.64v-1.61h0v-2.57h0v-.64h-1.49v.64l.6.96h0l-.6.64h-3.28l-1.49.96.89.64.6.96h0v.64l-.6.96-.89.64h0l-.6.96v1.61h.6l.89.96h.6v-.96l-.6-.64h-.89l.89-.96h1.49v-.96h0v.96l.6.96h0l1.79.64h.6l.89.96h0v-.96h.6l.89.96h.6v.64l.89.96h-.89l-.6.64v.96l1.49.64h0l.6.96h-2.09v.64h.6l.89.96h.6v.96h2.38v-2.57h.89l.6,1.61v.96h.89l.6.64.89.96h-.89l-2.09-.96h-2.38l-.89-.64h-.6v1.61l.6.64h.89v.96l.6.64.89-.64h1.49l-.6.64h-.89v1.61l.89,1.61,1.49,2.57v.96h.6v-1.61h0v-1.93h0v.96h0l.89.96v.64h0v.96h.6l.89.64h-2.38v.96l.89.64.6.96h.89l.6.64h0l-2.09-.64v.64l-.89.96.89.64.6.96h.89l1.49.96h.6-1.49l.89.64h0l.6.96.89.64.89-.64v-1.61h0v.64h.6l-.6.96v.64l.6.96h0l-2.38-.96h0v-.64l-1.49-.96-.6-.64-1.49-.96h-.89v.96h.89l.6.64h0l-.6.96h-1.49l.6.64h.89l1.49,1.61h.6l.89.96h2.38l.6.64h.89l.6,2.57-.6-.96-.89.96h.89l.6.64h1.49l.89.96.6.96h.89l.89.64.6-.64.89-.96,1.49-.96h0l-.89-.64h-.6l-2.38-.96h0l-.89-.64h.89l2.38.64,1.49.96v.64l.6.96h-.6l.6.96h0l.89.64v.96h0v.64h-.89l.89-.64h0l-.89-.96h0l-.6-.64h-.89l-.6.64h-3.28v.96h-.6l-.89-.96h-1.49v.96l.89.64h1.49v1.61h.6l.89.96h1.49l.89-.96h.6v-.64h0l.89.64h0l-.89.96h0l-1.49.64.89.96h.6l.89.64h1.49v-.64h0v-2.57h0l.6-.64.89.64h.6v-.64l2.38.64h2.38-.89v.96h-.6l-.89-.96h-.6l-1.79,1.61h-.6l-.89-.64h0v.64h-.6l.6.96v1.61h0v.96h.89l1.49.64h.89v-.64h0l.6-.96v-.96l1.49-.64,1.49-1.61.89.64h.6v.96h0v.64h-.6l-.89.96.89,2.57h-.89v-.96h0l-.6-.64-.89-.96v.96h-1.49v.64h.89l1.49,1.61h0l1.49.96h1.49Z"/>
      <path class="cls-3" d="M423.82,643.12h-1.49v.96h1.49v-.96h0ZM424.42,642.16h-.6v-.64h0v.64h-.89v.96h1.49v-.96ZM426.8,638.94h-.89v.96h.89v-.96h0ZM422.33,639.91h.6l.89-.96h0v-.64h-.89l-.6-.96h-5.37l.6.96.89.64h.6l1.79.96h0v-.96h1.49v.96ZM419.94,641.51v-.96h-.89l-.6-.64h0l-.89-.96h-1.49v-.64h.89l-.89-.96h-.6l-1.49.96-3.88-.96-1.49-.64.6,1.61h0v.64h1.49l.89.96h0l.6.64h2.38-1.49v-.64h0v-.96h1.49v.96-.96h.89v.96h0v.64h1.49l.6.96h1.49l.89.64h.89v-.64h-.89ZM406.23,637.34h-2.38l-.6-.64h-2.38v.64h.89v-.64l.6.64h1.49v.96h2.38v.64h.89l.6-.64h0l-1.49-.96ZM397.88,632.52h.89l.6.64h1.49v-.64h0v-.96h-1.49l-.6-.64h-1.49l-.89-.96h-2.38v.96l.89.64,1.49.96v.64l.89-.64h.6ZM393.41,629.3h-.89v-.96h-.6l-.89-.64h-2.38v-.96h-1.49.89v.96l-1.49-.96h-1.49l-.89.96h1.49v.64l.89.96h1.49v.64h.6v.96h.89v-.96h1.49v.96h0l-.6.64h2.09v-.64h.89v-.96h0v-.64ZM384.17,626.09h1.49l.89.64.6-.64h-1.49l-.6-.96h-.89l-.6-.96h-1.49l-.89-.64h-1.49l-.89-.96h-.6l-.89-.64h0v.64h.89l.6.96h.89l.6.64h2.38l.89.96h.6v.96ZM409.21,635.73l.89.96h.6l2.38.64.89-.64h.6l-.6-1.61-.89-1.93-.89-2.25-.6-1.61-.89-1.61-.6-1.61-1.49-2.57-.89-1.61v-.96h-.6l-1.49.96h0l-2.38-1.61h0l-.89.64h0v.96l-.6.64h-.89l-.6-.64h-.89l.89.64h0l.6.96h0v.64l-.6-.64v.64h0v.96h0l.6.96.89.64h1.49l.6-.64h1.79l.6.64h0l.89.96h0l-1.49.64h-.89l-.89.96h0v.64l.89.96.89.64,5.07,1.61h.89v.96h-.89v.96h0l-.6-.96h0l-.89-.96h-3.58l-.89-.64-.89-.96h-.6l-.89-.64h.89l-.89-.96-.6-1.61h-.89v.96h.89l-1.49.64.6.96v.64l1.49.96h.89v.64h.6l1.79.96h-2.38v-.96h-1.49v.96h-.89l-1.49-.96h0v.96h-2.09l.6.96h2.38l1.49.64h2.09l1.79.96.6-.96h0l.89.96h1.49v-.96h.6ZM377.31,616.13h0l-.6-.96h-1.49l.6.96h1.49ZM375.82,617.09h-.6l-.89-.96h-.89v-.96l-.6-.64h0v.64h-.89l.89.96.6.96.89.64.89.96h.6l-.6-.96.6-.64ZM371.95,612.92h1.49v-.96h-.6v-.64h-.89l-.6.64h-1.49v.96h0v.64l.6.96v-.96h0v-.64h1.49ZM366.88,606.49h-.89v.64h0l.89.96h.6l-.6-.96h.6v-.64h-.6ZM366.88,602.96h-1.79v.96h0v1.61h1.79l.6-.96h0l.89-.64h-.89l-.6-.96ZM363,594.92h-.89v-.96h-.6l-.89.96h-.6v.64h.6l.89.96h-.89v.96h.89l.6-.96h0l.89-1.61ZM368.97,602.96v-1.61h0l-.6-.64h0v-.96l-.89-.64v-.96l-.6-1.61-1.79-2.57h-.6l-.89-.64h0l-.6.64h0l.6.96v.64h0l-.6.96h0l.6.96h0v.64l-.6-.64h0l-.89.64h0l.89.96h.6v.64h-.6v1.61h2.98l-.89-1.61h0l.89-.64h.89-.89v.64h.89l-.89.96h.89v.64l.6.96h0l.89.64h.6ZM360.62,593.96l.89-.64h0l-.89-1.61-.6-1.61-.89-.96-.6-.64-.89.64h0l.89.96h0l.6.64v1.61l.89,1.61h.6ZM359.13,589.14h0l.89.96h.6v.64h.89v.96l.6.64.89.96h1.49v-.96l-.89-.64h0v-.96h-.6v-.64h-.89v-.96h0l-.6-.64v-.96h-.89v.96h-1.49v.64ZM360.02,586.57h-1.49l.6.96h.89l.6-.96h-.6ZM355.25,571.15v.96l.89.64v-.64l.6.64h.89v-.64h0v-.96h0l-.89-.64v-.96l-.6-.96h-.89v.96l.89.96v.64h-.89ZM350.78,565.36h0l.89.96h0v-.96h-.89ZM358.53,564.72v.64h.6v-.64h-.6v-.96h-.89v-.64.64h0v.96h.89ZM360.02,563.76h-.89l.89.96h0l.6.64h1.49l.89-.64v-.96h0v-.64h-.89l-1.49-.96h-.6v.96h0v.64ZM356.74,563.11v-.96h0v-.64h-.6v-.96h-1.49v.96l.6.64h-1.49v.96h-.6l.6.64h-.6l.6.96.89.64.6.96.89,1.61h.6l.89.64v.96h1.49v-.96h0v-.64l-.6-.96v-.64h0l-.89-.96v-.64l-.89-.96h-.6v-.64h.6ZM355.25,557.97h-1.49v.96h1.49v-.96h0ZM349.89,556.37h-.6v.96l.6-.96h0ZM353.76,554.76h.89l-.89-.64.89-.96h0v-.64h0v-.96l-.89-.96h-.6l-.89-.64h0v-.96h1.49l-.6-.64v-.96h0v-.64h0l-.89-.96v-.64h-.6l-.89-.96h-2.38.89v1.61h0v1.61h0v.96h0v.64l.6.96.89,1.61v2.57h0l.89.64h2.09ZM303.68,484.39h-.89v.96l.89-.96h0ZM115.27,437.16h0v.64l.89-.64h.6-1.49ZM396.39,629.3l.89.64h1.49l.6-.64h0v-1.61l-.6-.96h-.89v-3.21h-.6v-.96l.6-.64h.89l2.09-1.61h1.49v-1.61h2.38l2.98.64v-.64h-2.98l-1.49-.96h-2.98l-1.49-.64h-10.14l-.6-.96v-.96h-.89l-.6-.64h-.89l-.6-.96v-1.61l-.89-.64h0l-.6-.96h.6l-.6-.64v-.96l-.89-.64-.6-.96h-2.38v.96h-1.49v-.96h-.89v-.64l-.6-.96-.89-.96-.6-.64-.89-.96v-1.61l-.89-.64-.6-.96v-1.61h1.49l-.89-.64v-1.93h.89l.89-.64h0v-.96h0v-.64l-.89-.96v-.64h.89l.6-.96v-.64l-.6-.96-.89-.64h-.89v-1.93h0v-.64l-.6-.96.6-.64h.89v-1.61h0v-.96h-.89v-1.61h0l.89-.64h0v-.96l-.89-.96-.6-.64v-.96h-.89v-.64h0l.89-.96v-.64h-.89v-.96l-.6-.64v-.96h.6v-.64l.89-.96-.89-.96h-.6l-.89-.64v-1.61h-2.98v-1.61.64l1.49-.64h1.49l.89.64v-1.61h0v-.64h0l-.89-.96h-2.98l-.6-.64v-.96h0v-.96h0v-.64h0l-.89-.96v-.64h0v-.96h-.89l-.6-.64v-.96h.6v-.64h-.6l-.89-.96h-1.49v-.64l-.6-1.93v-.64h0v-.96h0l-.89-.64v-.96h0v-.64h.89l.6-.96h0l-.6-.64-.89-.96-.6-1.61h0l-.89-1.61v-.96l-.6-1.61v-.64l-.89-.96v-1.61h0v-.64h0l.89-.96h-.89l-.89-.96h0v-.64h.89v-.96h0l-.89-.64v-.96l-.6-.64h.6v-.96h0v-1.61h0l-.6-1.61v-.64h.6v-.96h.89l.89-.96h0v-.64h0v-.96h-.89v-.64l-.89-.96v-1.61l-.6-.64-.89-.96-.6-1.61h0v-1.61l-.89-.96h0v-2.25l-.6-.96h0v-.64l.6-.96h-.6v-.64h.6v-.96h.89v-.96h.6v-.64h.89v-1.61l-.89-.96h0v-2.25h-.6v-1.61h-.89v-.96h.89v-3.21h0v-2.57h0v-.64h1.49l-.89-.96v-1.61l-.6-1.61v-2.57h0v-.64h-1.49l-.89-.96h0v-1.61h0v-.64h-.6l-.89-1.93v-1.61l-.89-.64h0l-.6-.96v-.64h0v-.96h-.89v-.64l-.6-.96-.89-.64v-3.53h.89v-.64h0v-.96h-.89l.89-.64v-2.57h0v-.64h.6l.89-.96h0v-.96h-.89v-1.61l-.6-.64v-1.61l-.89-1.61v-1.61h.89v-5.14l.6-.64v-.96h0l.89-.64v-.96l.6-.64h0v-3.53h.89v-2.25h2.38l.6-.96h0v-.64l-.6-.96-.89-.64-.6-.96v-.64h0v-.96h0l.6-.96v-.64l-1.49-2.57v-.64l-.89-.96v-2.25h.89v-.96h0v-.96h0l-.89-.64h0v-1.61h0v-.96h.89v-.64h.89l.6-.96.89-.64,1.49-.96h1.49v-.64h0l.6-2.57v-4.82l-.6-.96h-3.88l-.6-.64h0v-1.93l-.89-1.61h0v-1.61l-.89-.64v-1.61l-.6-.96v-.64l-.89-1.93-.6-.64-.89-1.61h-.6v-1.61h0v-.96h0l-.89-.64h-.6v-.96h0l.6-.64h-.6v-.96h0v-.96h.6v-.64h0v-.96l-.6-.64h0l.6-.96v-.64h0v-.96h0l-.6-.64h0l-.89-.96h-.6l-.89-.64v-.96h0v-.96l-.89-.64v-1.61l-.6-.96v-.64h0v-.96h0v-.64h0l-.89-.96h-.6v-.64l-.89-1.93-.6-.64v.64l-.89.96h-.6v1.61l.6.96-.6.64v.96h-.89l-.6.64h-1.79.89v3.21l.89,3.53.6,1.61v.64l.89.96v7.39l1.49,3.86v11.57l-.89.96v.64h-.6v2.57l.6.64h.89v9l1.49,3.53h0v1.61l-.89.64h0v2.57l.89.64v7.39l-.89,1.61v.96l.89,1.61h0v.96l-.89.64h0v6.43l-.6.96v.64h0v2.57l1.49.96v.64l.6,1.61v3.21l-1.49,1.93.89,1.61v1.61l.6,1.61v.64l.89,2.57.6,2.57.89,3.21,1.49.64v4.18l-.6.96h0l.6,1.61v.64l.89.96v.64l-.89,1.61v1.93l-.6.64.6.96v5.46l-.6,1.93v1.61h0l-.89.64.89.96v.64l-.89.96.89,3.21-.89.96v5.46h-.89l-1.49-.64v1.61l.89.64v1.93l1.49,1.61.89.64v2.57l.6.64v.96l2.98,4.82v4.18h0l-.6.64v1.61l.6,1.93v3.86l.89.96.6,1.61v.64h.89l.6.96h.89-.89v.96h0l.89.64h2.38v-.64l.6-.96v-.96h.89v.96l1.49.96h.6v-1.93h.89v.96l-.89.96h-.6v.64h-.89v.96h.89l.6.64.89-.64.89,1.61.6,1.61h0l-.6-.96-.89-.64h-.89v.64h0l.89.96.89.64h-.89v2.57h.89l.6.96v.64h-.6v.96l-.89.64.89.96.6,1.61v1.61h-.6l.6.64v.96l.89.96h.6l1.49.64.89.96.6.64v.96l-1.49,1.61h-1.49v1.61l.89.64h.6l1.49.96v.96h.89l-1.49-.96h-.89l-.6.96h-1.49l.6,1.61h.89v.64l.6.96v2.25h.89v2.57h-.89v-.96h0v-3.21h-.6v-1.61h-.89v3.21h-2.09.6l.89-.64v-1.61h0v-2.57h0v-.64h-1.49v.64l.6.96h0l-.6.64h-3.28l-1.49.96.89.64.6.96h0v.64l-.6.96-.89.64h0l-.6.96v1.61h.6l.89.96h.6v-.96l-.6-.64h-.89l.89-.96h1.49v-.96h0v.96l.6.96h0l1.79.64h.6l.89.96h0v-.96h.6l.89.96h.6v.64l.89.96h-.89l-.6.64v.96l1.49.64h0l.6.96h-2.09v.64h.6l.89.96h.6v.96h2.38v-2.57h.89l.6,1.61v.96h.89l.6.64.89.96h-.89l-2.09-.96h-2.38l-.89-.64h-.6v1.61l.6.64h.89v.96l.6.64.89-.64h1.49l-.6.64h-.89v1.61l.89,1.61,1.49,2.57v.96h.6v-1.61h0v-1.93h0v.96h0l.89.96v.64h0v.96h.6l.89.64h-2.38v.96l.89.64.6.96h.89l.6.64h0l-2.09-.64v.64l-.89.96.89.64.6.96h.89l1.49.96h.6-1.49l.89.64h0l.6.96.89.64.89-.64v-1.61h0v.64h.6l-.6.96v.64l.6.96h0l-2.38-.96h0v-.64l-1.49-.96-.6-.64-1.49-.96h-.89v.96h.89l.6.64h0l-.6.96h-1.49l.6.64h.89l1.49,1.61h.6l.89.96h2.38l.6.64h.89l.6,2.57-.6-.96-.89.96h.89l.6.64h1.49l.89.96.6.96h.89l.89.64.6-.64.89-.96,1.49-.96h0l-.89-.64h-.6l-2.38-.96h0l-.89-.64h.89l2.38.64,1.49.96v.64l.6.96h-.6l.6.96h0l.89.64v.96h0v.64h-.89l.89-.64h0l-.89-.96h0l-.6-.64h-.89l-.6.64h-3.28v.96h-.6l-.89-.96h-1.49v.96l.89.64h1.49v1.61h.6l.89.96h1.49l.89-.96h.6v-.64h0l.89.64h0l-.89.96h0l-1.49.64.89.96h.6l.89.64h1.49v-.64h0v-2.57h0l.6-.64.89.64h.6v-.64l2.38.64h2.38-.89v.96h-.6l-.89-.96h-.6l-1.79,1.61h-.6l-.89-.64h0v.64h-.6l.6.96v1.61h0v.96h.89l1.49.64h.89v-.64h0l.6-.96v-.96l1.49-.64,1.49-1.61.89.64h.6v.96h0v.64h-.6l-.89.96.89,2.57h-.89v-.96h0l-.6-.64-.89-.96v.96h-1.49v.64h.89l1.49,1.61h0l1.49.96h1.49Z"/>
      <path class="cls-1" d="M270.29,97.86h-.89v.64h1.49v-.64h-.6ZM277.74,95.29h-.6.6ZM279.23,95.29h-.6.6Z"/>
      <path class="cls-3" d="M270.29,97.86h-.89v.64h1.49v-.64h-.6ZM277.74,95.29h-.6.6ZM279.23,95.29h-.6.6Z"/>
      <path class="cls-1" d="M367.48,104.28v.96h0l.89-.96h-.89ZM368.97,104.28h.89-.89ZM369.86,102.68h-.89.89Z"/>
      <path class="cls-3" d="M367.48,104.28v.96h0l.89-.96h-.89ZM368.97,104.28h.89-.89ZM369.86,102.68h-.89.89Z"/>
      <path class="cls-1" d="M469.43,439.41v.96h0v1.61h0v-.64l.6-.96v-.96h-.6ZM467.94,432.34h0v-1.93h0l-.89.96.89.96ZM485.23,412.42h-.6l-.89.96.89.96h.6v-.96h0v-.96h0ZM490.6,407.6h0l-.89.96h1.79l-.89-.96ZM516.53,337.23h.6v.96h0v-.96h-.6ZM518.62,333.38v.64l-.6.96h0l.6-.96h0v-.64h0ZM481.35,260.44v-.64h0v-.96h0v.96h-.6l.6.64-.6.96.6-.96ZM478.37,249.19h.89v-.96h-.89v.96h0ZM436.64,249.84h.89l1.49-.64.6-.96.89-1.61h0l.6-2.57v-.64h-1.49l-.6.64-.89,1.61v1.61l-.6.96-.89,1.61ZM450.95,240.84h-.6l-2.98-.64h-1.49l-1.49.64v2.57h0l-.89.64h0v2.57l.89.64h.6-.6v3.53l.6.64h0l.89.96h2.09v-.96h.89v.96h1.49l.6-.96h0v-.64h2.38v-.96h.89v.96l.6-.96h0l.89-.64h0v-.96h0l.6-.96h0v-.64l.89-.96h0v-1.61h0l.6-.64v-1.61h0v-.96h-2.09l-2.38-.64h0l-.6.64h-1.79ZM442,240.84l.6.96,1.79-1.61h0l-.89-.96h0l-.89.96-.6.64h0ZM449.46,239.23v.96h2.38v-.96h0l-.89-.96h0l-.6.96h-.89ZM447.37,237.63h-.89v1.61h2.98l.89-1.61h0l-1.49-.96-1.49.96ZM445.88,238.27l.6-.64v-2.57h-.6v1.61l-.89.96h0v1.61h.89v-.96ZM447.37,236.66l.6-1.61h0v-.64h0v.64h-1.49v1.61h.89ZM445.88,225.42h.6v-1.61h-.6v1.61h0ZM540.08,293.21v-2.57h0v-.64l-.89-.96v-3.21l-.6-1.61-.89-1.61v-2.57l-1.49-2.25v-.96h-.89l-2.09-.64-1.49.64-1.79-.64-.6.64-.89-.64-.6-.96h-2.38l-.6-1.61-1.49-.96-1.79-1.61-1.49-.64-1.49-2.57h0l-.6-1.61h-1.49l-1.49-1.61-.89-.96-1.49-.64-1.49-.96v-.64h-1.49l-.89-.96-1.49-.64h-1.49l-2.38.64h-4.47l-.89-.64h-2.98l-2.09-.96-.89-.64h-.6l-.89-.96-1.49-.96h-.89l-.6.96h0l-1.49.96h-.89l-.6.64-.89.96h-.89l.89-.96v-.64h0v-.96h-.89v.96l-.6.64v1.61l-1.49,1.61-.89.96v-.96l.89-2.25v-1.61h.6v-.96h0l.89-.96v-1.61l-.89.96h-.6v.64h-.89v-.64h.89v-.96h0l.6-.64v-.96l-.6-.64h-.89v-.96h-.6v-.64h-.89l-.6-.96h0l-.89,1.61h-.6v-.64l-.89-1.61h-.89l-.6-.96h-1.49v-.96h-1.49v-.64h-2.38v-.96l-.6-.64h-2.38v-.96h-1.49v.96h-.89v-.96h-2.09v.96l-.89-.96h0l-.89.96h0l-.6.64v.96h0l-.89.64v1.93h0v.64h.89l-.89.96h-.6v-.96h-.89l-1.49,2.57-1.49.64h0l-1.49,3.21v.96l-.89.96v.64h0v-.64h0l.89-2.57h0v-1.61l.89-2.57-1.79,1.61h-2.09v-.64l-.89.64h-.6l-1.49.96-.89-.96v-.64h-.6v-.96h0l-.89-1.61v-.64h0v-.96l-.89-.96h0l.89-.64h0l-.89-.96v.96h-.6l-.89.64-.6.96-1.49.96h0l-2.38,1.61-1.49.64-.89-.64h-1.49l2.38-1.61,1.49.64v-.64h0v-.96l.89-.96.6-.64v-1.61l.89-1.61h.6v-.96l.89-1.61v-.64l1.49-.96.6-.96h0l.89-.64h.89l.6-1.61.89-1.61.6-.96h0l1.49-1.61h0l.89-.64h0v-4.18h-.89l-.6-.96h-1.49l-.89-.64v-1.61h-.6v-1.61l-.89-.96v-1.61l-.89-2.57v-1.61l-.6-3.21-.89-3.21v-.96h-1.49l-.6,1.61h-.89v.96h0l-.6.64h0v.96h-.89l-.89,1.61v.96l-.6.64h0l-.89.96h0v.64h0v.96h-.6v2.25h-.89v.96l-.6.96h0l-.89.64h0l-.6.96h0l-.89-.96h-.6l-.89-.64h0v.64h-1.49l-.89-.64h-.6v.64h0l-1.49.96h-.89l-.6-.96h-.89l-.6-.64h0l-.89-.96h-.89v-.96h-1.49l-.6.96h-2.38l-.6.96-.89-.96h-.89v.96h-.6v.64h.6v.96h.89v.64h0v.96h0l-.89.64-1.49-.64h-4.47v-.96h-.6l-.89.96v-.96.96h-.89l-.6.64v.96h-2.38v.64h-.6v.96l-.89-.96h-1.49v.96h-.6l.6.64h0l-.6.96h-2.38v-.96h-1.49l-.89-.64h0v-.96l-.6-.64h-.89l-.6-.96h0v-.64h0v-2.57l-.89-.64h0l-.89-1.93v-3.86l.89-.96v-.64h0v-1.61l.89-.96h.6v-1.61h.89-.89v-1.61h-.6v-.96h0l.6-.64h-.6v-.96h-2.38v-.64h0l.6-.96h0v-2.57h0v-.64h0l-.6-.96h0l-.89.96h-1.49l-.6-.96v.96h0v.64h.6v.96h-.6v.96h-.89v.64h-.6v.96l-.89.64h-2.38v.96l-.6.64-1.49.96h-3.88l-.89.64h-.6v.96l-.89,1.61v.96h-.6l-.89-.96-.6-.96-.89-.64h-4.47v-.96l-.89-.64h-2.09l-.89-.96h-.6l.6,1.61h0l.89.96,1.49,1.61.6.96v3.86l.89,1.61v1.61h0v.96h3.88v2.57h-.89l-.6.64h-1.79l-.6.96h0v.64l-.89,1.61h0l-.6.96h-1.49v.64h-.89l-.6.96h-.89l-.6.96h-.89v.64l-.89.96h-.6v.64l-.89.96h0v-1.61h0l-.6-.96h0l-.89.96h-.6l-.89.64h-2.38l-1.49-1.61-1.49-1.61-.6.96v-.96h0v-3.21l-.89-.96-.6-1.61v-.64h-.89l-.6.64h0l-.89.96-.89.64h-1.49v-.64h0l-.6-.96v.96h0v.64h0v.96h-6.86l-.89-.96h-.6l-.89.96h-.6v4.82-.64h.6v.64l.89-.64v.64h2.09v.96h0v.64h0v.96h-2.98l-.6.64h-1.49v5.78l.6.96h.89l.6.64h0l.89.96h0v.64h0v.96h0v.64h.6v.96h0v.64h0l.89.96h-.89v4.18l-.6,1.61v4.82l-.89,2.57v2.25l-.6,2.57v4.18h0l-.89.64h0l-.6-.64h-.89v-.96h-2.98v.96h-.89v.64h-1.49l-.6.96h-3.28l-.6.64h-.89l-.6.96-.89.64-.6.96-.89.96h-.6l-.89.64h0v.96l-.6,1.61v.64h0v1.61l-.89.96v.64h-.89l.89.96v1.61h0v.96h0v.64h-.89l-.6.96-1.49.64v.96h0l-.89.64v.96h.89v.64h0v.96h-1.49v.64h0v.96h.6l.89.96h0v.64h0v.96h0l.6.64h0v.96h0l.89.64h0v.96h.6v.64h.89v.96h0l.89.64.6.96h0l.89.96v.64l-.89,1.61-.6.96h3.58l.89.64h.6v.96l.89.64h0l.6.96-.6.64h5.96l.89-.64h0l.6-.96.89-.64h0v-.96h1.49v-.64.64h0v1.61h0v9h1.49v.96h1.49l.89-.96h6.86l.6.96h1.49l.89-.96h.6l.89-1.61h0l.89-.64h1.49l.6-.96.89-.64h.6v-.96h.89l2.09-2.57.89-.64h2.38l2.09-.96h.89l.6.96h0l.89-.96h.89v2.57l.6.96v.64l-.6.96h0v2.25l.6.96v1.61l-.6.64h.6v.96h0v.96l.89.64h0v1.61h.6l.89.96h0v.64h.6l.89.96h.6v.64h.89v.96l.6.64h.89l1.49.96h.89l.6-.96h.89v.96h.6v.96h2.98v.64h0l.89.96.89.64h.6l.89.96h2.09v.64h.89l.6,1.61h0l.89.96h3.88l.6-.96.89.96,1.49.64.6.96h0l.89.96h0v1.61h0v.64h0l.89.96v1.61l.6.64v3.53h-1.49l.89,1.61,1.49.64v3.21l.6,1.61v.96h2.38l2.38.96h5.96v-.96h0v1.61h0l-.89,1.61h0l.89,1.61v1.61l.6.96h0l.89.64,1.49.96.89.64v-.64l.6.64v.96l.89,1.61.6,1.61h0v.96h0l-.6,1.61v3.21h0v.96h0l-.89,1.61v.64l-.6,1.61v.96l.6.64.89.96v.64h-.89v.96h-.6v.96h0l.6.64h0v.96h0l.89.64h0v.96h.6l-.6.64h.6v.96h0v1.61h0v.64h0v.96h0v.96h0v.64h0v.96h0v.64h0v.96h0v.64h0l.89.96h0l.6-.96h0l.89.96h2.98l.89.64h2.09v-.64h0v-.96h.89l.6.96h0l.89.64h2.38v.96h.6v1.61h.89v1.61h0v1.61h0l.6.96v.64h0v.96h0v1.61h.89v.64h0v.96l.6.96h3.28v-.96h2.09l.89.96.6.64h-.6v.96l.6.64v1.61l-.6,2.57v1.61h.6l-.6.96v2.25h0l.6.96h0l.89-.96h1.49l.6.96h0l.89.64v1.61l.89.96.6.64v.96h0v3.21h0v2.57l-.6.64h-.89v.96l-.89-.96v1.61h-2.09v.96h-1.49v.96h0v.64h-.89v.96h-.6l-.89.64h0l-.6.96h0l-.89.64h0v.96h-.89v.64h-.6v.96h0l-.89.64v.96l-.6.64v.96l-.89.96h0l-.6.64v1.61l-.89.96-.6.64-.89.96-.6.64h0v.96l-.89.64-.89.96h3.28v-.96h1.49l.6.96,2.38,1.61,1.49.96.89.64v.96h.6v1.61h1.49v-.96h.89v-.64.64h.6l.89.96v.64h.6v.96h.89v.64l.6-.64.89.64,1.49.96.89.96h.6l.89.64.6.96.89.64h.6l.89.96h.89v.64h0l.6.96v.64l.89.96,1.49.64h.6v.96h.89l-.89.96v.64l-.6.96h0l-.89.64h0l.89,2.57v.64h0v.96h1.49l1.49-2.57.6-.64.89-.96v-2.25l.89-2.57v-.96l.6-.64v-1.61l-.6-.96h0v-1.61l.6-.64v-1.93h0l1.49-.64.89-.96v-.64h0v-.96l.6-.64-.6-.96h.6v.96-2.57h0l.89-.64-1.49-.96v-1.61h0l.6.64v.96h.89l.6.96h0l1.49-.96h.89v1.61h-.89l.89,1.61-.89.96-.6.64v.96h0v.64l-.89-.64v2.25l-.6.96-.89.96-.6,1.61h-2.38v.64h0v.96l.89.64v-.64l.6-.96,1.49-1.61,1.49-1.61,1.49-1.61.89-1.61v-.96l1.49-3.21.89-4.82,1.49-3.21.6-1.61,1.49-1.93.89-1.61,1.49-.64v-1.61l.89-.96v-.64l-.89-2.57v-4.18h0v-.64h0l-.6-1.61-.89-1.61h0v-2.57h-.89l.89-.96h0v-2.25h.89v-2.57h-1.79v-.64h1.79v-.96h1.49l-.89.96h.89l.6-1.61h.89v-.96h-.89v-.96h.89l1.49-1.61,2.09-1.61,1.79-2.25,1.49-.96,2.98-2.57h2.09l.89.96h0v-1.61h1.49l1.49-1.61,1.49-.96h.89l-.89-.64h0v-.96h0l1.49-.64h3.88l-.6.64h-.89,2.38l1.49-.64h.6v-.96h-.6l.6-.64h.89v1.61h5.96v-.96l.89-.64h-.89v-.96h0l1.49-2.57h.89l2.38-1.61.6-.64h0v-2.57h0l-.6-.64.6-1.93.89-1.61v-1.61h.6l1.49-1.61v-2.25l.89-.96v-1.61l.6-1.61,1.79-.96h0v-9.64l.6-1.61.89-.96.6-.64.89-.96h-.89v-6.43l.89-2.57v-1.61l.6-2.57v-.64l-.6-1.61-.89-2.57v-9h0v.96l-.6-.96h0v-1.61l.6-.96h0l-.6-.64h0v-1.61h.6l.89-1.61v-1.61h0l-.89-.96h.89v-.64h.6l.89.64v1.61h.6l.89-.64,1.49-2.57v-.96l1.49-2.25,1.49-3.21v-3.53h.89v.96h-.89v.96h.89l.6-1.93v-.64h0l1.49-1.61.89-1.61h.6l1.79-.96h0l.6-2.25.89-.96.6-1.61.89-.96h-.89.89l1.49-1.61,1.49-2.25.89-1.61.6-4.18.89-2.57v-2.25h0v-.96h0v-1.61Z"/>
      <path class="cls-3" d="M469.43,439.41v.96h0v1.61h0v-.64l.6-.96v-.96h-.6ZM467.94,432.34h0v-1.93h0l-.89.96.89.96ZM485.23,412.42h-.6l-.89.96.89.96h.6v-.96h0v-.96h0ZM490.6,407.6h0l-.89.96h1.79l-.89-.96ZM516.53,337.23h.6v.96h0v-.96h-.6ZM518.62,333.38v.64l-.6.96h0l.6-.96h0v-.64h0ZM481.35,260.44v-.64h0v-.96h0v.96h-.6l.6.64-.6.96.6-.96ZM478.37,249.19h.89v-.96h-.89v.96h0ZM436.64,249.84h.89l1.49-.64.6-.96.89-1.61h0l.6-2.57v-.64h-1.49l-.6.64-.89,1.61v1.61l-.6.96-.89,1.61ZM450.95,240.84h-.6l-2.98-.64h-1.49l-1.49.64v2.57h0l-.89.64h0v2.57l.89.64h.6-.6v3.53l.6.64h0l.89.96h2.09v-.96h.89v.96h1.49l.6-.96h0v-.64h2.38v-.96h.89v.96l.6-.96h0l.89-.64h0v-.96h0l.6-.96h0v-.64l.89-.96h0v-1.61h0l.6-.64v-1.61h0v-.96h-2.09l-2.38-.64h0l-.6.64h-1.79ZM442,240.84l.6.96,1.79-1.61h0l-.89-.96h0l-.89.96-.6.64h0ZM449.46,239.23v.96h2.38v-.96h0l-.89-.96h0l-.6.96h-.89ZM447.37,237.63h-.89v1.61h2.98l.89-1.61h0l-1.49-.96-1.49.96ZM445.88,238.27l.6-.64v-2.57h-.6v1.61l-.89.96h0v1.61h.89v-.96ZM447.37,236.66l.6-1.61h0v-.64h0v.64h-1.49v1.61h.89ZM445.88,225.42h.6v-1.61h-.6v1.61h0ZM540.08,293.21v-2.57h0v-.64l-.89-.96v-3.21l-.6-1.61-.89-1.61v-2.57l-1.49-2.25v-.96h-.89l-2.09-.64-1.49.64-1.79-.64-.6.64-.89-.64-.6-.96h-2.38l-.6-1.61-1.49-.96-1.79-1.61-1.49-.64-1.49-2.57h0l-.6-1.61h-1.49l-1.49-1.61-.89-.96-1.49-.64-1.49-.96v-.64h-1.49l-.89-.96-1.49-.64h-1.49l-2.38.64h-4.47l-.89-.64h-2.98l-2.09-.96-.89-.64h-.6l-.89-.96-1.49-.96h-.89l-.6.96h0l-1.49.96h-.89l-.6.64-.89.96h-.89l.89-.96v-.64h0v-.96h-.89v.96l-.6.64v1.61l-1.49,1.61-.89.96v-.96l.89-2.25v-1.61h.6v-.96h0l.89-.96v-1.61l-.89.96h-.6v.64h-.89v-.64h.89v-.96h0l.6-.64v-.96l-.6-.64h-.89v-.96h-.6v-.64h-.89l-.6-.96h0l-.89,1.61h-.6v-.64l-.89-1.61h-.89l-.6-.96h-1.49v-.96h-1.49v-.64h-2.38v-.96l-.6-.64h-2.38v-.96h-1.49v.96h-.89v-.96h-2.09v.96l-.89-.96h0l-.89.96h0l-.6.64v.96h0l-.89.64v1.93h0v.64h.89l-.89.96h-.6v-.96h-.89l-1.49,2.57-1.49.64h0l-1.49,3.21v.96l-.89.96v.64h0v-.64h0l.89-2.57h0v-1.61l.89-2.57-1.79,1.61h-2.09v-.64l-.89.64h-.6l-1.49.96-.89-.96v-.64h-.6v-.96h0l-.89-1.61v-.64h0v-.96l-.89-.96h0l.89-.64h0l-.89-.96v.96h-.6l-.89.64-.6.96-1.49.96h0l-2.38,1.61-1.49.64-.89-.64h-1.49l2.38-1.61,1.49.64v-.64h0v-.96l.89-.96.6-.64v-1.61l.89-1.61h.6v-.96l.89-1.61v-.64l1.49-.96.6-.96h0l.89-.64h.89l.6-1.61.89-1.61.6-.96h0l1.49-1.61h0l.89-.64h0v-4.18h-.89l-.6-.96h-1.49l-.89-.64v-1.61h-.6v-1.61l-.89-.96v-1.61l-.89-2.57v-1.61l-.6-3.21-.89-3.21v-.96h-1.49l-.6,1.61h-.89v.96h0l-.6.64h0v.96h-.89l-.89,1.61v.96l-.6.64h0l-.89.96h0v.64h0v.96h-.6v2.25h-.89v.96l-.6.96h0l-.89.64h0l-.6.96h0l-.89-.96h-.6l-.89-.64h0v.64h-1.49l-.89-.64h-.6v.64h0l-1.49.96h-.89l-.6-.96h-.89l-.6-.64h0l-.89-.96h-.89v-.96h-1.49l-.6.96h-2.38l-.6.96-.89-.96h-.89v.96h-.6v.64h.6v.96h.89v.64h0v.96h0l-.89.64-1.49-.64h-4.47v-.96h-.6l-.89.96v-.96.96h-.89l-.6.64v.96h-2.38v.64h-.6v.96l-.89-.96h-1.49v.96h-.6l.6.64h0l-.6.96h-2.38v-.96h-1.49l-.89-.64h0v-.96l-.6-.64h-.89l-.6-.96h0v-.64h0v-2.57l-.89-.64h0l-.89-1.93v-3.86l.89-.96v-.64h0v-1.61l.89-.96h.6v-1.61h.89-.89v-1.61h-.6v-.96h0l.6-.64h-.6v-.96h-2.38v-.64h0l.6-.96h0v-2.57h0v-.64h0l-.6-.96h0l-.89.96h-1.49l-.6-.96v.96h0v.64h.6v.96h-.6v.96h-.89v.64h-.6v.96l-.89.64h-2.38v.96l-.6.64-1.49.96h-3.88l-.89.64h-.6v.96l-.89,1.61v.96h-.6l-.89-.96-.6-.96-.89-.64h-4.47v-.96l-.89-.64h-2.09l-.89-.96h-.6l.6,1.61h0l.89.96,1.49,1.61.6.96v3.86l.89,1.61v1.61h0v.96h3.88v2.57h-.89l-.6.64h-1.79l-.6.96h0v.64l-.89,1.61h0l-.6.96h-1.49v.64h-.89l-.6.96h-.89l-.6.96h-.89v.64l-.89.96h-.6v.64l-.89.96h0v-1.61h0l-.6-.96h0l-.89.96h-.6l-.89.64h-2.38l-1.49-1.61-1.49-1.61-.6.96v-.96h0v-3.21l-.89-.96-.6-1.61v-.64h-.89l-.6.64h0l-.89.96-.89.64h-1.49v-.64h0l-.6-.96v.96h0v.64h0v.96h-6.86l-.89-.96h-.6l-.89.96h-.6v4.82-.64h.6v.64l.89-.64v.64h2.09v.96h0v.64h0v.96h-2.98l-.6.64h-1.49v5.78l.6.96h.89l.6.64h0l.89.96h0v.64h0v.96h0v.64h.6v.96h0v.64h0l.89.96h-.89v4.18l-.6,1.61v4.82l-.89,2.57v2.25l-.6,2.57v4.18h0l-.89.64h0l-.6-.64h-.89v-.96h-2.98v.96h-.89v.64h-1.49l-.6.96h-3.28l-.6.64h-.89l-.6.96-.89.64-.6.96-.89.96h-.6l-.89.64h0v.96l-.6,1.61v.64h0v1.61l-.89.96v.64h-.89l.89.96v1.61h0v.96h0v.64h-.89l-.6.96-1.49.64v.96h0l-.89.64v.96h.89v.64h0v.96h-1.49v.64h0v.96h.6l.89.96h0v.64h0v.96h0l.6.64h0v.96h0l.89.64h0v.96h.6v.64h.89v.96h0l.89.64.6.96h0l.89.96v.64l-.89,1.61-.6.96h3.58l.89.64h.6v.96l.89.64h0l.6.96-.6.64h5.96l.89-.64h0l.6-.96.89-.64h0v-.96h1.49v-.64.64h0v1.61h0v9h1.49v.96h1.49l.89-.96h6.86l.6.96h1.49l.89-.96h.6l.89-1.61h0l.89-.64h1.49l.6-.96.89-.64h.6v-.96h.89l2.09-2.57.89-.64h2.38l2.09-.96h.89l.6.96h0l.89-.96h.89v2.57l.6.96v.64l-.6.96h0v2.25l.6.96v1.61l-.6.64h.6v.96h0v.96l.89.64h0v1.61h.6l.89.96h0v.64h.6l.89.96h.6v.64h.89v.96l.6.64h.89l1.49.96h.89l.6-.96h.89v.96h.6v.96h2.98v.64h0l.89.96.89.64h.6l.89.96h2.09v.64h.89l.6,1.61h0l.89.96h3.88l.6-.96.89.96,1.49.64.6.96h0l.89.96h0v1.61h0v.64h0l.89.96v1.61l.6.64v3.53h-1.49l.89,1.61,1.49.64v3.21l.6,1.61v.96h2.38l2.38.96h5.96v-.96h0v1.61h0l-.89,1.61h0l.89,1.61v1.61l.6.96h0l.89.64,1.49.96.89.64v-.64l.6.64v.96l.89,1.61.6,1.61h0v.96h0l-.6,1.61v3.21h0v.96h0l-.89,1.61v.64l-.6,1.61v.96l.6.64.89.96v.64h-.89v.96h-.6v.96h0l.6.64h0v.96h0l.89.64h0v.96h.6l-.6.64h.6v.96h0v1.61h0v.64h0v.96h0v.96h0v.64h0v.96h0v.64h0v.96h0v.64h0l.89.96h0l.6-.96h0l.89.96h2.98l.89.64h2.09v-.64h0v-.96h.89l.6.96h0l.89.64h2.38v.96h.6v1.61h.89v1.61h0v1.61h0l.6.96v.64h0v.96h0v1.61h.89v.64h0v.96l.6.96h3.28v-.96h2.09l.89.96.6.64h-.6v.96l.6.64v1.61l-.6,2.57v1.61h.6l-.6.96v2.25h0l.6.96h0l.89-.96h1.49l.6.96h0l.89.64v1.61l.89.96.6.64v.96h0v3.21h0v2.57l-.6.64h-.89v.96l-.89-.96v1.61h-2.09v.96h-1.49v.96h0v.64h-.89v.96h-.6l-.89.64h0l-.6.96h0l-.89.64h0v.96h-.89v.64h-.6v.96h0l-.89.64v.96l-.6.64v.96l-.89.96h0l-.6.64v1.61l-.89.96-.6.64-.89.96-.6.64h0v.96l-.89.64-.89.96h3.28v-.96h1.49l.6.96,2.38,1.61,1.49.96.89.64v.96h.6v1.61h1.49v-.96h.89v-.64.64h.6l.89.96v.64h.6v.96h.89v.64l.6-.64.89.64,1.49.96.89.96h.6l.89.64.6.96.89.64h.6l.89.96h.89v.64h0l.6.96v.64l.89.96,1.49.64h.6v.96h.89l-.89.96v.64l-.6.96h0l-.89.64h0l.89,2.57v.64h0v.96h1.49l1.49-2.57.6-.64.89-.96v-2.25l.89-2.57v-.96l.6-.64v-1.61l-.6-.96h0v-1.61l.6-.64v-1.93h0l1.49-.64.89-.96v-.64h0v-.96l.6-.64-.6-.96h.6v.96-2.57h0l.89-.64-1.49-.96v-1.61h0l.6.64v.96h.89l.6.96h0l1.49-.96h.89v1.61h-.89l.89,1.61-.89.96-.6.64v.96h0v.64l-.89-.64v2.25l-.6.96-.89.96-.6,1.61h-2.38v.64h0v.96l.89.64v-.64l.6-.96,1.49-1.61,1.49-1.61,1.49-1.61.89-1.61v-.96l1.49-3.21.89-4.82,1.49-3.21.6-1.61,1.49-1.93.89-1.61,1.49-.64v-1.61l.89-.96v-.64l-.89-2.57v-4.18h0v-.64h0l-.6-1.61-.89-1.61h0v-2.57h-.89l.89-.96h0v-2.25h.89v-2.57h-1.79v-.64h1.79v-.96h1.49l-.89.96h.89l.6-1.61h.89v-.96h-.89v-.96h.89l1.49-1.61,2.09-1.61,1.79-2.25,1.49-.96,2.98-2.57h2.09l.89.96h0v-1.61h1.49l1.49-1.61,1.49-.96h.89l-.89-.64h0v-.96h0l1.49-.64h3.88l-.6.64h-.89,2.38l1.49-.64h.6v-.96h-.6l.6-.64h.89v1.61h5.96v-.96l.89-.64h-.89v-.96h0l1.49-2.57h.89l2.38-1.61.6-.64h0v-2.57h0l-.6-.64.6-1.93.89-1.61v-1.61h.6l1.49-1.61v-2.25l.89-.96v-1.61l.6-1.61,1.79-.96h0v-9.64l.6-1.61.89-.96.6-.64.89-.96h-.89v-6.43l.89-2.57v-1.61l.6-2.57v-.64l-.6-1.61-.89-2.57v-9h0v.96l-.6-.96h0v-1.61l.6-.96h0l-.6-.64h0v-1.61h.6l.89-1.61v-1.61h0l-.89-.96h.89v-.64h.6l.89.64v1.61h.6l.89-.64,1.49-2.57v-.96l1.49-2.25,1.49-3.21v-3.53h.89v.96h-.89v.96h.89l.6-1.93v-.64h0l1.49-1.61.89-1.61h.6l1.79-.96h0l.6-2.25.89-.96.6-1.61.89-.96h-.89.89l1.49-1.61,1.49-2.25.89-1.61.6-4.18.89-2.57v-2.25h0v-.96h0v-1.61Z"/>
      <path class="cls-1" d="M342.43,150.23l-.89-.96v.96h0v.64l.89.96v-1.61Z"/>
      <path class="cls-3" d="M342.43,150.23l-.89-.96v.96h0v.64l.89.96v-1.61Z"/>
      <path class="cls-1" d="M409.21,371.61h0l-.6-1.61-.89-1.61v-.96l-.6-.64v.64l-.89-.64-1.49-.96-.89-.64h0l-.6-.96v-1.61l-.89-1.61h0l.89-1.61h0v-1.61h0v.96h-5.96l-2.38-.96h-2.38v-.96l-.6-1.61v-3.21l-1.49-.64-.89-1.61h1.49v-3.53l-.6-.64v-1.61l-.89-.96h0v-.64h0v-1.61h0l-.89-.96h0l-.6-.96-1.49-.64-.89-.96-.6.96h-3.88l-.89-.96h0l-.6-1.61h-.89v-.64h-2.09l-.89-.96h-.6l-.89-.64-.89-.96h0v-.64h-2.98v-.96h-.6v-.96h-.89l-.6.96h-.89l-1.49-.96h-.89l-.6-.64v-.96h-.89v-.64h-.6l-.89-.96h-.6v-.64h0l-.89-.96h-.6v-1.61h0l-.89-.64v-.96h0v-.96h-.6l.6-.64v-1.61l-.6-.96v-2.25h0l.6-.96v-.64l-.6-.96v-2.57h-.89l-.89.96h0l-.6-.96h-.89l-2.09.96h-2.38l-.89.64-2.09,2.57h-.89v.96h-.6l-.89.64-.6.96h-1.49l-.89.64h0l-.89,1.61h-.6l-.89.96h-1.49l-.6-.96h-4.77l1.79,1.61v.96l.6,1.61.89.96.6,1.61.89,1.61.6,1.61.89,1.61h0v.96h0v.64h-.89v.96h-.6v.64l.6,3.21v.96h0l-.6.64h0l.6.96v1.61h.89v1.61h-.89v1.61h0l-.6.96h0v1.61h-.89v1.61h0l1.49,1.61h0l-.6.96v.64l-.89.96v.64l.89.96.6,2.25.89.96h1.49v.96h0l-.89.64h0v1.61h-.6v1.61l-.89.96h0l-.6.64h0l-.89.96h0l.89.64h0v.96h0l.6.64.89,1.93v.64h.6l.89.96h0v.64h0v.96h0v.64l.6.96v1.61l.89.64v.96h0v.96l.89.64h.6l.89.96h0l.6.64h0v.96h0v.64l-.6.96h0l.6.64v.96h0v.64h-.6v.96h0v.96h.6l-.6.64h0v.96h.6l.89.64h0v.96h0v1.61h.6l.89,1.61.6.64.89,1.93v.64l.6.96v1.61l.89.64v1.61h0l.89,1.61v1.93h0l.6.64h3.88v-.64l.6-.96v-.96h0l.89-.64h.89v-1.61h.6l.89-.96h.6v-1.61h1.49l.89,1.61h5.37l.6.96h1.49l.89,1.61v.64l.6.96.89.96v.64h0v-1.61l.6-.96v-.64l.89-2.57h.89v-.64.64h.6v-.64h5.37v1.61h.89v.64-.64l.6-1.61v-4.18l.89-2.57v-1.61l-.89-1.61.89-1.61.6-1.61.89-.96v-1.61l.6-1.61h.89l2.98-.64h.89l2.09-.96,2.98-.64h5.37l2.38,1.61,1.49.64,2.38,1.61h0v2.57h.6v-.96h.89v-.64l-.89-.96-.6-.64v-.96l.6-1.61v-.64l.89-1.61h0v-.96h0v-3.21l.6-1.61h0v-.96Z"/>
      <path class="cls-3" d="M409.21,371.61h0l-.6-1.61-.89-1.61v-.96l-.6-.64v.64l-.89-.64-1.49-.96-.89-.64h0l-.6-.96v-1.61l-.89-1.61h0l.89-1.61h0v-1.61h0v.96h-5.96l-2.38-.96h-2.38v-.96l-.6-1.61v-3.21l-1.49-.64-.89-1.61h1.49v-3.53l-.6-.64v-1.61l-.89-.96h0v-.64h0v-1.61h0l-.89-.96h0l-.6-.96-1.49-.64-.89-.96-.6.96h-3.88l-.89-.96h0l-.6-1.61h-.89v-.64h-2.09l-.89-.96h-.6l-.89-.64-.89-.96h0v-.64h-2.98v-.96h-.6v-.96h-.89l-.6.96h-.89l-1.49-.96h-.89l-.6-.64v-.96h-.89v-.64h-.6l-.89-.96h-.6v-.64h0l-.89-.96h-.6v-1.61h0l-.89-.64v-.96h0v-.96h-.6l.6-.64v-1.61l-.6-.96v-2.25h0l.6-.96v-.64l-.6-.96v-2.57h-.89l-.89.96h0l-.6-.96h-.89l-2.09.96h-2.38l-.89.64-2.09,2.57h-.89v.96h-.6l-.89.64-.6.96h-1.49l-.89.64h0l-.89,1.61h-.6l-.89.96h-1.49l-.6-.96h-4.77l1.79,1.61v.96l.6,1.61.89.96.6,1.61.89,1.61.6,1.61.89,1.61h0v.96h0v.64h-.89v.96h-.6v.64l.6,3.21v.96h0l-.6.64h0l.6.96v1.61h.89v1.61h-.89v1.61h0l-.6.96h0v1.61h-.89v1.61h0l1.49,1.61h0l-.6.96v.64l-.89.96v.64l.89.96.6,2.25.89.96h1.49v.96h0l-.89.64h0v1.61h-.6v1.61l-.89.96h0l-.6.64h0l-.89.96h0l.89.64h0v.96h0l.6.64.89,1.93v.64h.6l.89.96h0v.64h0v.96h0v.64l.6.96v1.61l.89.64v.96h0v.96l.89.64h.6l.89.96h0l.6.64h0v.96h0v.64l-.6.96h0l.6.64v.96h0v.64h-.6v.96h0v.96h.6l-.6.64h0v.96h.6l.89.64h0v.96h0v1.61h.6l.89,1.61.6.64.89,1.93v.64l.6.96v1.61l.89.64v1.61h0l.89,1.61v1.93h0l.6.64h3.88v-.64l.6-.96v-.96h0l.89-.64h.89v-1.61h.6l.89-.96h.6v-1.61h1.49l.89,1.61h5.37l.6.96h1.49l.89,1.61v.64l.6.96.89.96v.64h0v-1.61l.6-.96v-.64l.89-2.57h.89v-.64.64h.6v-.64h5.37v1.61h.89v.64-.64l.6-1.61v-4.18l.89-2.57v-1.61l-.89-1.61.89-1.61.6-1.61.89-.96v-1.61l.6-1.61h.89l2.98-.64h.89l2.09-.96,2.98-.64h5.37l2.38,1.61,1.49.64,2.38,1.61h0v2.57h.6v-.96h.89v-.64l-.89-.96-.6-.64v-.96l.6-1.61v-.64l.89-1.61h0v-.96h0v-3.21l.6-1.61h0v-.96Z"/>
      <path class="cls-1" d="M230.05,111.67h-.89v1.61-1.61h.89v-.64.64ZM230.05,106.85h0l-.89.64v.96h0l.89-1.61ZM228.56,105.25h-.89v-.96h-.6l-.89,1.61-1.49,1.61v.96h-.89l-.6-.96-.89.96h0v.64l-.6,1.93v3.21l-.89,2.25v1.61l-.6,3.53v1.61h2.09-.6l.6-.96.89-1.61h1.49l.89-1.61h0l.6-.96.89-2.25v-3.21h0l.6-.96-.6-.64.6-.96v-.96l.89-2.25.6-.96-.6-.64h0Z"/>
      <path class="cls-3" d="M230.05,111.67h-.89v1.61-1.61h.89v-.64.64ZM230.05,106.85h0l-.89.64v.96h0l.89-1.61ZM228.56,105.25h-.89v-.96h-.6l-.89,1.61-1.49,1.61v.96h-.89l-.6-.96-.89.96h0v.64l-.6,1.93v3.21l-.89,2.25v1.61l-.6,3.53v1.61h2.09-.6l.6-.96.89-1.61h1.49l.89-1.61h0l.6-.96.89-2.25v-3.21h0l.6-.96-.6-.64.6-.96v-.96l.89-2.25.6-.96-.6-.64h0Z"/>
      <path class="cls-1" d="M394.9,142.84l-.89-.96h0v1.61h.89v-.64Z"/>
      <path class="cls-3" d="M394.9,142.84l-.89-.96h0v1.61h.89v-.64Z"/>
      <path class="cls-1" d="M319.78,84.68h-2.38l-.89.96h0v.64h3.28l.6-1.61h0v-.64h0l-.6.64ZM320.37,82.11h.89-.89ZM322.76,76.65v-.96h-2.38,1.49l.89.96h0ZM316.5,74.08v-.96h0l-.6.96h0l.6.96h-.6v.64h-.89v.96l-.6.64h-.89.89l.6-.64.89-.96.6-.64v-.96ZM314.41,72.47h0v.64h0l.6.96.89-.96h-.89v-.64h-.6ZM310.54,69.9l-.89-.64v-1.61l-.6-.96h0v.96h.6v1.61h0v.64h-.6l.6.96h.89l.89,1.61h0v-.96l-.89-.64v-.96ZM306.06,67.65l-.89-.96h0l.89.96.6.64h0v-.64h-.6ZM315.01,63.48h-.6v.64h0l.6-.64ZM296.82,63.48l-.6-.96v.96l-.89-.96h.89v-.64h-.89l-.89.64v-.64l-.6.64.6.96h0v1.61h.89v.96h.89l.6-.96h0v-.96h0v-.64ZM309.64,62.51h0l-.6-1.61h0l-.89-1.61h-.6.6v.96h0l.89,1.61h0v.64h0v.96h0l.6-.96h0ZM299.21,56.09h-1.49v.96h1.49v-.96h0ZM295.33,60.91h.89v-.64h0v-1.61h-.89v-1.61h0v-.96h0l-.89-.96h-.6v2.57l-.89.96v.64h-.6v.96h.6v.64l.89-.64v.64h0v.96h.6l.89-.96ZM305.17,59.3h0v-.64l.89-.96v-1.61h0v-.96l-.89-.64-.6-.96-.89-.64h-.89v.64h.89l.89.96h.6v.64l.89.96v.96h-.89v.64h-.6v.96h.6v.64ZM296.82,43.88h-1.49v.64h-.89v-.64h-.6v.64h-.89v.96h-.6l-.89-.96h0l.89.96h1.49l1.49-.96h2.38v-.64h-.89ZM301.3,44.52h0l-.6-.64v-.96h-2.38v-.64l-.6.64h2.09l.89,1.61.6.96v.64h0v.96h-.6v1.61l-.89.96h0l.89.64h0v-.64l.6-1.61.89-.96v-1.61h0l-.89-.96Z"/>
      <path class="cls-3" d="M319.78,84.68h-2.38l-.89.96h0v.64h3.28l.6-1.61h0v-.64h0l-.6.64ZM320.37,82.11h.89-.89ZM322.76,76.65v-.96h-2.38,1.49l.89.96h0ZM316.5,74.08v-.96h0l-.6.96h0l.6.96h-.6v.64h-.89v.96l-.6.64h-.89.89l.6-.64.89-.96.6-.64v-.96ZM314.41,72.47h0v.64h0l.6.96.89-.96h-.89v-.64h-.6ZM310.54,69.9l-.89-.64v-1.61l-.6-.96h0v.96h.6v1.61h0v.64h-.6l.6.96h.89l.89,1.61h0v-.96l-.89-.64v-.96ZM306.06,67.65l-.89-.96h0l.89.96.6.64h0v-.64h-.6ZM315.01,63.48h-.6v.64h0l.6-.64ZM296.82,63.48l-.6-.96v.96l-.89-.96h.89v-.64h-.89l-.89.64v-.64l-.6.64.6.96h0v1.61h.89v.96h.89l.6-.96h0v-.96h0v-.64ZM309.64,62.51h0l-.6-1.61h0l-.89-1.61h-.6.6v.96h0l.89,1.61h0v.64h0v.96h0l.6-.96h0ZM299.21,56.09h-1.49v.96h1.49v-.96h0ZM295.33,60.91h.89v-.64h0v-1.61h-.89v-1.61h0v-.96h0l-.89-.96h-.6v2.57l-.89.96v.64h-.6v.96h.6v.64l.89-.64v.64h0v.96h.6l.89-.96ZM305.17,59.3h0v-.64l.89-.96v-1.61h0v-.96l-.89-.64-.6-.96-.89-.64h-.89v.64h.89l.89.96h.6v.64l.89.96v.96h-.89v.64h-.6v.96h.6v.64ZM296.82,43.88h-1.49v.64h-.89v-.64h-.6v.64h-.89v.96h-.6l-.89-.96h0l.89.96h1.49l1.49-.96h2.38v-.64h-.89ZM301.3,44.52h0l-.6-.64v-.96h-2.38v-.64l-.6.64h2.09l.89,1.61.6.96v.64h0v.96h-.6v1.61l-.89.96h0l.89.64h0v-.64l.6-1.61.89-.96v-1.61h0l-.89-.96Z"/>
      <path class="cls-1" d="M332.6,148.62h0l-.89-.96v-.96.96h0l.89.96h0Z"/>
      <path class="cls-3" d="M332.6,148.62h0l-.89-.96v-.96.96h0l.89.96h0Z"/>
      <path class="cls-2" d="M439.02,635.73h-3.88v.96h-.89l.89.64.6-.64h2.38l.89-.96h0ZM430.68,635.09h-3.28l-1.49-.96h-1.49l-1.49-.96-1.49-.64-.6-.96-1.79-.64-1.49-.96-1.49-.64-.6-.96h-.89l-.6-.64-1.79-1.61h-1.49l-.6-.96h0v-.96h1.49l-.89-.64h-.6l-1.49-1.61h-.89l.89,1.61,1.49,2.57.6,1.61.89,1.61.6,1.61.89,2.25.89,1.93.6,1.61h4.47l3.88.64h.89l1.49.96h.6l.89-.96h4.47v-.64h.89v-.96l-.89-.64h-.6ZM409.21,525.52h-.6l1.49.64h0v-.64h-.89ZM434.25,508.17v-.64l-.6-2.57h-1.49l-.89-.96-1.49-.64v-.96l-.6-.64v-1.61l.6-1.61-.6-.96-.89-1.61-1.49-.96-1.49-.64-2.98-1.61-1.49-1.61h0l-.89-1.61h.89v-1.61l-.89-.96h0l-.89-1.61h0v-4.82h.89v-.96l-.89-2.57v-3.21h0v-.64h-.6v-.96h0l.6-.64h0v-1.61h0l-.6-.96v-.96l.6-.64h0v-1.61h0v-.96h0v-1.61l-.6-.64v-.96l.6-.64h0v-.96h0l.89-.96.89-.64v-.96h0l.6-.64.89-.96.6-.64.89-.96v-1.61l.6-.64h0l.89-.96v-.96l.6-.64v-.96l.89-.64h0v-.96h.6v-.64h.89v-.96h0l.89-.64h0l.6-.96h0l.89-.64h.6v-.96h.89v-.64h0v-.96h1.49v-.96h2.09v-1.61l.89.96v-.96h.89l.6-.64v-2.57h0v-3.21h0v-.96l-.6-.64-.89-.96v-1.61l-.89-.64h0l-.6-.96h-1.49l-.89.96h0l-.6-.96h0v7.39l-.89.96h0v.64h-.6v.96h-.89v.64h-1.49v.96h-.89v1.61h0v.64h-.6l-.89-.64h-1.49l-.6.64v.96h-.89v-.96h-.6l-.89.96-.6-.96h-3.28l-2.98-.64h-4.47v-1.61h.6v-.96h0v-.64h.89v-.96h0v-.64h.6v-.96l-.6-.64h0v-.96h0l.6-.96h0v-.64h.89v-.96h0v-.64l.89-.96h0v-.64h.6v-1.61h0l-.6-.96-.89-1.61h-1.49l-.89-.96h-1.49v-.64h-.6l-1.49-.96-3.28-1.61-.6-.64h-.89l-.6-.96-1.49-1.61-1.49-.64h-2.38l-2.38-.96-1.49-.96v-.64l-.6-.96-1.49-.64h-.89v-.96h-.89l-.6-.64-.89-.96-1.49-1.61-.6-1.61-.89-1.61h-1.49v-.96h-.6v-.64h-.89v-1.61h-5.37v.64h-.6v-.64.64h-.89l-.89,2.57v.64l-.6.96v1.61h0v-.64l-.89-.96-.6-.96v-.64l-.89-1.61h-1.49l-.6-.96h-5.37l-.89-1.61h-1.49v1.61h-.6l-.89.96h-.6v1.61h-.89l-.89.64h0v.96l-.6.96v.64l.6.96v4.82l-.6,2.57h0v.64h-1.49l-1.49.96-.89.64-.6.96h-.89v.64h-.89v.96h0v1.61h0l.89.64h0v.96h0v.96h-.89v2.25l.89.96v.64l1.49,2.57v.64l-.6.96h0v.96h0v.64l.6.96.89.64.6.96v.64h0l-.6.96h-2.38v2.25h-.89v3.53h0l-.6.64v.96l-.89.64h0v.96l-.6.64v5.14h-.89v1.61l.89,1.61v1.61l.6.64v1.61h.89v.96h0l-.89.96h-.6v.64h0v2.57l-.89.64h.89v.96h0v.64h-.89v3.53l.89.64.6.96v.64h.89v.96h0v.64l.6.96h0l.89.64v1.61l.89,1.93h.6v.64h0v1.61h0l.89.96h1.49v.64h0v2.57l.6,1.61v1.61l.89.96h-1.49v.64h0v2.57h0v3.21h-.89v.96h.89v1.61h.6v2.25h0l.89.96v1.61h-.89v.64h-.6v.96h-.89v.96h-.6v.64h.6l-.6.96v.64h0l.6.96v2.25h0l.89.96v1.61h0l.6,1.61.89.96.6.64v1.61l.89.96v.64h.89v.96h0v.64h0l-.89.96h-.89v.96h-.6v.64l.6,1.61h0v1.61h0v.96h-.6l.6.64v.96l.89.64h0v.96h-.89v.64h0l.89.96h.89l-.89.96h0v.64h0v1.61l.89.96v.64l.6,1.61v.96l.89,1.61h0l.6,1.61.89.96.6.64h0l-.6.96h-.89v.64h0v.96l.89.64h0v.96h0v.64l.6,1.93v.64h1.49l.89.96h.6v.64h-.6v.96l.6.64h.89v.96h0v.64l.89.96h0v.64h0v.96h0v.96l.6.64h2.98l.89.96h0v.64h0v1.61l-.89-.64h-1.49l-1.49.64v-.64,1.61h2.98v1.61l.89.64h.6l.89.96-.89.96v.64h-.6v.96l.6.64v.96h.89v.64l-.89.96h0v.64h.89v.96l.6.64.89.96v.96h0l-.89.64h0v1.61h.89v.96h0v1.61h-.89l-.6.64.6.96v.64h0v1.93h.89l.89.64.6.96v.64l-.6.96h-.89v.64l.89.96v.64h0v.96h0l-.89.64h-.89v1.93l.89.64h-1.49v1.61l.6.96.89.64v1.61l.89.96.6.64.89.96.6.96v.64h.89v.96h1.49v-.96h2.38l.6.96.89.64v.96l.6.64h-.6l.6.96h0l.89.64v1.61l.6.96h.89l.6.64h.89v.96l.6.96h10.14l1.49.64h2.98l1.49.96h2.98v.64h0l-.6-.64-1.49-1.61-2.38-2.57h-2.38l-.6-.96h2.09l-.6-.64v-.96l-1.49-1.61-.89-.64h0v.64h0v-4.82l.89-.96h.6v-.64h.89-.89l-.6-.96h-2.38v-.64h1.49l-.6-.96h0l.6.96.89.64h.6l.89.96h.6l.89-.96.6-.64v-.96l-.6-3.21h-.89v-.64l.89-1.93v-1.61l.6-.64h0l1.79-.96.6-.64.89-.96,1.49-1.61v-.64h0v-.96h-2.38l.89-.96h.6v-.64h0v-1.61l-.6-.96-.89-.64-.6-.96h-3.88l-4.47-3.21-.89-.96-.89-.64-.6-.96v-1.61h0v-3.21l1.49-2.57h1.49v-.64l.89-.96.6-.64,2.38.64h.6v-1.61h-.6v-.64l.6-1.61v-3.53l-1.49-1.61v-1.61h0l.89-1.61.6-.64.89-.96h.6l.89-.64h-.89l-1.49-.96-2.09-.96v-.64h.6l.89-.96h2.09v.96l.89.64.89.96h.6l1.49-.96h0v-1.61l-.6-.64v-.96l-.89-.64h-2.98v.64h1.49v.96h-2.98v-.96h0l-.89-.64h-1.49l-.6-.96-.89-.64v-2.57l-1.49-2.57-.89-.64v-1.61h0v-.96l.89-.64v.64h.89l.6.96h1.49l1.49.64,2.38.96h4.47l.89-.96,2.09-.64v-1.61l-1.49-1.61v-1.93l-.6-1.61h.6l.89-.64-.89-1.61v-.96h0l-.6-.64h.6-.6l-.89-.96h0l-.6-.64v-.96l-.89-1.61h.89l1.49.96h.6l1.49.64h3.88l6.26-1.61h.6l2.98-.96,4.77-1.61,2.09-2.25h.89v-3.21l1.49-1.93.6-3.86v-.96Z"/>
      <path class="cls-3" d="M439.02,635.73h-3.88v.96h-.89l.89.64.6-.64h2.38l.89-.96h0ZM430.68,635.09h-3.28l-1.49-.96h-1.49l-1.49-.96-1.49-.64-.6-.96-1.79-.64-1.49-.96-1.49-.64-.6-.96h-.89l-.6-.64-1.79-1.61h-1.49l-.6-.96h0v-.96h1.49l-.89-.64h-.6l-1.49-1.61h-.89l.89,1.61,1.49,2.57.6,1.61.89,1.61.6,1.61.89,2.25.89,1.93.6,1.61h4.47l3.88.64h.89l1.49.96h.6l.89-.96h4.47v-.64h.89v-.96l-.89-.64h-.6ZM409.21,525.52h-.6l1.49.64h0v-.64h-.89ZM434.25,508.17v-.64l-.6-2.57h-1.49l-.89-.96-1.49-.64v-.96l-.6-.64v-1.61l.6-1.61-.6-.96-.89-1.61-1.49-.96-1.49-.64-2.98-1.61-1.49-1.61h0l-.89-1.61h.89v-1.61l-.89-.96h0l-.89-1.61h0v-4.82h.89v-.96l-.89-2.57v-3.21h0v-.64h-.6v-.96h0l.6-.64h0v-1.61h0l-.6-.96v-.96l.6-.64h0v-1.61h0v-.96h0v-1.61l-.6-.64v-.96l.6-.64h0v-.96h0l.89-.96.89-.64v-.96h0l.6-.64.89-.96.6-.64.89-.96v-1.61l.6-.64h0l.89-.96v-.96l.6-.64v-.96l.89-.64h0v-.96h.6v-.64h.89v-.96h0l.89-.64h0l.6-.96h0l.89-.64h.6v-.96h.89v-.64h0v-.96h1.49v-.96h2.09v-1.61l.89.96v-.96h.89l.6-.64v-2.57h0v-3.21h0v-.96l-.6-.64-.89-.96v-1.61l-.89-.64h0l-.6-.96h-1.49l-.89.96h0l-.6-.96h0v7.39l-.89.96h0v.64h-.6v.96h-.89v.64h-1.49v.96h-.89v1.61h0v.64h-.6l-.89-.64h-1.49l-.6.64v.96h-.89v-.96h-.6l-.89.96-.6-.96h-3.28l-2.98-.64h-4.47v-1.61h.6v-.96h0v-.64h.89v-.96h0v-.64h.6v-.96l-.6-.64h0v-.96h0l.6-.96h0v-.64h.89v-.96h0v-.64l.89-.96h0v-.64h.6v-1.61h0l-.6-.96-.89-1.61h-1.49l-.89-.96h-1.49v-.64h-.6l-1.49-.96-3.28-1.61-.6-.64h-.89l-.6-.96-1.49-1.61-1.49-.64h-2.38l-2.38-.96-1.49-.96v-.64l-.6-.96-1.49-.64h-.89v-.96h-.89l-.6-.64-.89-.96-1.49-1.61-.6-1.61-.89-1.61h-1.49v-.96h-.6v-.64h-.89v-1.61h-5.37v.64h-.6v-.64.64h-.89l-.89,2.57v.64l-.6.96v1.61h0v-.64l-.89-.96-.6-.96v-.64l-.89-1.61h-1.49l-.6-.96h-5.37l-.89-1.61h-1.49v1.61h-.6l-.89.96h-.6v1.61h-.89l-.89.64h0v.96l-.6.96v.64l.6.96v4.82l-.6,2.57h0v.64h-1.49l-1.49.96-.89.64-.6.96h-.89v.64h-.89v.96h0v1.61h0l.89.64h0v.96h0v.96h-.89v2.25l.89.96v.64l1.49,2.57v.64l-.6.96h0v.96h0v.64l.6.96.89.64.6.96v.64h0l-.6.96h-2.38v2.25h-.89v3.53h0l-.6.64v.96l-.89.64h0v.96l-.6.64v5.14h-.89v1.61l.89,1.61v1.61l.6.64v1.61h.89v.96h0l-.89.96h-.6v.64h0v2.57l-.89.64h.89v.96h0v.64h-.89v3.53l.89.64.6.96v.64h.89v.96h0v.64l.6.96h0l.89.64v1.61l.89,1.93h.6v.64h0v1.61h0l.89.96h1.49v.64h0v2.57l.6,1.61v1.61l.89.96h-1.49v.64h0v2.57h0v3.21h-.89v.96h.89v1.61h.6v2.25h0l.89.96v1.61h-.89v.64h-.6v.96h-.89v.96h-.6v.64h.6l-.6.96v.64h0l.6.96v2.25h0l.89.96v1.61h0l.6,1.61.89.96.6.64v1.61l.89.96v.64h.89v.96h0v.64h0l-.89.96h-.89v.96h-.6v.64l.6,1.61h0v1.61h0v.96h-.6l.6.64v.96l.89.64h0v.96h-.89v.64h0l.89.96h.89l-.89.96h0v.64h0v1.61l.89.96v.64l.6,1.61v.96l.89,1.61h0l.6,1.61.89.96.6.64h0l-.6.96h-.89v.64h0v.96l.89.64h0v.96h0v.64l.6,1.93v.64h1.49l.89.96h.6v.64h-.6v.96l.6.64h.89v.96h0v.64l.89.96h0v.64h0v.96h0v.96l.6.64h2.98l.89.96h0v.64h0v1.61l-.89-.64h-1.49l-1.49.64v-.64,1.61h2.98v1.61l.89.64h.6l.89.96-.89.96v.64h-.6v.96l.6.64v.96h.89v.64l-.89.96h0v.64h.89v.96l.6.64.89.96v.96h0l-.89.64h0v1.61h.89v.96h0v1.61h-.89l-.6.64.6.96v.64h0v1.93h.89l.89.64.6.96v.64l-.6.96h-.89v.64l.89.96v.64h0v.96h0l-.89.64h-.89v1.93l.89.64h-1.49v1.61l.6.96.89.64v1.61l.89.96.6.64.89.96.6.96v.64h.89v.96h1.49v-.96h2.38l.6.96.89.64v.96l.6.64h-.6l.6.96h0l.89.64v1.61l.6.96h.89l.6.64h.89v.96l.6.96h10.14l1.49.64h2.98l1.49.96h2.98v.64h0l-.6-.64-1.49-1.61-2.38-2.57h-2.38l-.6-.96h2.09l-.6-.64v-.96l-1.49-1.61-.89-.64h0v.64h0v-4.82l.89-.96h.6v-.64h.89-.89l-.6-.96h-2.38v-.64h1.49l-.6-.96h0l.6.96.89.64h.6l.89.96h.6l.89-.96.6-.64v-.96l-.6-3.21h-.89v-.64l.89-1.93v-1.61l.6-.64h0l1.79-.96.6-.64.89-.96,1.49-1.61v-.64h0v-.96h-2.38l.89-.96h.6v-.64h0v-1.61l-.6-.96-.89-.64-.6-.96h-3.88l-4.47-3.21-.89-.96-.89-.64-.6-.96v-1.61h0v-3.21l1.49-2.57h1.49v-.64l.89-.96.6-.64,2.38.64h.6v-1.61h-.6v-.64l.6-1.61v-3.53l-1.49-1.61v-1.61h0l.89-1.61.6-.64.89-.96h.6l.89-.64h-.89l-1.49-.96-2.09-.96v-.64h.6l.89-.96h2.09v.96l.89.64.89.96h.6l1.49-.96h0v-1.61l-.6-.64v-.96l-.89-.64h-2.98v.64h1.49v.96h-2.98v-.96h0l-.89-.64h-1.49l-.6-.96-.89-.64v-2.57l-1.49-2.57-.89-.64v-1.61h0v-.96l.89-.64v.64h.89l.6.96h1.49l1.49.64,2.38.96h4.47l.89-.96,2.09-.64v-1.61l-1.49-1.61v-1.93l-.6-1.61h.6l.89-.64-.89-1.61v-.96h0l-.6-.64h.6-.6l-.89-.96h0l-.6-.64v-.96l-.89-1.61h.89l1.49.96h.6l1.49.64h3.88l6.26-1.61h.6l2.98-.96,4.77-1.61,2.09-2.25h.89v-3.21l1.49-1.93.6-3.86v-.96Z"/>
      <path class="cls-1" d="M383.57,114.24h-.89v.64h1.49v-.64h-.6ZM384.17,111.03h0v-.96h-.6v.96h.6Z"/>
      <path class="cls-3" d="M383.57,114.24h-.89v.64h1.49v-.64h-.6ZM384.17,111.03h0v-.96h-.6v.96h.6Z"/>
      <path class="cls-1" d="M376.72,105.89l-.89.96h0l1.49-.96h-.6Z"/>
      <path class="cls-3" d="M376.72,105.89l-.89.96h0l1.49-.96h-.6Z"/>
    </g>
  </g>
</svg>