<svg xmlns="http://www.w3.org/2000/svg" viewBox="0 0 220.16 240.43"><defs><style>.cls-1{fill:#fff;}.cls-2{fill:#e63d25;}.cls-3{fill:#384392;}.cls-4,.cls-5{fill:none;stroke-miterlimit:10;stroke-width:2.2px;}.cls-4{stroke:#384392;}.cls-5{stroke:#e63d25;}</style></defs><g id="Capa_2" data-name="Capa 2"><g id="Capa_1-2" data-name="Capa 1"><path class="cls-1" d="M173.94,146.44a35.28,35.28,0,0,1-16.54-3.67,26,26,0,0,1-10.75-10.14,1.74,1.74,0,0,1-.13-1.46,1.78,1.78,0,0,1,1-1l12.47-4.5a1.74,1.74,0,0,1,2,.68,12.46,12.46,0,0,0,4.9,4.12,17,17,0,0,0,7.68,1.66,9,9,0,0,0,3.93-.7c.8-.4.8-.72.8-.86s-.32-.45-1.38-.82a82.93,82.93,0,0,0-9.77-2.33c-6.53-1.34-11.33-3.17-14.7-5.59a12.36,12.36,0,0,1-5.44-10.54,14,14,0,0,1,3.37-9.14,20.94,20.94,0,0,1,8.87-6A34.16,34.16,0,0,1,172.58,94a32.09,32.09,0,0,1,15.33,3.55,26.31,26.31,0,0,1,10.4,9.81,1.74,1.74,0,0,1,.15,1.46,1.79,1.79,0,0,1-1,1.06l-12.51,4.64-.12,0a38,38,0,0,1,4.63,1.82,19.69,19.69,0,0,1,4.8,3,13.23,13.23,0,0,1,3.1,4.21,12.85,12.85,0,0,1,1.15,5.49c0,5.18-2.32,9.45-6.9,12.69-4.4,3.1-10.33,4.67-17.63,4.67m-23.15-13.77a23.07,23.07,0,0,0,8.22,7A31.85,31.85,0,0,0,173.94,143c6.57,0,11.82-1.37,15.62-4.05s5.44-5.8,5.44-9.84a9.51,9.51,0,0,0-.83-4,9.74,9.74,0,0,0-2.28-3.09,16.22,16.22,0,0,0-3.93-2.48,37.35,37.35,0,0,0-5.27-2q-2.79-.81-6.49-1.58a66.81,66.81,0,0,1-9.09-2.16c-2.77-1-3.36-2.68-3.36-3.9a4.29,4.29,0,0,1,2.7-3.9,11.54,11.54,0,0,1,5.31-1.1,16.9,16.9,0,0,1,7.79,1.84,18.53,18.53,0,0,1,5.3,4.08l9.3-3.45a23.15,23.15,0,0,0-7.88-6.76,28.64,28.64,0,0,0-13.69-3.14,31.12,31.12,0,0,0-11,1.86,17.73,17.73,0,0,0-7.44,5,10.45,10.45,0,0,0-2.56,6.91,8.94,8.94,0,0,0,4,7.72c2.92,2.09,7.41,3.78,13.36,5a85.54,85.54,0,0,1,10.24,2.46c3.05,1.09,3.69,2.83,3.69,4.1a4.36,4.36,0,0,1-2.7,4,12.19,12.19,0,0,1-5.5,1.07,20.46,20.46,0,0,1-9.24-2,16.52,16.52,0,0,1-5.41-4.2Zm21-24.32a8.21,8.21,0,0,0-3.72.71c-.81.42-.81.72-.81.81s.3.35,1.08.64a67.85,67.85,0,0,0,8.57,2c2.3.48,4.33,1,6.11,1.46l0,0a15.12,15.12,0,0,0-5-4.12,13.36,13.36,0,0,0-6.2-1.46"/><path class="cls-1" d="M18.59,146.44H2.87a1.73,1.73,0,0,1-1.74-1.74V127.5c-.08-1.41-.06-3.08,0-4.89l0-25.26a1.74,1.74,0,0,1,1.74-1.74h29c11,0,19.22,7.66,19.22,17.82,0,12.22-17.83,20.94-30.76,23.38v7.89a1.73,1.73,0,0,1-1.74,1.74M4.61,143H16.85v-7.62a1.74,1.74,0,0,1,1.47-1.72c12-1.87,29.29-10.14,29.29-20.2,0-8.31-6.62-14.34-15.74-14.34H4.61l0,23.57c0,1.72,0,3.31,0,4.74Zm14.51-17.84a1.78,1.78,0,0,1-1-.31,1.75,1.75,0,0,1-.75-1.43V109.06a1.74,1.74,0,0,1,1.74-1.74H27.5a5.94,5.94,0,0,1,5.94,5.93v1.14c0,6.08-10.36,9.43-11.54,9.79l-2.16.83a1.67,1.67,0,0,1-.62.12m1.74-14.33v10.06c3.1-1,9.1-3.73,9.1-6.47v-1.14a2.46,2.46,0,0,0-2.46-2.45Z"/><path class="cls-1" d="M116.8,146.44H101.07a1.73,1.73,0,0,1-1.74-1.74V127.5c-.08-1.41-.06-3.08,0-4.89l0-2.89V97.35a1.74,1.74,0,0,1,1.74-1.74h29c11,0,19.22,7.66,19.22,17.82,0,12.22-17.83,20.94-30.76,23.38v7.89a1.73,1.73,0,0,1-1.73,1.74m-14-3.47h12.25v-7.62a1.73,1.73,0,0,1,1.47-1.72c12-1.87,29.28-10.14,29.28-20.2,0-8.31-6.62-14.34-15.74-14.34H102.81v20.63c0,1,0,2,0,2.94,0,1.72,0,3.31,0,4.74Zm14.51-17.84a1.78,1.78,0,0,1-1-.31,1.75,1.75,0,0,1-.75-1.43V109.06a1.74,1.74,0,0,1,1.74-1.74h8.39a5.94,5.94,0,0,1,5.93,5.93v1.14c0,6.08-10.36,9.43-11.54,9.79l-2.16.83a1.67,1.67,0,0,1-.62.12m1.74-14.33v10.06c3.1-1,9.1-3.73,9.1-6.47v-1.14a2.45,2.45,0,0,0-2.45-2.45Z"/><path class="cls-1" d="M95.91,146.27H54a1.74,1.74,0,0,1-1.74-1.74V96.84A1.74,1.74,0,0,1,54,95.1H95.46a1.74,1.74,0,0,1,1.74,1.74v11.8a1.74,1.74,0,0,1-1.74,1.74H70.89v3.36h18.8a1.74,1.74,0,0,1,1.74,1.74V126a1.74,1.74,0,0,1-1.74,1.74H70.89V131h25a1.73,1.73,0,0,1,1.74,1.73v11.81a1.74,1.74,0,0,1-1.74,1.74m-40.16-3.48H94.17v-8.33h-25a1.74,1.74,0,0,1-1.73-1.74V126a1.74,1.74,0,0,1,1.73-1.74H88v-7.07H69.15a1.74,1.74,0,0,1-1.73-1.74v-6.84a1.74,1.74,0,0,1,1.73-1.74H93.72V98.57h-38Z"/><path class="cls-1" d="M218,146.48H202.26a1.74,1.74,0,0,1-1.74-1.74v-44A1.75,1.75,0,0,1,201.76,99l15.74-4.71A1.75,1.75,0,0,1,219.74,96v48.75a1.74,1.74,0,0,1-1.74,1.74M204,143h12.26V98.33L204,102Z"/><path class="cls-2" d="M56.66,84.45a195.51,195.51,0,0,1-55-7.6A2.34,2.34,0,0,1,.22,75.61a2.39,2.39,0,0,1-.06-1.86A119.07,119.07,0,0,1,110.26,0a117.92,117.92,0,0,1,52.43,12.12A119.13,119.13,0,0,1,220,72.89a2.33,2.33,0,0,1-.44,2.41,2.36,2.36,0,0,1-2.35.74A192.13,192.13,0,0,0,172,69.61c-2-.06-4-.06-6.24-.06A200.34,200.34,0,0,0,114.47,76c-2.72.74-5.07,1.42-7.3,2.1l-.12.06a197.38,197.38,0,0,1-50.39,6.31M5.47,73.14c30.42,8.53,69.49,8.77,100.34.55h.06c2.23-.74,4.7-1.48,7.36-2.22a207.73,207.73,0,0,1,52.49-6.56c2,0,4.08,0,6.37.06a204.33,204.33,0,0,1,41.66,5.38,115,115,0,0,0-53.1-54.09A114.58,114.58,0,0,0,5.47,73.14"/><path class="cls-3" d="M109.89,240.43a118.1,118.1,0,0,1-52.42-12.12c-2.48-1.24-5-2.6-7.42-4A119.63,119.63,0,0,1,.22,167.54a2.27,2.27,0,0,1,.37-2.47,2.36,2.36,0,0,1,2.35-.69c31.22,8.47,71.34,8.47,102.81.07,2.78-.81,5.07-1.42,7.17-2.11l.19-.12a194.79,194.79,0,0,1,26.21-4.88A206.67,206.67,0,0,1,163.49,156c19.35,0,38.39,2.59,55,7.6a2.4,2.4,0,0,1,1.42,1.17,2.6,2.6,0,0,1,.07,1.92A119.25,119.25,0,0,1,183.34,215a117.48,117.48,0,0,1-73.45,25.41M6.4,170.07a114,114,0,0,0,46,50.2c2.28,1.36,4.7,2.66,7.17,3.83a114.25,114.25,0,0,0,120.86-12.67.06.06,0,0,0,.06-.06c.07,0,.07-.06.13-.06a115.38,115.38,0,0,0,34.06-44c-22.5-6.31-49.58-8.29-74.8-5.38a178.75,178.75,0,0,0-25.47,4.82h-.07c-2.35.74-4.82,1.49-7.42,2.17a204.71,204.71,0,0,1-52.48,6.61,207.74,207.74,0,0,1-48-5.44"/><path class="cls-3" d="M37.42,200.73a1.76,1.76,0,0,1-1.19-.47,107.93,107.93,0,0,1-15.34-17.85,1.74,1.74,0,0,1,1.69-2.71,222.3,222.3,0,0,0,22.91,2.09,1.75,1.75,0,0,1,1.67,1.81,1.73,1.73,0,0,1-1.81,1.67c-6.49-.26-13-.79-19.27-1.58a103.66,103.66,0,0,0,12.53,14,1.74,1.74,0,0,1-1.19,3"/><path class="cls-3" d="M54.44,185.47c-2.85,0-5.81-.07-9.09-.19a1.75,1.75,0,0,1-1.67-1.73v-.12a1.75,1.75,0,0,1,1.73-1.67c3.28.18,6.25.24,9,.24a212,212,0,0,0,54.15-6.86c2.72-.74,5.26-1.48,7.73-2.29A175.56,175.56,0,0,1,139,168.59a1.74,1.74,0,1,1,.43,3.46,173.29,173.29,0,0,0-22.07,4.14c-2.53.87-5.19,1.61-7.79,2.29a214,214,0,0,1-55.08,7"/><path class="cls-3" d="M189.51,193.49a1.83,1.83,0,0,1-1.16-.43,1.74,1.74,0,0,1-.15-2.46A104.82,104.82,0,0,0,200.13,174a182.55,182.55,0,0,0-20.4-2.83,1.74,1.74,0,0,1-1.59-1.87,1.7,1.7,0,0,1,1.87-1.59,183.75,183.75,0,0,1,23.17,3.36,1.75,1.75,0,0,1,1.22,1,1.72,1.72,0,0,1-.06,1.56,107.66,107.66,0,0,1-13.53,19.26,1.72,1.72,0,0,1-1.3.59"/><path class="cls-3" d="M109.89,229.3A106.92,106.92,0,0,1,81,225.4a1.75,1.75,0,0,1-1-.8,1.64,1.64,0,0,1-.19-1.3A1.82,1.82,0,0,1,82,222.06a102.39,102.39,0,0,0,27.94,3.78,104.49,104.49,0,0,0,78.33-35.24,1.75,1.75,0,0,1,2.41-.13,1.67,1.67,0,0,1,.19,2.42,107.71,107.71,0,0,1-80.93,36.41"/><path class="cls-2" d="M40.29,72.68h-.15A182.73,182.73,0,0,1,17,69.31a1.72,1.72,0,0,1-1.21-1,1.75,1.75,0,0,1,.05-1.56A108,108,0,0,1,29.34,47.51,1.74,1.74,0,0,1,32,49.81,104.28,104.28,0,0,0,20,66.38a183.21,183.21,0,0,0,20.4,2.83,1.74,1.74,0,0,1-.14,3.47"/><path class="cls-2" d="M30.64,50.38A1.49,1.49,0,0,1,29.52,50a1.72,1.72,0,0,1-.62-1.23,2.12,2.12,0,0,1,.44-1.24A108.3,108.3,0,0,1,139.32,15a1.64,1.64,0,0,1,1.05.81,1.74,1.74,0,0,1,.19,1.36,1.8,1.8,0,0,1-2.17,1.17A104.69,104.69,0,0,0,31.94,49.83a1.71,1.71,0,0,1-1.3.55"/><path class="cls-2" d="M197.84,60.71h-.25a222.81,222.81,0,0,0-22.91-2.09,1.74,1.74,0,0,1,.14-3.48c6.48.26,13,.79,19.27,1.58a104.34,104.34,0,0,0-12.53-14,1.74,1.74,0,1,1,2.38-2.54A108.89,108.89,0,0,1,199.28,58a1.76,1.76,0,0,1,0,1.91,1.74,1.74,0,0,1-1.48.81"/><path class="cls-2" d="M80.83,71.9a1.77,1.77,0,0,1-.18-3.52A152.78,152.78,0,0,0,103,64.11c2.35-.74,4.82-1.48,7.6-2.23A216.65,216.65,0,0,1,165.72,55q4.64,0,9.09.18a1.77,1.77,0,0,1,1.66,1.74v.06a1.72,1.72,0,0,1-1.73,1.67c-21.82-.81-44,1.48-63.18,6.67-2.72.68-5.19,1.43-7.6,2.23a180.22,180.22,0,0,1-22.88,4.33.47.47,0,0,1-.25.06"/><path class="cls-4" d="M22.09,181.35s22.22,34.77,65.15,43.72"/><path class="cls-4" d="M184.08,169.92a191.23,191.23,0,0,0-50.36.83"/><path class="cls-5" d="M187.89,46.51C173,29.61,149.05,19,136.21,16"/><path class="cls-5" d="M85.23,69.57c-13.69,1.85-31.31,4-56.33,0"/></g></g></svg>