<?xml version="1.0" encoding="UTF-8"?>
<svg id="Capa_2" xmlns="http://www.w3.org/2000/svg" xmlns:xlink="http://www.w3.org/1999/xlink" viewBox="0 0 190.33 114.2">
  <defs>
    <style>
      .cls-1 {
        fill: #263732;
      }

      .cls-2 {
        fill: #487ba2;
      }

      .cls-3 {
        fill: #95d4fd;
      }

      .cls-4 {
        fill: #fff;
      }

      .cls-5 {
        fill: #f5cd28;
      }

      .cls-6 {
        fill: #f3cd2d;
      }

      .cls-7 {
        fill: #0063c5;
      }

      .cls-8 {
        fill: none;
      }

      .cls-9 {
        fill: #b0008a;
      }

      .cls-10 {
        fill: #5b7133;
      }

      .cls-11 {
        fill: #93c438;
      }

      .cls-12 {
        fill: #6091be;
      }

      .cls-13 {
        fill: #2f4791;
      }

      .cls-14 {
        clip-path: url(#clippath);
      }

      .cls-15 {
        fill: #c0003b;
      }
    </style>
    <clipPath id="clippath">
      <circle class="cls-8" cx="95.17" cy="57" r="57"/>
    </clipPath>
  </defs>
  <g id="Capa_1-2" data-name="Capa_1">
    <g class="cls-14">
      <g id="NICARAGUA">
        <g>
          <rect class="cls-7" y="76.14" width="190.33" height="38.06"/>
          <rect class="cls-7" width="190.33" height="38.07"/>
          <rect class="cls-4" y="38.07" width="190.33" height="38.07"/>
        </g>
        <g>
          <polygon class="cls-5" points="83.96 63.83 95.2 44.36 106.44 63.83 83.96 63.83"/>
          <polygon class="cls-3" points="85.06 63.19 95.19 45.64 105.32 63.19 85.06 63.19"/>
          <g>
            <path class="cls-3" d="M87.07,61.56c-.14,0-.28-.03-.41-.05l-.31-.08-.03-.2.37.11c.3.05.59.08.94.08-.2.11-.37.15-.56.15h0Z"/>
            <path class="cls-3" d="M86.13,62.81l-.24-.13c.12-.05.22-.18.37-.35.25-.08.39-.04.54,0,.1.02.2.06.34.06.21.12.51.1.71.01l.29-.04-.21.2c-.21.1-.6.16-.85-.01-.09.01-.22-.01-.33-.04-.14-.04-.24-.07-.4-.02-.1.13-.18.25-.22.32h0Z"/>
            <path class="cls-3" d="M88.09,63c-.29-.04-.49-.04-.79-.03l-.28-.09v.1c-.2.02-.27.02-.32-.03l-.04.03v-.11c.16-.08.28-.08.37-.09h.28c.34,0,.6,0,.79.22h0Z"/>
            <path class="cls-3" d="M90.91,61.48c-.39,0-.52-.13-.6-.52-.14-.02-.42-.02-.62.07h-.31s-.08-.18-.08-.18h.34c.21-.12.56-.12.8,0,.12.43.2.48.5.49,0-.08.15-.14.27-.21l.24.08c-.26.14-.39.21-.45.28h-.09Z"/>
            <path class="cls-3" d="M90.26,62.52l-.23-.13c.13-.05.21-.18.37-.35.31-.22.48-.34.92-.23.36.28.45.36.72.38.17,0,.3-.02.42-.05.1-.01.2-.03.31-.05-.09.21-.19.22-.29.24-.13.02-.26.04-.46.04-.34-.03-.47-.14-.67-.31-.45-.17-.56-.08-.8.08-.16.17-.24.29-.29.36h0Z"/>
            <path class="cls-3" d="M92.3,63.15c-.3,0-.5-.09-.73-.18l-.26-.11c-.07.08-.17.13-.23.16l-.08-.14h.07s.09-.09.23-.17l.34.11c.21.09.39.16.65.17.09,0,.17-.03.25-.04.11-.02.21-.06.36-.06-.12.18-.21.22-.31.24-.09.02-.18.03-.29.04h0Z"/>
            <path class="cls-3" d="M94.73,61.12c-.28-.09-.57-.09-.86-.09h-.35l-.07-.18h.34c.4-.02.69,0,.98.1h.93s-.96.17-.96.17h0Z"/>
            <path class="cls-3" d="M95.16,62.28c-.35-.03-.51-.14-.69-.27l-.21-.13c-.18-.19-.49-.25-.75-.28-.09.09-.2.12-.26.15l-.07-.14h.07c-.02-.05.08-.1.22-.18.36.03.7.09.94.31l.17.12c.17.13.31.21.58.23.24-.11.32-.16.43-.18l-.15.27c-.07.04-.14.09-.28.1h0Z"/>
            <path class="cls-3" d="M95.62,62.76c-.28,0-.5-.03-.71-.09-.25-.16-.56,0-.66.08l-.11-.15c.17-.12.54-.29.84-.11.25.09.55.09.84.09.11-.04.22-.09.33-.14.16-.07.32-.14.41-.22l.03-.02h.23l-.21.18c-.05.08-.22.16-.4.23-.11.04-.22.1-.31.14-.11.01-.22.01-.31.01h0Z"/>
            <path class="cls-3" d="M98.08,61.6c-.29-.12-.74-.11-.95-.09l-.08-.09.08-.09c.23,0,.7-.02.97.11.21-.05.32-.2.48-.39l.15-.16c.33-.04.56-.03.79.07-.27.09-.48.08-.71.08-.25.33-.41.53-.72.58h0Z"/>
            <path class="cls-3" d="M98.36,62.67l-.05-.18s.28-.08.49-.1c.21-.25.37-.12.5-.03.07.06.13.11.22.13.28-.11.43-.32.58-.63.03.38-.16.68-.56.81-.18-.04-.27-.11-.35-.16-.12-.1-.16-.12-.3.03-.25.05-.52.13-.52.13h0Z"/>
            <path class="cls-3" d="M99.16,61.93l-.08-.12h.07c-.04-.08.07-.14.21-.27l.18-.15c.11-.12.21-.22.48-.26.17-.23.37-.04.5.07-.29,0-.33-.01-.42.09-.26.04-.32.11-.44.22-.05.06-.09.11-.19.18-.14.12-.24.19-.31.24h0Z"/>
            <path class="cls-3" d="M100.59,62.69l-.17-.03c.01-.07.13-.51.2-.68.22-.15.36-.23.51-.2.12.04.22.16.34.37.06.01.19.08.31.16.13.07.25.14.38.19-.22.13-.35.05-.48-.03-.11-.07-.22-.13-.34-.17-.13-.22-.21-.3-.27-.32-.08,0-.18.03-.33.12-.01.12-.14.54-.16.6h0Z"/>
            <path class="cls-3" d="M102.27,61.6c-.24-.41-.33-.61-.57-.68-.01.17-.07.32-.11.4l-.22-.09c.09-.06.16-.22.28-.43.43.03.54.3.66.59.3.03.47.02.64-.12-.08.33-.33.35-.68.35h0Z"/>
            <path class="cls-3" d="M104.39,62.52c-.3-.03-.4-.13-.48-.22-.1-.08-.17-.16-.31-.21-.14-.09-.25-.05-.42.32l-.17-.07c.1-.22.25-.51.46-.53l.24.14c.12.03.23.12.33.21.08.08.17.16.31.23-.06-.13.04-.17.22-.21-.1.21-.12.21-.17.32h0Z"/>
            <path class="cls-3" d="M97.2,62.82l-.08-.14h.07c-.01-.06.08-.11.23-.18.29-.24.4-.33.57-.64.23-.04.36-.02.47,0,.17.02.31.05.48.05-.18.18-.34.16-.5.13-.12-.02-.24-.03-.37-.06-.11.3-.24.41-.49.61-.22.14-.33.19-.38.23h0Z"/>
            <path class="cls-3" d="M88.52,61.62h-.18c0-.12.1-.2.46-.38.13-.14.27-.09.39-.05l.2.22c-.1,0-.19-.03-.26-.05v.02l-.24.02c-.27.14-.36.2-.37.22h0Z"/>
            <path class="cls-3" d="M89.58,62.57c-.08,0-.15-.03-.21-.07-.08-.06-.17-.1-.28-.13-.08.08-.19.13-.25.16l-.07-.15h.07c-.02-.05.08-.1.22-.18.21.02.31.08.41.14.1.06.19.12.34.14-.09.07-.16.09-.22.09h0Z"/>
            <polygon class="cls-4" points="95.24 59.2 95.15 45.81 95.24 45.81 95.24 59.2 95.24 59.2"/>
            <polygon class="cls-4" points="90.37 54.11 90.37 54.02 100.03 54.02 90.37 54.11 90.37 54.11"/>
            <polygon class="cls-4" points="102.46 58.22 91.62 52.07 91.67 51.98 102.46 58.22 102.46 58.22"/>
            <polygon class="cls-4" points="87.96 58.32 98.84 51.94 98.89 52.02 87.96 58.32 87.96 58.32"/>
            <polygon class="cls-4" points="93.05 57.91 92.97 57.87 97.06 50.79 93.05 57.91 93.05 57.91"/>
            <polygon class="cls-4" points="97.79 58.46 93.14 50.58 93.23 50.53 97.79 58.46 97.79 58.46"/>
            <path class="cls-3" d="M96.69,54.06c0,.81-.67,1.48-1.5,1.48s-1.49-.67-1.49-1.48.67-1.49,1.49-1.49,1.5.66,1.5,1.49h0Z"/>
            <path class="cls-2" d="M103.5,60.01l-5.02.08s.02.73.36.76c.32.02,4.48-.05,4.65.28.18.33-4.05.51-4.05.51,0,0,3.72-.03,3.92.26.21.28-2.04.34-1.88.39.19.04,2.64-.05,2.86.22.24.28-1.1.46-1.1.46,0,0,2.02.2,2.08.19-.49-.85-1.81-3.16-1.81-3.16h0Z"/>
            <path class="cls-15" d="M94.45,53.08c-.16.11.38.18.33.54-.04.25-.33.59-.46.82-.13.23.59,1.07,1.24.62.65-.46.57-1.28.36-1.43-.53-.35-.87-.88-1.47-.54h0Z"/>
            <path d="M95.4,55c-.03-.09-.25-.3-.43-.42-.16-.1-.42-.16-.5-.11,0,.01,0,.08-.02.09-.01,0-.03.05-.04.03,0-.01.02-.17.03-.17.11-.09.43.03.56.11s.44.32.4.47h0Z"/>
            <path class="cls-10" d="M90.89,56.13c.59-.14.76.54.95.67.2.11.7.17.84.24.13.08.64.42.64.42,0,0,.23-.61.49-.66.28-.06,1.41.73,1.41.73,0,0,.12-.73.43-.63.31.09,1.82,1.24,1.82,1.24,0,0,.07-.4.4-.51.33-.12,1.45.57,1.45.57,0,0,.12-.56.35-.56.66,0,2.82,2.34,3.3,2.4.22.02-.79.32-.79.32,0,0,.18.14.08.28-.09.13-3.07.02-3.07.02,0,0,.08.2.03.26-.08.12-12.97.21-12.97.21,1.2-2.08,3.57-4.75,4.64-4.99h0Z"/>
            <path class="cls-1" d="M95.98,61.02c.45-.12.13-1.37-2.33-3.27,3.9,2.71,1.42,3.08,5.42,3.19-.71.05-3.09.08-3.09.08h0Z"/>
            <path class="cls-1" d="M95.34,57.65s3.7,2.85,3.85,3c.18,0,.78.03.78.03,0,0-.51-.03-4.63-3.02h0Z"/>
            <path class="cls-1" d="M97.55,58.22s3.11,2.43,2.61,2.45c-.53,0,1.7.06,2.09-.03-2.01-.11-1.6-.2-4.7-2.42h0Z"/>
            <path class="cls-1" d="M99.43,58.31l2.75,2.04s.43-.12.65-.22c-.82.13-.96-.24-3.4-1.81h0Z"/>
            <path class="cls-11" d="M91.37,56.39c.21.14.28.42.41.5.13.07,1.4.67,2.11,1.4.69.73,1.76,1.65,1.38,1.77-.37.11-.74-.29-.74-.29,0,0,.52.86-.18.91-.7.07-2.42-2.54-2.42-2.54,0,0,.82,2.36-.23,2.26-1.06-.09-.95-1.79-.95-1.79,0,0-.28.81-.49.79-.21-.02,0-1.05,0-1.05,0,0-1.22,2.04-1.68,1.81-.48-.24,1.88-3.93,2.8-3.76h0Z"/>
            <path class="cls-11" d="M93.91,57.09c-.03-.19.15-.13.53.06.38.17,3.43,2.55,3.35,2.8-.08.24-3.71-1.72-3.88-2.86h0Z"/>
            <path class="cls-11" d="M96.17,57.48c-.24-.05,2.42,2.64,3.05,2.48.63-.18-2.88-2.44-3.05-2.48h0Z"/>
            <path class="cls-11" d="M98,57.72c-.29-.03,2.59,2.58,3.21,2.43.63-.12-2.75-2.4-3.21-2.43h0Z"/>
            <path class="cls-11" d="M99.69,57.86c-.32.06,2.15,1.96,2.44,1.94.32-.02-1.71-2.06-2.44-1.94h0Z"/>
            <path class="cls-9" d="M91.19,52.58s1.52-1.77,4.01-1.77,4.01,1.77,4.01,1.77l-.6-1.06s-1.23-1.26-3.39-1.26-3.39,1.23-3.39,1.23l-.63,1.09Z"/>
            <path class="cls-15" d="M98.21,50.86s-1.09-.93-3.02-.93-3.01.94-3.01.94l-.5.85s1.17-1.33,3.51-1.33,3.54,1.34,3.54,1.34l-.51-.87Z"/>
            <path class="cls-6" d="M97.84,50.1s-.99-.73-2.65-.73-2.53.67-2.53.67l-.54.91s.99-.98,3.08-.98,3.08.98,3.08.98l-.44-.85Z"/>
            <path class="cls-11" d="M97.37,49.41l.48.81s-.98-.72-2.66-.72-2.67.77-2.67.77l.48-.82s.67-.5,2.19-.5,2.18.47,2.18.47h0Z"/>
            <path class="cls-12" d="M97.04,48.84l.41.68s-.96-.48-2.25-.48-2.31.61-2.31.61l.38-.67s.68-.42,1.92-.42,1.85.27,1.85.27h0Z"/>
            <path class="cls-13" d="M96.83,48.47l.31.56s-.6-.4-1.94-.4-1.96.4-1.96.4l.33-.59s.6-.22,1.63-.22,1.64.25,1.64.25h0Z"/>
            <path class="cls-4" d="M92.74,61.3l5.05.05s-.87.11-.86.21c.04.1,1.8.14,1.8.14,0,0-1.09.08-1.1.2-.04.09.5.15.5.15,0,0-.99.09-.99.21,0,.09,1.27.15,1.18.15-.1,0-1.67.02-1.67.15s1.12.39,1.12.39l-6.64.12s1.04-.16,1.04-.35c0-.22-.73-.26-.73-.26,0,0,2.71.05,2.83-.08s-.57-.22-.57-.22c0,0,1.08.06,1.15-.06.08-.12-1.45-.34-1.45-.34,0,0,.89.02,1.02-.13.12-.14-1.67-.32-1.67-.32h0Z"/>
            <path class="cls-2" d="M91.77,61.43s-4.98.15-5.41.43c-.43.28,2.78.56,2.78.56,0,0-3.31.03-3.57.33-.25.31,1.98.26,1.98.26l-2.5.17,1.19-2.05,5.52.29Z"/>
            <path class="cls-6" d="M80.69,61.75c.06.16-.04.35-.21.42-.18.05-.36-.04-.41-.21-.06-.18.04-.37.21-.42.17-.06.36.03.41.21h0Z"/>
            <path class="cls-8" d="M80.69,61.75c.06.16-.04.35-.21.42-.18.05-.36-.04-.41-.21-.06-.18.04-.37.21-.42.17-.06.36.03.41.21Z"/>
            <path class="cls-6" d="M81.21,64.93c-.2.18-.35.29-.21.58l-.12.06-.53-1.14.1-.05c.1.2.17.22.27.18.06-.03.12-.08.17-.13l.32-.3-.39-.83-.23.03c-.1.01-.21.02-.3.07-.17.08-.16.25-.11.41l-.11.04-.4-.85.11-.06c.22.27.41.26.73.24l1.96-.18.37.41-1.63,1.52ZM82.21,63.2l-1.2.11.33.71.87-.81Z"/>
            <path class="cls-6" d="M82.97,67.74c-.2.16-.2.27-.05.48l-.09.07-.75-1.03.09-.07c.15.21.26.24.47.08l1.5-1.11h0l-2.33.72-.07-.11,1.32-1.99h0l-1.17.85c-.46.35-.5.41-.34.68l-.09.07-.53-.74.09-.06c.23.21.3.24.76-.11l1.1-.82c.21-.16.2-.28.06-.47l.09-.07.62.84-.98,1.45,1.65-.51.6.83-.09.07c-.17-.2-.25-.25-.47-.09l-1.38,1.03Z"/>
            <path class="cls-6" d="M83.4,68.68c.2.18.3.18.47,0l1.15-1.3c.17-.18.16-.3-.05-.47l.08-.09,1.6,1.43-.27.65-.11-.03c.03-.4-.07-.85-.38-1.11-.24-.21-.31-.13-.47.06l-.46.53.05.05c.27.23.42.29.76.11l.09.09-.67.78-.12-.11c.17-.32.09-.52-.16-.74l-.06-.06-.51.57c-.14.15-.21.27-.01.43.32.3.79.38,1.2.33l.03.09-.64.32-1.59-1.44.08-.09Z"/>
            <path class="cls-6" d="M87.49,71.21c-.02.28-.04.53.21.71l-.07.1-.74-.47c0-.11.01-.23.02-.33l.06-.5c.07-.5-.03-.61-.16-.69l-.42.68c-.13.22-.11.34.12.48l-.06.09-1.08-.68.06-.12c.21.14.33.13.46-.08l.91-1.47c.12-.2.09-.32-.12-.46l.06-.09,1.3.81c.44.28.57.71.36,1.02-.2.34-.59.31-.92.18.06.12.04.26.03.38l-.04.43ZM86.97,69.92c.49.32.74.25.95-.08.19-.3.08-.52-.25-.73-.2-.12-.25-.05-.36.12l-.41.66.06.03Z"/>
            <path class="cls-6" d="M88.98,70.2c.1-.23.06-.33-.17-.44l.05-.12,1.16.54-.04.11c-.24-.11-.36-.08-.45.15l-.71,1.57c-.1.24-.05.35.17.45l-.04.11-1.16-.54.05-.11c.23.11.34.07.45-.16l.7-1.57Z"/>
            <path class="cls-6" d="M91.81,71.56h-.16c-.05-.37-.21-.82-.6-.94-.51-.17-.83.45-.95.85-.27.83.03,1.3.41,1.43.33.1.63-.06.87-.26l.07.09c-.36.34-.77.51-1.25.35-.68-.22-.97-.94-.76-1.6.22-.71.91-1.25,1.62-1.03.12.04.21.1.28.16.07.06.14.12.2.14.09.02.2,0,.28,0h.04s-.04.8-.04.8Z"/>
            <path class="cls-6" d="M93.59,73.18c.05.26.05.45.37.51l-.02.12-1.23-.2.02-.11c.23.03.29-.01.31-.12,0-.08,0-.14-.01-.22l-.07-.43-.89-.14-.11.2c-.06.09-.11.19-.12.29-.03.18.12.27.27.32l-.03.12-.92-.16.02-.11c.33-.03.43-.21.59-.47l.98-1.73.54-.08.31,2.24ZM92.75,71.35l-.6,1.07.78.14-.18-1.21Z"/>
            <path class="cls-6" d="M97.25,71.81l-.16.05c-.18-.33-.5-.68-.9-.66-.54.04-.62.73-.6,1.16.06.86.51,1.2.9,1.18.36-.02.57-.29.72-.56l.11.06c-.22.45-.53.76-1.04.79-.71.04-1.24-.54-1.28-1.21-.05-.75.41-1.51,1.14-1.56.13,0,.24.02.33.04.09.03.16.05.24.05.09-.01.17-.05.25-.1l.04-.02.25.78Z"/>
            <path class="cls-6" d="M97.74,73.51c.25-.05.32-.16.26-.4l-.38-1.69c-.05-.24-.17-.29-.41-.24l-.02-.12,2.08-.49.36.6-.09.07c-.31-.25-.72-.42-1.12-.34-.31.08-.28.18-.22.45l.15.67h.08c.34-.09.49-.19.51-.57l.13-.04.25,1.01-.13.03c-.18-.33-.38-.37-.72-.29h-.06s.17.75.17.75c.05.2.09.33.35.28.42-.1.75-.43.95-.81l.09.02-.09.71-2.09.49-.02-.12Z"/>
            <path class="cls-6" d="M102.2,71.34l-.47-1.1c-.13-.27-.22-.42-.55-.3l-.05-.12.85-.37.06.1c-.29.2-.27.33-.14.61l.8,1.84-.3.12-2.12-1.29.54,1.27c.16.36.22.41.6.33l.04.11-.92.4-.05-.11c.29-.2.31-.31.17-.61l-.65-1.52c-.13-.07-.31-.09-.46-.06l-.05-.11.82-.36,1.87,1.16Z"/>
            <path class="cls-6" d="M103.87,68.11l.56.49-.08.11c-.3-.12-.74-.23-1.02-.03l1.14,1.67c.13.21.25.23.46.08l.07.1-1.04.72-.06-.1c.21-.13.24-.26.09-.46l-1.13-1.68c-.27.23-.35.62-.34.97l-.13.05-.26-.7,1.76-1.21Z"/>
            <path class="cls-6" d="M106.91,67.97c.26.08.5.16.73-.04l.08.08-.63.62c-.11-.03-.21-.06-.32-.11l-.46-.17c-.47-.18-.6-.12-.7,0l.55.57c.18.18.29.17.47-.01l.08.09-.9.89-.08-.08c.18-.17.18-.3.02-.47l-1.19-1.24c-.18-.18-.31-.17-.48,0l-.08-.08,1.08-1.08c.39-.37.8-.4,1.08-.13.26.28.15.66-.05.96.13-.04.26.01.38.06l.41.13ZM105.55,68.18c.42-.41.41-.68.14-.95-.25-.26-.49-.21-.76.06-.18.16-.11.25.03.38l.54.55.04-.05Z"/>
            <path class="cls-6" d="M108.72,65.64c.27.09.43.16.62-.09l.1.07-.72,1.01-.09-.07c.12-.2.11-.26.03-.33-.05-.03-.12-.06-.2-.08l-.41-.13-.53.74.13.2c.06.08.12.17.22.23.13.1.29,0,.4-.12l.09.08-.56.76-.09-.05c.11-.32.01-.5-.16-.76l-1.1-1.64.15-.53,2.12.7ZM106.74,65.6l.68,1.02.44-.65-1.13-.37Z"/>
            <path class="cls-6" d="M109.38,65.41c.12-.25.08-.36-.14-.47l-1.53-.77c-.22-.11-.33-.06-.45.17l-.11-.05.57-1.15.11.05c-.12.23-.08.36.13.46l1.54.77c.18.08.28.13.39-.11.2-.39.1-.86-.06-1.25l.07-.06.54.52-.96,1.95-.11-.05Z"/>
            <path class="cls-6" d="M109.65,61.75c.05-.17.25-.27.41-.21.18.05.26.23.21.41-.05.17-.24.27-.4.21-.18-.06-.27-.24-.22-.42h0Z"/>
            <path class="cls-6" d="M80.71,58.53c.21-.17.42-.32.38-.64h.12s.13.88.13.88c-.08.07-.18.12-.28.18l-.4.28c-.43.28-.45.43-.42.58l.79-.13c.24-.03.31-.14.27-.39l.12-.03.19,1.28-.11.02c-.05-.26-.13-.33-.37-.29l-1.7.26c-.25.04-.31.14-.27.4l-.11.02-.23-1.53c-.08-.54.15-.9.52-.95.38-.06.62.25.74.58.06-.12.17-.2.28-.27l.35-.25ZM80.09,59.77c-.09-.6-.31-.74-.68-.66-.36.05-.45.27-.4.65.04.24.14.24.34.21l.75-.13v-.06Z"/>
            <path class="cls-6" d="M81.12,57.75c.01-.26-.07-.35-.32-.36l-1.71-.07c-.25-.01-.33.08-.33.35h-.12s.08-2.17.08-2.17l.67-.21.05.12c-.32.23-.59.59-.6.99-.01.32.09.33.34.33l.7.03v-.08c.01-.35-.04-.52-.4-.65v-.14l1.03.05v.14c-.37.08-.45.27-.47.61v.08l.75.04c.2,0,.34,0,.36-.26.02-.46-.22-.85-.54-1.14l.05-.1.66.29-.08,2.16h-.11Z"/>
            <path class="cls-6" d="M80.38,54.03l.73.16c.25.07.33,0,.39-.27l.11.03-.27,1.26-.12-.03c.06-.25,0-.36-.24-.4l-1.67-.38c-.24-.05-.34.01-.39.26l-.12-.02.28-1.27c.17-.78.57-1.01.9-.92.64.14.56.78.46,1.27l-.07.31ZM80.24,54l.05-.2c.09-.43-.02-.66-.43-.75-.37-.08-.58.09-.66.42-.06.28.05.3.29.37l.75.16Z"/>
            <path class="cls-6" d="M81.3,51.84c.58.26.83.13.99-.22.19-.49-.05-.75-.52-.95l-1.16-.48c-.24-.09-.33-.03-.43.21l-.11-.04.33-.83.11.04c-.1.24-.06.35.17.45l1.18.49c.57.24.78.61.51,1.26-.27.66-.7.87-1.21.66l-1.24-.51c-.24-.09-.34-.04-.43.2l-.11-.05.48-1.18.1.04c-.09.23-.05.34.18.45l1.16.47Z"/>
            <path class="cls-6" d="M82.74,50.66l-.09-.06c.13-.21.11-.35-.1-.48l-1.44-.93c-.21-.13-.32-.1-.46.11l-.11-.06.69-1.09c.5-.78.84-.8,1.1-.63.31.2.26.62.14.91h0c.27-.29.62-.56,1.02-.29.36.22.42.63.05,1.22l-.81,1.29ZM82.11,48.9c.24-.38.22-.64-.09-.83-.32-.2-.54-.08-.71.21-.04.06-.09.17-.08.25.03.07.09.11.14.13l.64.41.1-.17ZM82.76,49.57c.27.17.37.25.56-.07.2-.29.19-.6-.19-.84-.28-.17-.54-.22-.89.34l-.11.17.63.4Z"/>
            <path class="cls-6" d="M84.08,48.36c.18-.19.18-.31-.01-.47l-1.26-1.17c-.2-.17-.31-.16-.48.03l-.08-.08.85-.96.08.08c-.17.19-.17.31.01.48l1.27,1.16c.16.14.23.21.41,0,.29-.32.33-.78.27-1.21l.09-.04.37.65-1.43,1.6-.08-.08Z"/>
            <path class="cls-6" d="M84.69,44.79c-.16-.19-.29-.2-.48-.03l-.07-.09.98-.82.08.09c-.2.18-.22.28-.05.49l1.09,1.33c.17.2.28.2.48.03l.07.08-.98.82-.07-.09c.19-.17.2-.28.05-.48l-1.09-1.33Z"/>
            <path class="cls-6" d="M87.73,42.99l-.1.13c-.32-.21-.77-.37-1.12-.15-.45.29-.18.94.03,1.29.47.74,1.01.81,1.35.59.3-.18.36-.51.37-.83h.12c.02.5-.11.92-.55,1.2-.59.39-1.33.15-1.69-.44-.4-.63-.37-1.51.26-1.9.1-.07.21-.1.29-.13.08-.02.16-.04.22-.07.08-.06.13-.13.17-.21l.02-.04.6.56Z"/>
            <path class="cls-6" d="M90.63,43.17c.18.21.26.37.57.25l.04.12-1.15.47-.06-.11c.2-.1.25-.16.2-.26-.02-.07-.08-.13-.12-.18l-.27-.33-.84.34v.24c.02.09.02.21.06.3.06.17.24.17.39.12l.05.11-.88.35-.05-.11c.26-.21.26-.4.26-.71l-.06-1.99.42-.36,1.41,1.75ZM88.98,42.06l.03,1.22.72-.29-.75-.93Z"/>
            <path class="cls-6" d="M92.28,43.16c.26-.03.33-.12.31-.38l-.18-1.71c-.03-.25-.12-.33-.38-.3l-.02-.11,1.23-.14c.22-.03.42-.03.61.02.47.13.85.52.92,1.14.07.59-.22,1.06-.64,1.28-.18.1-.38.14-.61.17l-1.22.13-.02-.11ZM93.17,42.69c.02.26.03.34.35.31.44-.05.74-.34.63-1.32-.1-.87-.45-1.06-.93-1.01-.27.02-.26.14-.25.36l.2,1.67Z"/>
            <path class="cls-6" d="M94.94,42.88c.27.02.36-.05.37-.31l.12-1.73c.01-.24-.07-.32-.32-.35v-.11s2.14.14,2.14.14l.18.69-.11.04c-.23-.32-.57-.62-.98-.65-.31-.02-.31.09-.33.36l-.04.69h.06c.36.02.52-.02.66-.37h.14s-.07,1.04-.07,1.04h-.14c-.07-.38-.25-.48-.59-.49l-.08-.02-.04.76c-.02.21-.01.35.25.36.43.04.85-.18,1.15-.5l.09.05-.31.65-2.14-.15v-.11Z"/>
            <path class="cls-6" d="M100.62,43.28l.39-1.14c.09-.3.12-.47-.21-.6l.03-.12.9.3-.06.11c-.33-.04-.41.08-.51.37l-.62,1.9-.31-.11-.71-2.4-.44,1.31c-.11.36-.1.45.23.64l-.04.12-.95-.32.03-.12c.34.06.43-.02.54-.32l.53-1.58c-.07-.15-.17-.29-.32-.36l.05-.12.85.29.61,2.14Z"/>
            <path class="cls-6" d="M102.12,42.46c.12-.23.06-.34-.16-.45l.07-.11,1.12.58-.04.11c-.23-.12-.35-.09-.46.14l-.76,1.54c-.12.23-.07.34.15.46l-.05.1-1.13-.58.05-.11c.23.12.35.08.45-.13l.77-1.55Z"/>
            <path class="cls-6" d="M104.98,44.57l-.16-.06c.07-.37.03-.85-.31-1.08-.45-.3-.93.2-1.17.55-.47.71-.32,1.25,0,1.48.29.21.61.13.91,0l.04.11c-.44.22-.88.28-1.31-.02-.58-.41-.66-1.17-.28-1.74.41-.63,1.23-.94,1.82-.53.11.07.18.16.23.24.06.07.12.13.17.17.08.06.17.08.26.08h.04l-.27.79Z"/>
            <path class="cls-6" d="M105.98,47.31c-.13.24-.24.41,0,.63l-.09.09-.89-.87.08-.09c.17.15.24.16.31.08.05-.05.1-.13.11-.18l.2-.39-.64-.64-.21.11c-.09.04-.2.1-.26.17-.12.12-.06.28.04.41l-.08.08-.68-.66.08-.08c.31.16.47.08.76-.05l1.78-.85.5.24-1.01,2ZM106.32,45.34l-1.1.53.56.55.54-1.07Z"/>
            <path class="cls-6" d="M107.65,49.57c-.13.24-.24.47-.09.73l-.09.07-.5-.73c.04-.11.11-.19.16-.3l.25-.42c.27-.43.21-.58.13-.71l-.66.46c-.21.15-.21.26-.07.48l-.09.06-.72-1.05.1-.07c.14.21.26.24.46.09l1.42-.97c.21-.14.22-.27.08-.48l.09-.06.87,1.27c.28.44.25.88-.07,1.09-.32.22-.67.03-.9-.21,0,.13-.08.25-.14.37l-.21.39ZM107.68,48.17c.33.49.59.53.9.31.28-.2.28-.45.06-.76-.13-.19-.21-.14-.37-.04l-.63.43.04.07Z"/>
            <path class="cls-6" d="M108.94,52.48c-.22.17-.37.28-.26.58l-.11.05-.48-1.17.12-.05c.09.21.14.23.25.2.06-.02.12-.07.17-.12l.34-.29-.34-.84-.25.02c-.09,0-.21.01-.29.04-.16.07-.17.25-.12.41l-.12.03-.36-.88.12-.05c.2.28.39.28.7.27l1.97-.07.35.42-1.71,1.43ZM110.04,50.81l-1.22.03.29.74.93-.77Z"/>
            <path class="cls-6" d="M110.89,54.98l-.07-.11c.36-.4.54-.66.48-.98-.07-.35-.46-.63-1.34-.44-.88.17-1.14.51-1.06.91.08.38.37.38.69.32.29-.06.3-.14.26-.41l.13-.03.25,1.19-.13.02c-.09-.28-.17-.3-.44-.24l-.52.11c-.06-.25-.06-.27-.17-.48-.1-.17-.17-.32-.22-.5-.15-.76.27-1.34,1-1.49.72-.14,1.53.21,1.68.98.03.09.02.2.01.29-.01.07-.02.15-.01.22.02.08.1.21.16.27l-.69.37Z"/>
            <path class="cls-6" d="M109.96,56.39c-.63,0-.82.22-.81.6,0,.52.33.67.84.66l1.25-.02c.24-.01.32-.09.31-.36h.12l.02.89h-.12c0-.27-.08-.35-.33-.35l-1.28.03c-.61.02-.95-.26-.95-.95-.01-.73.31-1.09.86-1.1l1.34-.02c.24,0,.31-.09.31-.35h.12l.03,1.28h-.11c-.01-.26-.09-.33-.33-.33l-1.26.02Z"/>
            <path class="cls-6" d="M109.3,60.45c-.27.03-.46.04-.51.36l-.11-.02.19-1.26.12.02c-.02.24,0,.29.11.3.07.02.16,0,.22,0l.42-.05.17-.92-.23-.11c-.08-.04-.18-.1-.27-.11-.18-.03-.27.12-.32.28l-.11-.03.15-.94.11.02c.04.34.2.44.47.59l1.71,1,.08.54-2.19.32ZM111.1,59.6l-1.06-.6-.12.78,1.18-.18Z"/>
          </g>
        </g>
      </g>
    </g>
  </g>
</svg>